G04 #@! TF.GenerationSoftware,KiCad,Pcbnew,(5.0.2)-1*
G04 #@! TF.CreationDate,2019-03-22T14:17:17+01:00*
G04 #@! TF.ProjectId,LoRaNode,4c6f5261-4e6f-4646-952e-6b696361645f,rev?*
G04 #@! TF.SameCoordinates,Original*
G04 #@! TF.FileFunction,Soldermask,Bot*
G04 #@! TF.FilePolarity,Negative*
%FSLAX46Y46*%
G04 Gerber Fmt 4.6, Leading zero omitted, Abs format (unit mm)*
G04 Created by KiCad (PCBNEW (5.0.2)-1) date 03/22/19 14:17:17*
%MOMM*%
%LPD*%
G01*
G04 APERTURE LIST*
%ADD10C,0.100000*%
G04 APERTURE END LIST*
D10*
G36*
X143676630Y-115494299D02*
X143836855Y-115542903D01*
X143984520Y-115621831D01*
X144113949Y-115728051D01*
X144220169Y-115857480D01*
X144299097Y-116005145D01*
X144347701Y-116165370D01*
X144364112Y-116332000D01*
X144347701Y-116498630D01*
X144299097Y-116658855D01*
X144220169Y-116806520D01*
X144113949Y-116935949D01*
X143984520Y-117042169D01*
X143836855Y-117121097D01*
X143676630Y-117169701D01*
X143551752Y-117182000D01*
X143468248Y-117182000D01*
X143343370Y-117169701D01*
X143183145Y-117121097D01*
X143035480Y-117042169D01*
X142906051Y-116935949D01*
X142799831Y-116806520D01*
X142720903Y-116658855D01*
X142672299Y-116498630D01*
X142655888Y-116332000D01*
X142672299Y-116165370D01*
X142720903Y-116005145D01*
X142799831Y-115857480D01*
X142906051Y-115728051D01*
X143035480Y-115621831D01*
X143183145Y-115542903D01*
X143343370Y-115494299D01*
X143468248Y-115482000D01*
X143551752Y-115482000D01*
X143676630Y-115494299D01*
X143676630Y-115494299D01*
G37*
G36*
X146216630Y-115494299D02*
X146376855Y-115542903D01*
X146524520Y-115621831D01*
X146653949Y-115728051D01*
X146760169Y-115857480D01*
X146839097Y-116005145D01*
X146887701Y-116165370D01*
X146904112Y-116332000D01*
X146887701Y-116498630D01*
X146839097Y-116658855D01*
X146760169Y-116806520D01*
X146653949Y-116935949D01*
X146524520Y-117042169D01*
X146376855Y-117121097D01*
X146216630Y-117169701D01*
X146091752Y-117182000D01*
X146008248Y-117182000D01*
X145883370Y-117169701D01*
X145723145Y-117121097D01*
X145575480Y-117042169D01*
X145446051Y-116935949D01*
X145339831Y-116806520D01*
X145260903Y-116658855D01*
X145212299Y-116498630D01*
X145195888Y-116332000D01*
X145212299Y-116165370D01*
X145260903Y-116005145D01*
X145339831Y-115857480D01*
X145446051Y-115728051D01*
X145575480Y-115621831D01*
X145723145Y-115542903D01*
X145883370Y-115494299D01*
X146008248Y-115482000D01*
X146091752Y-115482000D01*
X146216630Y-115494299D01*
X146216630Y-115494299D01*
G37*
G36*
X149440000Y-117182000D02*
X147740000Y-117182000D01*
X147740000Y-115482000D01*
X149440000Y-115482000D01*
X149440000Y-117182000D01*
X149440000Y-117182000D01*
G37*
G36*
X160870000Y-117182000D02*
X159170000Y-117182000D01*
X159170000Y-115482000D01*
X160870000Y-115482000D01*
X160870000Y-117182000D01*
X160870000Y-117182000D01*
G37*
G36*
X157646630Y-115494299D02*
X157806855Y-115542903D01*
X157954520Y-115621831D01*
X158083949Y-115728051D01*
X158190169Y-115857480D01*
X158269097Y-116005145D01*
X158317701Y-116165370D01*
X158334112Y-116332000D01*
X158317701Y-116498630D01*
X158269097Y-116658855D01*
X158190169Y-116806520D01*
X158083949Y-116935949D01*
X157954520Y-117042169D01*
X157806855Y-117121097D01*
X157646630Y-117169701D01*
X157521752Y-117182000D01*
X157438248Y-117182000D01*
X157313370Y-117169701D01*
X157153145Y-117121097D01*
X157005480Y-117042169D01*
X156876051Y-116935949D01*
X156769831Y-116806520D01*
X156690903Y-116658855D01*
X156642299Y-116498630D01*
X156625888Y-116332000D01*
X156642299Y-116165370D01*
X156690903Y-116005145D01*
X156769831Y-115857480D01*
X156876051Y-115728051D01*
X157005480Y-115621831D01*
X157153145Y-115542903D01*
X157313370Y-115494299D01*
X157438248Y-115482000D01*
X157521752Y-115482000D01*
X157646630Y-115494299D01*
X157646630Y-115494299D01*
G37*
G36*
X155106630Y-115494299D02*
X155266855Y-115542903D01*
X155414520Y-115621831D01*
X155543949Y-115728051D01*
X155650169Y-115857480D01*
X155729097Y-116005145D01*
X155777701Y-116165370D01*
X155794112Y-116332000D01*
X155777701Y-116498630D01*
X155729097Y-116658855D01*
X155650169Y-116806520D01*
X155543949Y-116935949D01*
X155414520Y-117042169D01*
X155266855Y-117121097D01*
X155106630Y-117169701D01*
X154981752Y-117182000D01*
X154898248Y-117182000D01*
X154773370Y-117169701D01*
X154613145Y-117121097D01*
X154465480Y-117042169D01*
X154336051Y-116935949D01*
X154229831Y-116806520D01*
X154150903Y-116658855D01*
X154102299Y-116498630D01*
X154085888Y-116332000D01*
X154102299Y-116165370D01*
X154150903Y-116005145D01*
X154229831Y-115857480D01*
X154336051Y-115728051D01*
X154465480Y-115621831D01*
X154613145Y-115542903D01*
X154773370Y-115494299D01*
X154898248Y-115482000D01*
X154981752Y-115482000D01*
X155106630Y-115494299D01*
X155106630Y-115494299D01*
G37*
G36*
X152566630Y-115494299D02*
X152726855Y-115542903D01*
X152874520Y-115621831D01*
X153003949Y-115728051D01*
X153110169Y-115857480D01*
X153189097Y-116005145D01*
X153237701Y-116165370D01*
X153254112Y-116332000D01*
X153237701Y-116498630D01*
X153189097Y-116658855D01*
X153110169Y-116806520D01*
X153003949Y-116935949D01*
X152874520Y-117042169D01*
X152726855Y-117121097D01*
X152566630Y-117169701D01*
X152441752Y-117182000D01*
X152358248Y-117182000D01*
X152233370Y-117169701D01*
X152073145Y-117121097D01*
X151925480Y-117042169D01*
X151796051Y-116935949D01*
X151689831Y-116806520D01*
X151610903Y-116658855D01*
X151562299Y-116498630D01*
X151545888Y-116332000D01*
X151562299Y-116165370D01*
X151610903Y-116005145D01*
X151689831Y-115857480D01*
X151796051Y-115728051D01*
X151925480Y-115621831D01*
X152073145Y-115542903D01*
X152233370Y-115494299D01*
X152358248Y-115482000D01*
X152441752Y-115482000D01*
X152566630Y-115494299D01*
X152566630Y-115494299D01*
G37*
G36*
X145926630Y-110802299D02*
X146086855Y-110850903D01*
X146234520Y-110929831D01*
X146363949Y-111036051D01*
X146470169Y-111165480D01*
X146549097Y-111313145D01*
X146597701Y-111473370D01*
X146614112Y-111640000D01*
X146597701Y-111806630D01*
X146549097Y-111966855D01*
X146470169Y-112114520D01*
X146363949Y-112243949D01*
X146234520Y-112350169D01*
X146086855Y-112429097D01*
X145926630Y-112477701D01*
X145801752Y-112490000D01*
X145718248Y-112490000D01*
X145593370Y-112477701D01*
X145433145Y-112429097D01*
X145285480Y-112350169D01*
X145156051Y-112243949D01*
X145049831Y-112114520D01*
X144970903Y-111966855D01*
X144922299Y-111806630D01*
X144905888Y-111640000D01*
X144922299Y-111473370D01*
X144970903Y-111313145D01*
X145049831Y-111165480D01*
X145156051Y-111036051D01*
X145285480Y-110929831D01*
X145433145Y-110850903D01*
X145593370Y-110802299D01*
X145718248Y-110790000D01*
X145801752Y-110790000D01*
X145926630Y-110802299D01*
X145926630Y-110802299D01*
G37*
G36*
X149150000Y-112490000D02*
X147450000Y-112490000D01*
X147450000Y-110790000D01*
X149150000Y-110790000D01*
X149150000Y-112490000D01*
X149150000Y-112490000D01*
G37*
G36*
X148466630Y-108262299D02*
X148626855Y-108310903D01*
X148774520Y-108389831D01*
X148903949Y-108496051D01*
X149010169Y-108625480D01*
X149089097Y-108773145D01*
X149137701Y-108933370D01*
X149154112Y-109100000D01*
X149137701Y-109266630D01*
X149089097Y-109426855D01*
X149010169Y-109574520D01*
X148903949Y-109703949D01*
X148774520Y-109810169D01*
X148626855Y-109889097D01*
X148466630Y-109937701D01*
X148341752Y-109950000D01*
X148258248Y-109950000D01*
X148133370Y-109937701D01*
X147973145Y-109889097D01*
X147825480Y-109810169D01*
X147696051Y-109703949D01*
X147589831Y-109574520D01*
X147510903Y-109426855D01*
X147462299Y-109266630D01*
X147445888Y-109100000D01*
X147462299Y-108933370D01*
X147510903Y-108773145D01*
X147589831Y-108625480D01*
X147696051Y-108496051D01*
X147825480Y-108389831D01*
X147973145Y-108310903D01*
X148133370Y-108262299D01*
X148258248Y-108250000D01*
X148341752Y-108250000D01*
X148466630Y-108262299D01*
X148466630Y-108262299D01*
G37*
G36*
X145926630Y-108262299D02*
X146086855Y-108310903D01*
X146234520Y-108389831D01*
X146363949Y-108496051D01*
X146470169Y-108625480D01*
X146549097Y-108773145D01*
X146597701Y-108933370D01*
X146614112Y-109100000D01*
X146597701Y-109266630D01*
X146549097Y-109426855D01*
X146470169Y-109574520D01*
X146363949Y-109703949D01*
X146234520Y-109810169D01*
X146086855Y-109889097D01*
X145926630Y-109937701D01*
X145801752Y-109950000D01*
X145718248Y-109950000D01*
X145593370Y-109937701D01*
X145433145Y-109889097D01*
X145285480Y-109810169D01*
X145156051Y-109703949D01*
X145049831Y-109574520D01*
X144970903Y-109426855D01*
X144922299Y-109266630D01*
X144905888Y-109100000D01*
X144922299Y-108933370D01*
X144970903Y-108773145D01*
X145049831Y-108625480D01*
X145156051Y-108496051D01*
X145285480Y-108389831D01*
X145433145Y-108310903D01*
X145593370Y-108262299D01*
X145718248Y-108250000D01*
X145801752Y-108250000D01*
X145926630Y-108262299D01*
X145926630Y-108262299D01*
G37*
G36*
X170170630Y-107596299D02*
X170330855Y-107644903D01*
X170478520Y-107723831D01*
X170607949Y-107830051D01*
X170714169Y-107959480D01*
X170793097Y-108107145D01*
X170841701Y-108267370D01*
X170858112Y-108434000D01*
X170841701Y-108600630D01*
X170793097Y-108760855D01*
X170714169Y-108908520D01*
X170607949Y-109037949D01*
X170478520Y-109144169D01*
X170330855Y-109223097D01*
X170170630Y-109271701D01*
X170045752Y-109284000D01*
X169962248Y-109284000D01*
X169837370Y-109271701D01*
X169677145Y-109223097D01*
X169529480Y-109144169D01*
X169400051Y-109037949D01*
X169293831Y-108908520D01*
X169214903Y-108760855D01*
X169166299Y-108600630D01*
X169149888Y-108434000D01*
X169166299Y-108267370D01*
X169214903Y-108107145D01*
X169293831Y-107959480D01*
X169400051Y-107830051D01*
X169529480Y-107723831D01*
X169677145Y-107644903D01*
X169837370Y-107596299D01*
X169962248Y-107584000D01*
X170045752Y-107584000D01*
X170170630Y-107596299D01*
X170170630Y-107596299D01*
G37*
G36*
X148466630Y-105722299D02*
X148626855Y-105770903D01*
X148774520Y-105849831D01*
X148903949Y-105956051D01*
X149010169Y-106085480D01*
X149089097Y-106233145D01*
X149137701Y-106393370D01*
X149154112Y-106560000D01*
X149137701Y-106726630D01*
X149089097Y-106886855D01*
X149010169Y-107034520D01*
X148903949Y-107163949D01*
X148774520Y-107270169D01*
X148626855Y-107349097D01*
X148466630Y-107397701D01*
X148341752Y-107410000D01*
X148258248Y-107410000D01*
X148133370Y-107397701D01*
X147973145Y-107349097D01*
X147825480Y-107270169D01*
X147696051Y-107163949D01*
X147589831Y-107034520D01*
X147510903Y-106886855D01*
X147462299Y-106726630D01*
X147445888Y-106560000D01*
X147462299Y-106393370D01*
X147510903Y-106233145D01*
X147589831Y-106085480D01*
X147696051Y-105956051D01*
X147825480Y-105849831D01*
X147973145Y-105770903D01*
X148133370Y-105722299D01*
X148258248Y-105710000D01*
X148341752Y-105710000D01*
X148466630Y-105722299D01*
X148466630Y-105722299D01*
G37*
G36*
X145926630Y-105722299D02*
X146086855Y-105770903D01*
X146234520Y-105849831D01*
X146363949Y-105956051D01*
X146470169Y-106085480D01*
X146549097Y-106233145D01*
X146597701Y-106393370D01*
X146614112Y-106560000D01*
X146597701Y-106726630D01*
X146549097Y-106886855D01*
X146470169Y-107034520D01*
X146363949Y-107163949D01*
X146234520Y-107270169D01*
X146086855Y-107349097D01*
X145926630Y-107397701D01*
X145801752Y-107410000D01*
X145718248Y-107410000D01*
X145593370Y-107397701D01*
X145433145Y-107349097D01*
X145285480Y-107270169D01*
X145156051Y-107163949D01*
X145049831Y-107034520D01*
X144970903Y-106886855D01*
X144922299Y-106726630D01*
X144905888Y-106560000D01*
X144922299Y-106393370D01*
X144970903Y-106233145D01*
X145049831Y-106085480D01*
X145156051Y-105956051D01*
X145285480Y-105849831D01*
X145433145Y-105770903D01*
X145593370Y-105722299D01*
X145718248Y-105710000D01*
X145801752Y-105710000D01*
X145926630Y-105722299D01*
X145926630Y-105722299D01*
G37*
G36*
X170170630Y-105056299D02*
X170330855Y-105104903D01*
X170478520Y-105183831D01*
X170607949Y-105290051D01*
X170714169Y-105419480D01*
X170793097Y-105567145D01*
X170841701Y-105727370D01*
X170858112Y-105894000D01*
X170841701Y-106060630D01*
X170793097Y-106220855D01*
X170714169Y-106368520D01*
X170607949Y-106497949D01*
X170478520Y-106604169D01*
X170330855Y-106683097D01*
X170170630Y-106731701D01*
X170045752Y-106744000D01*
X169962248Y-106744000D01*
X169837370Y-106731701D01*
X169677145Y-106683097D01*
X169529480Y-106604169D01*
X169400051Y-106497949D01*
X169293831Y-106368520D01*
X169214903Y-106220855D01*
X169166299Y-106060630D01*
X169149888Y-105894000D01*
X169166299Y-105727370D01*
X169214903Y-105567145D01*
X169293831Y-105419480D01*
X169400051Y-105290051D01*
X169529480Y-105183831D01*
X169677145Y-105104903D01*
X169837370Y-105056299D01*
X169962248Y-105044000D01*
X170045752Y-105044000D01*
X170170630Y-105056299D01*
X170170630Y-105056299D01*
G37*
G36*
X170170630Y-102516299D02*
X170330855Y-102564903D01*
X170478520Y-102643831D01*
X170607949Y-102750051D01*
X170714169Y-102879480D01*
X170793097Y-103027145D01*
X170841701Y-103187370D01*
X170858112Y-103354000D01*
X170841701Y-103520630D01*
X170793097Y-103680855D01*
X170714169Y-103828520D01*
X170607949Y-103957949D01*
X170478520Y-104064169D01*
X170330855Y-104143097D01*
X170170630Y-104191701D01*
X170045752Y-104204000D01*
X169962248Y-104204000D01*
X169837370Y-104191701D01*
X169677145Y-104143097D01*
X169529480Y-104064169D01*
X169400051Y-103957949D01*
X169293831Y-103828520D01*
X169214903Y-103680855D01*
X169166299Y-103520630D01*
X169149888Y-103354000D01*
X169166299Y-103187370D01*
X169214903Y-103027145D01*
X169293831Y-102879480D01*
X169400051Y-102750051D01*
X169529480Y-102643831D01*
X169677145Y-102564903D01*
X169837370Y-102516299D01*
X169962248Y-102504000D01*
X170045752Y-102504000D01*
X170170630Y-102516299D01*
X170170630Y-102516299D01*
G37*
G36*
X170170630Y-99976299D02*
X170330855Y-100024903D01*
X170478520Y-100103831D01*
X170607949Y-100210051D01*
X170714169Y-100339480D01*
X170793097Y-100487145D01*
X170841701Y-100647370D01*
X170858112Y-100814000D01*
X170841701Y-100980630D01*
X170793097Y-101140855D01*
X170714169Y-101288520D01*
X170607949Y-101417949D01*
X170478520Y-101524169D01*
X170330855Y-101603097D01*
X170170630Y-101651701D01*
X170045752Y-101664000D01*
X169962248Y-101664000D01*
X169837370Y-101651701D01*
X169677145Y-101603097D01*
X169529480Y-101524169D01*
X169400051Y-101417949D01*
X169293831Y-101288520D01*
X169214903Y-101140855D01*
X169166299Y-100980630D01*
X169149888Y-100814000D01*
X169166299Y-100647370D01*
X169214903Y-100487145D01*
X169293831Y-100339480D01*
X169400051Y-100210051D01*
X169529480Y-100103831D01*
X169677145Y-100024903D01*
X169837370Y-99976299D01*
X169962248Y-99964000D01*
X170045752Y-99964000D01*
X170170630Y-99976299D01*
X170170630Y-99976299D01*
G37*
G36*
X170170630Y-97436299D02*
X170330855Y-97484903D01*
X170478520Y-97563831D01*
X170607949Y-97670051D01*
X170714169Y-97799480D01*
X170793097Y-97947145D01*
X170841701Y-98107370D01*
X170858112Y-98274000D01*
X170841701Y-98440630D01*
X170793097Y-98600855D01*
X170714169Y-98748520D01*
X170607949Y-98877949D01*
X170478520Y-98984169D01*
X170330855Y-99063097D01*
X170170630Y-99111701D01*
X170045752Y-99124000D01*
X169962248Y-99124000D01*
X169837370Y-99111701D01*
X169677145Y-99063097D01*
X169529480Y-98984169D01*
X169400051Y-98877949D01*
X169293831Y-98748520D01*
X169214903Y-98600855D01*
X169166299Y-98440630D01*
X169149888Y-98274000D01*
X169166299Y-98107370D01*
X169214903Y-97947145D01*
X169293831Y-97799480D01*
X169400051Y-97670051D01*
X169529480Y-97563831D01*
X169677145Y-97484903D01*
X169837370Y-97436299D01*
X169962248Y-97424000D01*
X170045752Y-97424000D01*
X170170630Y-97436299D01*
X170170630Y-97436299D01*
G37*
G36*
X170854000Y-96584000D02*
X169154000Y-96584000D01*
X169154000Y-94884000D01*
X170854000Y-94884000D01*
X170854000Y-96584000D01*
X170854000Y-96584000D01*
G37*
M02*
