M48
;DRILL file {KiCad (5.0.2)-1} date 03/22/19 14:18:02
;FORMAT={-:-/ absolute / inch / decimal}
FMAT,2
INCH,TZ
T1C0.0118
T2C0.0394
%
G90
G05
T1
X5.0197Y-3.4843
X5.0197Y-3.5236
X5.0394Y-3.563
X5.0394Y-3.6024
X5.0394Y-3.6417
X5.0394Y-3.6811
X5.0394Y-3.8583
X5.0394Y-3.8976
X5.0394Y-3.937
X5.0394Y-3.9764
X5.0394Y-4.0157
X5.0394Y-4.0551
X5.0394Y-4.0945
X5.0394Y-4.1339
X5.0394Y-4.1732
X5.0394Y-4.2126
X5.0394Y-4.252
X5.0394Y-4.2913
X5.0394Y-4.3307
X5.0394Y-4.4685
X5.0394Y-4.5276
X5.0394Y-4.5669
X5.0394Y-4.6063
X5.0394Y-4.6457
X5.0591Y-3.4843
X5.0591Y-3.5236
X5.0787Y-4.6457
X5.0984Y-3.4843
X5.0984Y-3.5236
X5.1181Y-4.6457
X5.1378Y-3.6811
X5.1575Y-3.4843
X5.1575Y-4.6457
X5.1969Y-4.6457
X5.2165Y-3.4921
X5.2362Y-3.563
X5.2362Y-4.6457
X5.2756Y-4.6457
X5.2953Y-3.6024
X5.315Y-4.6457
X5.3543Y-3.6024
X5.3543Y-4.2303
X5.3543Y-4.335
X5.3543Y-4.6457
X5.3937Y-3.622
X5.3937Y-4.6457
X5.4331Y-3.6614
X5.4331Y-4.3386
X5.4331Y-4.6457
X5.435Y-4.2087
X5.4646Y-3.4921
X5.4724Y-3.7008
X5.4724Y-4.6457
X5.5039Y-3.7244
X5.5118Y-3.5433
X5.5118Y-3.7736
X5.5118Y-3.8189
X5.5118Y-3.8583
X5.5118Y-4.6457
X5.5512Y-3.5039
X5.5512Y-3.5827
X5.5512Y-3.878
X5.5512Y-4.6457
X5.5906Y-3.5039
X5.5906Y-3.622
X5.5906Y-3.878
X5.5906Y-4.6457
X5.6299Y-3.5039
X5.6299Y-3.6614
X5.6299Y-3.878
X5.6299Y-4.6457
X5.64Y-4.36
X5.64Y-4.44
X5.6693Y-3.5039
X5.6693Y-3.7008
X5.6693Y-3.7402
X5.6693Y-3.7795
X5.6693Y-3.8189
X5.6693Y-3.8583
X5.6693Y-4.6457
X5.7087Y-3.5039
X5.7087Y-4.6457
X5.748Y-3.5039
X5.748Y-4.6457
X5.7874Y-3.5039
X5.8268Y-3.5039
X5.8661Y-3.5039
X5.9055Y-3.5039
X5.9449Y-3.5039
X5.9843Y-3.5039
X6.0236Y-3.5039
X6.03Y-4.13
X6.0331Y-4.3491
X6.063Y-3.5039
X6.1024Y-3.5039
X6.1417Y-3.5039
X6.18Y-4.16
X6.1811Y-3.5039
X6.2131Y-4.2091
X6.2205Y-3.5039
X6.2205Y-4.6455
X6.2531Y-3.8691
X6.2598Y-3.5039
X6.2598Y-4.6455
X6.2631Y-3.6991
X6.2992Y-3.5039
X6.2992Y-4.6455
X6.3386Y-3.5039
X6.3386Y-4.6455
X6.3525Y-4.0268
X6.378Y-3.5039
X6.378Y-4.6455
X6.3951Y-4.0711
X6.4131Y-3.8091
X6.4173Y-3.5039
X6.4173Y-4.6455
X6.4567Y-3.5039
X6.4567Y-4.6455
X6.4927Y-4.6455
X6.4961Y-3.5039
X6.5354Y-3.5039
X6.5354Y-4.6457
X6.5748Y-3.5039
X6.5748Y-4.6457
X6.6142Y-3.5039
X6.6142Y-4.6457
X6.6535Y-3.5039
X6.6535Y-4.6457
X6.6929Y-3.5039
X6.6929Y-4.6457
X6.7323Y-3.5039
X6.7323Y-3.5433
X6.7323Y-3.5827
X6.7323Y-3.622
X6.7323Y-3.6614
X6.7323Y-3.7008
X6.7323Y-4.3307
X6.7323Y-4.3701
X6.7323Y-4.4094
X6.7323Y-4.4488
X6.7323Y-4.4882
X6.7323Y-4.5276
X6.7323Y-4.5669
X6.7323Y-4.6063
X6.7323Y-4.6457
T2
X6.6931Y-3.7691
X6.6931Y-3.8691
X6.6931Y-3.9691
X6.6931Y-4.0691
X6.6931Y-4.1691
X6.6931Y-4.2691
X6.Y-4.58
X6.1Y-4.58
X6.2Y-4.58
X6.3Y-4.58
X5.65Y-4.58
X5.75Y-4.58
X5.85Y-4.58
X5.7386Y-4.1953
X5.7386Y-4.2953
X5.7386Y-4.3953
X5.8386Y-4.1953
X5.8386Y-4.2953
X5.8386Y-4.3953
T0
M30
