G04 #@! TF.GenerationSoftware,KiCad,Pcbnew,(5.0.2)-1*
G04 #@! TF.CreationDate,2019-03-22T14:17:17+01:00*
G04 #@! TF.ProjectId,LoRaNode,4c6f5261-4e6f-4646-952e-6b696361645f,rev?*
G04 #@! TF.SameCoordinates,Original*
G04 #@! TF.FileFunction,Legend,Top*
G04 #@! TF.FilePolarity,Positive*
%FSLAX46Y46*%
G04 Gerber Fmt 4.6, Leading zero omitted, Abs format (unit mm)*
G04 Created by KiCad (PCBNEW (5.0.2)-1) date 03/22/19 14:17:17*
%MOMM*%
%LPD*%
G01*
G04 APERTURE LIST*
%ADD10C,0.300000*%
%ADD11C,0.200000*%
%ADD12C,0.100000*%
%ADD13C,0.120000*%
%ADD14C,0.150000*%
%ADD15C,0.010000*%
%ADD16C,0.125000*%
G04 APERTURE END LIST*
D10*
X138672285Y-115764571D02*
X139172285Y-117264571D01*
X139672285Y-115764571D01*
X140172285Y-117264571D02*
X140172285Y-116264571D01*
X140172285Y-115764571D02*
X140100857Y-115836000D01*
X140172285Y-115907428D01*
X140243714Y-115836000D01*
X140172285Y-115764571D01*
X140172285Y-115907428D01*
X140886571Y-116264571D02*
X140886571Y-117264571D01*
X140886571Y-116407428D02*
X140958000Y-116336000D01*
X141100857Y-116264571D01*
X141315142Y-116264571D01*
X141458000Y-116336000D01*
X141529428Y-116478857D01*
X141529428Y-117264571D01*
X162111714Y-117010571D02*
X162111714Y-115510571D01*
X162754571Y-115653428D02*
X162826000Y-115582000D01*
X162968857Y-115510571D01*
X163326000Y-115510571D01*
X163468857Y-115582000D01*
X163540285Y-115653428D01*
X163611714Y-115796285D01*
X163611714Y-115939142D01*
X163540285Y-116153428D01*
X162683142Y-117010571D01*
X163611714Y-117010571D01*
X165111714Y-116867714D02*
X165040285Y-116939142D01*
X164826000Y-117010571D01*
X164683142Y-117010571D01*
X164468857Y-116939142D01*
X164326000Y-116796285D01*
X164254571Y-116653428D01*
X164183142Y-116367714D01*
X164183142Y-116153428D01*
X164254571Y-115867714D01*
X164326000Y-115724857D01*
X164468857Y-115582000D01*
X164683142Y-115510571D01*
X164826000Y-115510571D01*
X165040285Y-115582000D01*
X165111714Y-115653428D01*
D11*
X143288571Y-89352380D02*
X142812380Y-89352380D01*
X142812380Y-88352380D01*
X143764761Y-89352380D02*
X143669523Y-89304761D01*
X143621904Y-89257142D01*
X143574285Y-89161904D01*
X143574285Y-88876190D01*
X143621904Y-88780952D01*
X143669523Y-88733333D01*
X143764761Y-88685714D01*
X143907619Y-88685714D01*
X144002857Y-88733333D01*
X144050476Y-88780952D01*
X144098095Y-88876190D01*
X144098095Y-89161904D01*
X144050476Y-89257142D01*
X144002857Y-89304761D01*
X143907619Y-89352380D01*
X143764761Y-89352380D01*
X145098095Y-89352380D02*
X144764761Y-88876190D01*
X144526666Y-89352380D02*
X144526666Y-88352380D01*
X144907619Y-88352380D01*
X145002857Y-88400000D01*
X145050476Y-88447619D01*
X145098095Y-88542857D01*
X145098095Y-88685714D01*
X145050476Y-88780952D01*
X145002857Y-88828571D01*
X144907619Y-88876190D01*
X144526666Y-88876190D01*
X145955238Y-89352380D02*
X145955238Y-88828571D01*
X145907619Y-88733333D01*
X145812380Y-88685714D01*
X145621904Y-88685714D01*
X145526666Y-88733333D01*
X145955238Y-89304761D02*
X145860000Y-89352380D01*
X145621904Y-89352380D01*
X145526666Y-89304761D01*
X145479047Y-89209523D01*
X145479047Y-89114285D01*
X145526666Y-89019047D01*
X145621904Y-88971428D01*
X145860000Y-88971428D01*
X145955238Y-88923809D01*
X147193333Y-89352380D02*
X147193333Y-88352380D01*
X147764761Y-89352380D01*
X147764761Y-88352380D01*
X148383809Y-89352380D02*
X148288571Y-89304761D01*
X148240952Y-89257142D01*
X148193333Y-89161904D01*
X148193333Y-88876190D01*
X148240952Y-88780952D01*
X148288571Y-88733333D01*
X148383809Y-88685714D01*
X148526666Y-88685714D01*
X148621904Y-88733333D01*
X148669523Y-88780952D01*
X148717142Y-88876190D01*
X148717142Y-89161904D01*
X148669523Y-89257142D01*
X148621904Y-89304761D01*
X148526666Y-89352380D01*
X148383809Y-89352380D01*
X149574285Y-89352380D02*
X149574285Y-88352380D01*
X149574285Y-89304761D02*
X149479047Y-89352380D01*
X149288571Y-89352380D01*
X149193333Y-89304761D01*
X149145714Y-89257142D01*
X149098095Y-89161904D01*
X149098095Y-88876190D01*
X149145714Y-88780952D01*
X149193333Y-88733333D01*
X149288571Y-88685714D01*
X149479047Y-88685714D01*
X149574285Y-88733333D01*
X150431428Y-89304761D02*
X150336190Y-89352380D01*
X150145714Y-89352380D01*
X150050476Y-89304761D01*
X150002857Y-89209523D01*
X150002857Y-88828571D01*
X150050476Y-88733333D01*
X150145714Y-88685714D01*
X150336190Y-88685714D01*
X150431428Y-88733333D01*
X150479047Y-88828571D01*
X150479047Y-88923809D01*
X150002857Y-89019047D01*
X152193333Y-89352380D02*
X151621904Y-89352380D01*
X151907619Y-89352380D02*
X151907619Y-88352380D01*
X151812380Y-88495238D01*
X151717142Y-88590476D01*
X151621904Y-88638095D01*
X152669523Y-89352380D02*
X152860000Y-89352380D01*
X152955238Y-89304761D01*
X153002857Y-89257142D01*
X153098095Y-89114285D01*
X153145714Y-88923809D01*
X153145714Y-88542857D01*
X153098095Y-88447619D01*
X153050476Y-88400000D01*
X152955238Y-88352380D01*
X152764761Y-88352380D01*
X152669523Y-88400000D01*
X152621904Y-88447619D01*
X152574285Y-88542857D01*
X152574285Y-88780952D01*
X152621904Y-88876190D01*
X152669523Y-88923809D01*
X152764761Y-88971428D01*
X152955238Y-88971428D01*
X153050476Y-88923809D01*
X153098095Y-88876190D01*
X153145714Y-88780952D01*
X153764761Y-88352380D02*
X153860000Y-88352380D01*
X153955238Y-88400000D01*
X154002857Y-88447619D01*
X154050476Y-88542857D01*
X154098095Y-88733333D01*
X154098095Y-88971428D01*
X154050476Y-89161904D01*
X154002857Y-89257142D01*
X153955238Y-89304761D01*
X153860000Y-89352380D01*
X153764761Y-89352380D01*
X153669523Y-89304761D01*
X153621904Y-89257142D01*
X153574285Y-89161904D01*
X153526666Y-88971428D01*
X153526666Y-88733333D01*
X153574285Y-88542857D01*
X153621904Y-88447619D01*
X153669523Y-88400000D01*
X153764761Y-88352380D01*
X154431428Y-88352380D02*
X155050476Y-88352380D01*
X154717142Y-88733333D01*
X154859999Y-88733333D01*
X154955238Y-88780952D01*
X155002857Y-88828571D01*
X155050476Y-88923809D01*
X155050476Y-89161904D01*
X155002857Y-89257142D01*
X154955238Y-89304761D01*
X154859999Y-89352380D01*
X154574285Y-89352380D01*
X154479047Y-89304761D01*
X154431428Y-89257142D01*
X155431428Y-88447619D02*
X155479047Y-88400000D01*
X155574285Y-88352380D01*
X155812380Y-88352380D01*
X155907619Y-88400000D01*
X155955238Y-88447619D01*
X156002857Y-88542857D01*
X156002857Y-88638095D01*
X155955238Y-88780952D01*
X155383809Y-89352380D01*
X156002857Y-89352380D01*
X156383809Y-88447619D02*
X156431428Y-88400000D01*
X156526666Y-88352380D01*
X156764761Y-88352380D01*
X156859999Y-88400000D01*
X156907619Y-88447619D01*
X156955238Y-88542857D01*
X156955238Y-88638095D01*
X156907619Y-88780952D01*
X156336190Y-89352380D01*
X156955238Y-89352380D01*
X164965428Y-86748952D02*
X164870190Y-86701333D01*
X164822571Y-86653714D01*
X164774952Y-86558476D01*
X164774952Y-86510857D01*
X164822571Y-86415619D01*
X164870190Y-86368000D01*
X164965428Y-86320380D01*
X165155904Y-86320380D01*
X165251142Y-86368000D01*
X165298761Y-86415619D01*
X165346380Y-86510857D01*
X165346380Y-86558476D01*
X165298761Y-86653714D01*
X165251142Y-86701333D01*
X165155904Y-86748952D01*
X164965428Y-86748952D01*
X164870190Y-86796571D01*
X164822571Y-86844190D01*
X164774952Y-86939428D01*
X164774952Y-87129904D01*
X164822571Y-87225142D01*
X164870190Y-87272761D01*
X164965428Y-87320380D01*
X165155904Y-87320380D01*
X165251142Y-87272761D01*
X165298761Y-87225142D01*
X165346380Y-87129904D01*
X165346380Y-86939428D01*
X165298761Y-86844190D01*
X165251142Y-86796571D01*
X165155904Y-86748952D01*
X166203523Y-86320380D02*
X166013047Y-86320380D01*
X165917809Y-86368000D01*
X165870190Y-86415619D01*
X165774952Y-86558476D01*
X165727333Y-86748952D01*
X165727333Y-87129904D01*
X165774952Y-87225142D01*
X165822571Y-87272761D01*
X165917809Y-87320380D01*
X166108285Y-87320380D01*
X166203523Y-87272761D01*
X166251142Y-87225142D01*
X166298761Y-87129904D01*
X166298761Y-86891809D01*
X166251142Y-86796571D01*
X166203523Y-86748952D01*
X166108285Y-86701333D01*
X165917809Y-86701333D01*
X165822571Y-86748952D01*
X165774952Y-86796571D01*
X165727333Y-86891809D01*
X166870190Y-86748952D02*
X166774952Y-86701333D01*
X166727333Y-86653714D01*
X166679714Y-86558476D01*
X166679714Y-86510857D01*
X166727333Y-86415619D01*
X166774952Y-86368000D01*
X166870190Y-86320380D01*
X167060666Y-86320380D01*
X167155904Y-86368000D01*
X167203523Y-86415619D01*
X167251142Y-86510857D01*
X167251142Y-86558476D01*
X167203523Y-86653714D01*
X167155904Y-86701333D01*
X167060666Y-86748952D01*
X166870190Y-86748952D01*
X166774952Y-86796571D01*
X166727333Y-86844190D01*
X166679714Y-86939428D01*
X166679714Y-87129904D01*
X166727333Y-87225142D01*
X166774952Y-87272761D01*
X166870190Y-87320380D01*
X167060666Y-87320380D01*
X167155904Y-87272761D01*
X167203523Y-87225142D01*
X167251142Y-87129904D01*
X167251142Y-86939428D01*
X167203523Y-86844190D01*
X167155904Y-86796571D01*
X167060666Y-86748952D01*
X168441619Y-87320380D02*
X168441619Y-86320380D01*
X168774952Y-87034666D01*
X169108285Y-86320380D01*
X169108285Y-87320380D01*
X169584476Y-87320380D02*
X169584476Y-86320380D01*
X169584476Y-86796571D02*
X170155904Y-86796571D01*
X170155904Y-87320380D02*
X170155904Y-86320380D01*
X170536857Y-86653714D02*
X171060666Y-86653714D01*
X170536857Y-87320380D01*
X171060666Y-87320380D01*
D10*
X182078571Y-97928571D02*
X182078571Y-98642857D01*
X182792857Y-98714285D01*
X182721428Y-98642857D01*
X182650000Y-98500000D01*
X182650000Y-98142857D01*
X182721428Y-98000000D01*
X182792857Y-97928571D01*
X182935714Y-97857142D01*
X183292857Y-97857142D01*
X183435714Y-97928571D01*
X183507142Y-98000000D01*
X183578571Y-98142857D01*
X183578571Y-98500000D01*
X183507142Y-98642857D01*
X183435714Y-98714285D01*
X182078571Y-97357142D02*
X182078571Y-96428571D01*
X182650000Y-96928571D01*
X182650000Y-96714285D01*
X182721428Y-96571428D01*
X182792857Y-96500000D01*
X182935714Y-96428571D01*
X183292857Y-96428571D01*
X183435714Y-96500000D01*
X183507142Y-96571428D01*
X183578571Y-96714285D01*
X183578571Y-97142857D01*
X183507142Y-97285714D01*
X183435714Y-97357142D01*
X183435714Y-95785714D02*
X183507142Y-95714285D01*
X183578571Y-95785714D01*
X183507142Y-95857142D01*
X183435714Y-95785714D01*
X183578571Y-95785714D01*
X182078571Y-94785714D02*
X182078571Y-94642857D01*
X182150000Y-94500000D01*
X182221428Y-94428571D01*
X182364285Y-94357142D01*
X182650000Y-94285714D01*
X183007142Y-94285714D01*
X183292857Y-94357142D01*
X183435714Y-94428571D01*
X183507142Y-94500000D01*
X183578571Y-94642857D01*
X183578571Y-94785714D01*
X183507142Y-94928571D01*
X183435714Y-95000000D01*
X183292857Y-95071428D01*
X183007142Y-95142857D01*
X182650000Y-95142857D01*
X182364285Y-95071428D01*
X182221428Y-95000000D01*
X182150000Y-94928571D01*
X182078571Y-94785714D01*
X182078571Y-93357142D02*
X182078571Y-93214285D01*
X182150000Y-93071428D01*
X182221428Y-93000000D01*
X182364285Y-92928571D01*
X182650000Y-92857142D01*
X183007142Y-92857142D01*
X183292857Y-92928571D01*
X183435714Y-93000000D01*
X183507142Y-93071428D01*
X183578571Y-93214285D01*
X183578571Y-93357142D01*
X183507142Y-93500000D01*
X183435714Y-93571428D01*
X183292857Y-93642857D01*
X183007142Y-93714285D01*
X182650000Y-93714285D01*
X182364285Y-93642857D01*
X182221428Y-93571428D01*
X182150000Y-93500000D01*
X182078571Y-93357142D01*
X182078571Y-91928571D02*
X182078571Y-91785714D01*
X182150000Y-91642857D01*
X182221428Y-91571428D01*
X182364285Y-91500000D01*
X182650000Y-91428571D01*
X183007142Y-91428571D01*
X183292857Y-91500000D01*
X183435714Y-91571428D01*
X183507142Y-91642857D01*
X183578571Y-91785714D01*
X183578571Y-91928571D01*
X183507142Y-92071428D01*
X183435714Y-92142857D01*
X183292857Y-92214285D01*
X183007142Y-92285714D01*
X182650000Y-92285714D01*
X182364285Y-92214285D01*
X182221428Y-92142857D01*
X182150000Y-92071428D01*
X182078571Y-91928571D01*
X183578571Y-89642857D02*
X182578571Y-89642857D01*
X182721428Y-89642857D02*
X182650000Y-89571428D01*
X182578571Y-89428571D01*
X182578571Y-89214285D01*
X182650000Y-89071428D01*
X182792857Y-89000000D01*
X183578571Y-89000000D01*
X182792857Y-89000000D02*
X182650000Y-88928571D01*
X182578571Y-88785714D01*
X182578571Y-88571428D01*
X182650000Y-88428571D01*
X182792857Y-88357142D01*
X183578571Y-88357142D01*
X183578571Y-87642857D02*
X182578571Y-87642857D01*
X182721428Y-87642857D02*
X182650000Y-87571428D01*
X182578571Y-87428571D01*
X182578571Y-87214285D01*
X182650000Y-87071428D01*
X182792857Y-87000000D01*
X183578571Y-87000000D01*
X182792857Y-87000000D02*
X182650000Y-86928571D01*
X182578571Y-86785714D01*
X182578571Y-86571428D01*
X182650000Y-86428571D01*
X182792857Y-86357142D01*
X183578571Y-86357142D01*
X180800000Y-119000000D02*
X180800000Y-66000000D01*
X172000000Y-119000000D02*
X181386421Y-119000000D01*
X172000000Y-66000000D02*
X181386421Y-66000000D01*
X180800000Y-66000000D02*
X181386421Y-67126504D01*
X180800000Y-66000000D02*
X180213579Y-67126504D01*
X180800000Y-119000000D02*
X181386421Y-117873496D01*
X180800000Y-119000000D02*
X180213579Y-117873496D01*
X176978571Y-109785714D02*
X176978571Y-108857142D01*
X177550000Y-109357142D01*
X177550000Y-109142857D01*
X177621428Y-109000000D01*
X177692857Y-108928571D01*
X177835714Y-108857142D01*
X178192857Y-108857142D01*
X178335714Y-108928571D01*
X178407142Y-109000000D01*
X178478571Y-109142857D01*
X178478571Y-109571428D01*
X178407142Y-109714285D01*
X178335714Y-109785714D01*
X178478571Y-107428571D02*
X178478571Y-108285714D01*
X178478571Y-107857142D02*
X176978571Y-107857142D01*
X177192857Y-108000000D01*
X177335714Y-108142857D01*
X177407142Y-108285714D01*
X178335714Y-106785714D02*
X178407142Y-106714285D01*
X178478571Y-106785714D01*
X178407142Y-106857142D01*
X178335714Y-106785714D01*
X178478571Y-106785714D01*
X176978571Y-105785714D02*
X176978571Y-105642857D01*
X177050000Y-105500000D01*
X177121428Y-105428571D01*
X177264285Y-105357142D01*
X177550000Y-105285714D01*
X177907142Y-105285714D01*
X178192857Y-105357142D01*
X178335714Y-105428571D01*
X178407142Y-105500000D01*
X178478571Y-105642857D01*
X178478571Y-105785714D01*
X178407142Y-105928571D01*
X178335714Y-106000000D01*
X178192857Y-106071428D01*
X177907142Y-106142857D01*
X177550000Y-106142857D01*
X177264285Y-106071428D01*
X177121428Y-106000000D01*
X177050000Y-105928571D01*
X176978571Y-105785714D01*
X176978571Y-104357142D02*
X176978571Y-104214285D01*
X177050000Y-104071428D01*
X177121428Y-104000000D01*
X177264285Y-103928571D01*
X177550000Y-103857142D01*
X177907142Y-103857142D01*
X178192857Y-103928571D01*
X178335714Y-104000000D01*
X178407142Y-104071428D01*
X178478571Y-104214285D01*
X178478571Y-104357142D01*
X178407142Y-104500000D01*
X178335714Y-104571428D01*
X178192857Y-104642857D01*
X177907142Y-104714285D01*
X177550000Y-104714285D01*
X177264285Y-104642857D01*
X177121428Y-104571428D01*
X177050000Y-104500000D01*
X176978571Y-104357142D01*
X176978571Y-102928571D02*
X176978571Y-102785714D01*
X177050000Y-102642857D01*
X177121428Y-102571428D01*
X177264285Y-102500000D01*
X177550000Y-102428571D01*
X177907142Y-102428571D01*
X178192857Y-102500000D01*
X178335714Y-102571428D01*
X178407142Y-102642857D01*
X178478571Y-102785714D01*
X178478571Y-102928571D01*
X178407142Y-103071428D01*
X178335714Y-103142857D01*
X178192857Y-103214285D01*
X177907142Y-103285714D01*
X177550000Y-103285714D01*
X177264285Y-103214285D01*
X177121428Y-103142857D01*
X177050000Y-103071428D01*
X176978571Y-102928571D01*
X178478571Y-100642857D02*
X177478571Y-100642857D01*
X177621428Y-100642857D02*
X177550000Y-100571428D01*
X177478571Y-100428571D01*
X177478571Y-100214285D01*
X177550000Y-100071428D01*
X177692857Y-100000000D01*
X178478571Y-100000000D01*
X177692857Y-100000000D02*
X177550000Y-99928571D01*
X177478571Y-99785714D01*
X177478571Y-99571428D01*
X177550000Y-99428571D01*
X177692857Y-99357142D01*
X178478571Y-99357142D01*
X178478571Y-98642857D02*
X177478571Y-98642857D01*
X177621428Y-98642857D02*
X177550000Y-98571428D01*
X177478571Y-98428571D01*
X177478571Y-98214285D01*
X177550000Y-98071428D01*
X177692857Y-98000000D01*
X178478571Y-98000000D01*
X177692857Y-98000000D02*
X177550000Y-97928571D01*
X177478571Y-97785714D01*
X177478571Y-97571428D01*
X177550000Y-97428571D01*
X177692857Y-97357142D01*
X178478571Y-97357142D01*
X175700000Y-119000000D02*
X175700000Y-88000000D01*
X172000000Y-119000000D02*
X176286421Y-119000000D01*
X172000000Y-88000000D02*
X176286421Y-88000000D01*
X175700000Y-88000000D02*
X176286421Y-89126504D01*
X175700000Y-88000000D02*
X175113579Y-89126504D01*
X175700000Y-119000000D02*
X176286421Y-117873496D01*
X175700000Y-119000000D02*
X175113579Y-117873496D01*
X144000000Y-124278570D02*
X144000000Y-125278570D01*
X143642857Y-123707141D02*
X143285714Y-124778570D01*
X144214285Y-124778570D01*
X145500000Y-123778570D02*
X144785714Y-123778570D01*
X144714285Y-124492856D01*
X144785714Y-124421427D01*
X144928571Y-124349999D01*
X145285714Y-124349999D01*
X145428571Y-124421427D01*
X145500000Y-124492856D01*
X145571428Y-124635713D01*
X145571428Y-124992856D01*
X145500000Y-125135713D01*
X145428571Y-125207141D01*
X145285714Y-125278570D01*
X144928571Y-125278570D01*
X144785714Y-125207141D01*
X144714285Y-125135713D01*
X146214285Y-125135713D02*
X146285714Y-125207141D01*
X146214285Y-125278570D01*
X146142857Y-125207141D01*
X146214285Y-125135713D01*
X146214285Y-125278570D01*
X147214285Y-123778570D02*
X147357142Y-123778570D01*
X147500000Y-123849999D01*
X147571428Y-123921427D01*
X147642857Y-124064284D01*
X147714285Y-124349999D01*
X147714285Y-124707141D01*
X147642857Y-124992856D01*
X147571428Y-125135713D01*
X147500000Y-125207141D01*
X147357142Y-125278570D01*
X147214285Y-125278570D01*
X147071428Y-125207141D01*
X147000000Y-125135713D01*
X146928571Y-124992856D01*
X146857142Y-124707141D01*
X146857142Y-124349999D01*
X146928571Y-124064284D01*
X147000000Y-123921427D01*
X147071428Y-123849999D01*
X147214285Y-123778570D01*
X148642857Y-123778570D02*
X148785714Y-123778570D01*
X148928571Y-123849999D01*
X149000000Y-123921427D01*
X149071428Y-124064284D01*
X149142857Y-124349999D01*
X149142857Y-124707141D01*
X149071428Y-124992856D01*
X149000000Y-125135713D01*
X148928571Y-125207141D01*
X148785714Y-125278570D01*
X148642857Y-125278570D01*
X148500000Y-125207141D01*
X148428571Y-125135713D01*
X148357142Y-124992856D01*
X148285714Y-124707141D01*
X148285714Y-124349999D01*
X148357142Y-124064284D01*
X148428571Y-123921427D01*
X148500000Y-123849999D01*
X148642857Y-123778570D01*
X150071428Y-123778570D02*
X150214285Y-123778570D01*
X150357142Y-123849999D01*
X150428571Y-123921427D01*
X150500000Y-124064284D01*
X150571428Y-124349999D01*
X150571428Y-124707141D01*
X150500000Y-124992856D01*
X150428571Y-125135713D01*
X150357142Y-125207141D01*
X150214285Y-125278570D01*
X150071428Y-125278570D01*
X149928571Y-125207141D01*
X149857142Y-125135713D01*
X149785714Y-124992856D01*
X149714285Y-124707141D01*
X149714285Y-124349999D01*
X149785714Y-124064284D01*
X149857142Y-123921427D01*
X149928571Y-123849999D01*
X150071428Y-123778570D01*
X152357142Y-125278570D02*
X152357142Y-124278570D01*
X152357142Y-124421427D02*
X152428571Y-124349999D01*
X152571428Y-124278570D01*
X152785714Y-124278570D01*
X152928571Y-124349999D01*
X153000000Y-124492856D01*
X153000000Y-125278570D01*
X153000000Y-124492856D02*
X153071428Y-124349999D01*
X153214285Y-124278570D01*
X153428571Y-124278570D01*
X153571428Y-124349999D01*
X153642857Y-124492856D01*
X153642857Y-125278570D01*
X154357142Y-125278570D02*
X154357142Y-124278570D01*
X154357142Y-124421427D02*
X154428571Y-124349999D01*
X154571428Y-124278570D01*
X154785714Y-124278570D01*
X154928571Y-124349999D01*
X155000000Y-124492856D01*
X155000000Y-125278570D01*
X155000000Y-124492856D02*
X155071428Y-124349999D01*
X155214285Y-124278570D01*
X155428571Y-124278570D01*
X155571428Y-124349999D01*
X155642857Y-124492856D01*
X155642857Y-125278570D01*
X127000000Y-122499999D02*
X172000000Y-122499999D01*
X127000000Y-119000000D02*
X127000000Y-123086420D01*
X172000000Y-119000000D02*
X172000000Y-123086420D01*
X172000000Y-122499999D02*
X170873496Y-123086420D01*
X172000000Y-122499999D02*
X170873496Y-121913578D01*
X127000000Y-122499999D02*
X128126504Y-123086420D01*
X127000000Y-122499999D02*
X128126504Y-121913578D01*
D12*
X127000000Y-88000000D02*
X172000000Y-88000000D01*
D10*
X170150857Y-93134285D02*
X170150857Y-93634285D01*
X170936571Y-93634285D02*
X169436571Y-93634285D01*
X169436571Y-92920000D01*
X169436571Y-92562857D02*
X169436571Y-91705714D01*
X170936571Y-92134285D02*
X169436571Y-92134285D01*
X170936571Y-91205714D02*
X169436571Y-91205714D01*
X169436571Y-90848571D01*
X169508000Y-90634285D01*
X169650857Y-90491428D01*
X169793714Y-90420000D01*
X170079428Y-90348571D01*
X170293714Y-90348571D01*
X170579428Y-90420000D01*
X170722285Y-90491428D01*
X170865142Y-90634285D01*
X170936571Y-90848571D01*
X170936571Y-91205714D01*
X170936571Y-89705714D02*
X169436571Y-89705714D01*
D13*
G04 #@! TO.C,J6*
X161350000Y-115002000D02*
X161350000Y-116332000D01*
X160020000Y-115002000D02*
X161350000Y-115002000D01*
X158750000Y-115002000D02*
X158750000Y-117662000D01*
X158750000Y-117662000D02*
X151070000Y-117662000D01*
X158750000Y-115002000D02*
X151070000Y-115002000D01*
X151070000Y-115002000D02*
X151070000Y-117662000D01*
D14*
G04 #@! TO.C,U1*
X128500000Y-109350000D02*
G75*
G03X128500000Y-109350000I-500000J0D01*
G01*
X143000000Y-111850000D02*
X143000000Y-95850000D01*
X127000000Y-111850000D02*
X127000000Y-95850000D01*
D13*
G04 #@! TO.C,C15*
X165608777Y-100142249D02*
X166103751Y-100637223D01*
X165255223Y-101485751D02*
X164760249Y-100990777D01*
D14*
G04 #@! TO.C,C1*
X137650000Y-88225000D02*
X137150000Y-88225000D01*
X137150000Y-89175000D02*
X137650000Y-89175000D01*
G04 #@! TO.C,C2*
X134050000Y-88225000D02*
X133550000Y-88225000D01*
X133550000Y-89175000D02*
X134050000Y-89175000D01*
G04 #@! TO.C,L1*
X135950000Y-90341000D02*
X136450000Y-90341000D01*
X136450000Y-89391000D02*
X135950000Y-89391000D01*
D13*
G04 #@! TO.C,C11*
X163223223Y-99453751D02*
X162728249Y-98958777D01*
X163576777Y-98110249D02*
X164071751Y-98605223D01*
G04 #@! TO.C,C12*
X155181751Y-109372777D02*
X154686777Y-109867751D01*
X153838249Y-109019223D02*
X154333223Y-108524249D01*
G04 #@! TO.C,C13*
X132500000Y-90950000D02*
X131500000Y-90950000D01*
X131500000Y-92650000D02*
X132500000Y-92650000D01*
G04 #@! TO.C,C14*
X132650000Y-94100000D02*
X131950000Y-94100000D01*
X131950000Y-92900000D02*
X132650000Y-92900000D01*
G04 #@! TO.C,C16*
X152822249Y-108003223D02*
X153317223Y-107508249D01*
X154165751Y-108356777D02*
X153670777Y-108851751D01*
G04 #@! TO.C,C18*
X157654000Y-98112000D02*
X156954000Y-98112000D01*
X156954000Y-96912000D02*
X157654000Y-96912000D01*
G04 #@! TO.C,C19*
X163746000Y-94876000D02*
X163746000Y-95576000D01*
X162546000Y-95576000D02*
X162546000Y-94876000D01*
G04 #@! TO.C,C20*
X165813723Y-109016751D02*
X165318749Y-108521777D01*
X166167277Y-107673249D02*
X166662251Y-108168223D01*
G04 #@! TO.C,J4*
X149630000Y-112970000D02*
X148300000Y-112970000D01*
X149630000Y-111640000D02*
X149630000Y-112970000D01*
X147030000Y-112970000D02*
X144430000Y-112970000D01*
X147030000Y-110370000D02*
X147030000Y-112970000D01*
X149630000Y-110370000D02*
X147030000Y-110370000D01*
X144430000Y-112970000D02*
X144430000Y-105230000D01*
X149630000Y-110370000D02*
X149630000Y-105230000D01*
X149630000Y-105230000D02*
X144430000Y-105230000D01*
G04 #@! TO.C,J5*
X168674000Y-94404000D02*
X170004000Y-94404000D01*
X168674000Y-95734000D02*
X168674000Y-94404000D01*
X168674000Y-97004000D02*
X171334000Y-97004000D01*
X171334000Y-97004000D02*
X171334000Y-109764000D01*
X168674000Y-97004000D02*
X168674000Y-109764000D01*
X168674000Y-109764000D02*
X171334000Y-109764000D01*
G04 #@! TO.C,R13*
X164847221Y-110131886D02*
X164140114Y-109424779D01*
X165101779Y-108463114D02*
X165808886Y-109170221D01*
D14*
G04 #@! TO.C,U4*
X164557425Y-104464901D02*
X165565052Y-103457274D01*
X159590000Y-109750524D02*
X159819810Y-109520714D01*
X154463476Y-104624000D02*
X154693286Y-104394190D01*
X159590000Y-99497476D02*
X159360190Y-99727286D01*
X164716524Y-104624000D02*
X164486714Y-104853810D01*
X159590000Y-99497476D02*
X159819810Y-99727286D01*
X154463476Y-104624000D02*
X154693286Y-104853810D01*
X159590000Y-109750524D02*
X159360190Y-109520714D01*
X164716524Y-104624000D02*
X164557425Y-104464901D01*
D13*
G04 #@! TO.C,Y1*
X162140432Y-92950024D02*
X156840432Y-92950024D01*
X162140432Y-96650024D02*
X162140432Y-92950024D01*
G04 #@! TO.C,R14*
X165227279Y-110671614D02*
X165934386Y-111378721D01*
X164972721Y-112340386D02*
X164265614Y-111633279D01*
G04 #@! TO.C,R15*
X163956721Y-113356386D02*
X163249614Y-112649279D01*
X164211279Y-111687614D02*
X164918386Y-112394721D01*
G04 #@! TO.C,J9*
X168214500Y-103290500D02*
G75*
G03X168214500Y-103290500I-700000J0D01*
G01*
G04 #@! TO.C,J10*
X168227500Y-101195000D02*
G75*
G03X168227500Y-101195000I-700000J0D01*
G01*
G04 #@! TO.C,J11*
X158662600Y-111912400D02*
G75*
G03X158662600Y-111912400I-700000J0D01*
G01*
G04 #@! TO.C,J12*
X161482000Y-112268000D02*
G75*
G03X161482000Y-112268000I-700000J0D01*
G01*
G04 #@! TO.C,J13*
X163006000Y-110998000D02*
G75*
G03X163006000Y-110998000I-700000J0D01*
G01*
G04 #@! TO.C,J14*
X153100000Y-101360000D02*
G75*
G03X153100000Y-101360000I-700000J0D01*
G01*
G04 #@! TO.C,J2*
X142180000Y-115002000D02*
X142180000Y-117662000D01*
X147320000Y-115002000D02*
X142180000Y-115002000D01*
X147320000Y-117662000D02*
X142180000Y-117662000D01*
X147320000Y-115002000D02*
X147320000Y-117662000D01*
X148590000Y-115002000D02*
X149920000Y-115002000D01*
X149920000Y-115002000D02*
X149920000Y-116332000D01*
G04 #@! TO.C,J1*
X133800000Y-85800000D02*
X136200000Y-85800000D01*
X136200000Y-85800000D02*
X136200000Y-88200000D01*
X136200000Y-88200000D02*
X133800000Y-88200000D01*
X133800000Y-88200000D02*
X133800000Y-85800000D01*
G04 #@! TO.C,J3*
X127800000Y-86800000D02*
X129200000Y-86800000D01*
X129200000Y-86800000D02*
X129200000Y-88200000D01*
X129200000Y-88200000D02*
X127800000Y-88200000D01*
X127800000Y-88200000D02*
X127800000Y-86800000D01*
D15*
G04 #@! TO.C,G\002A\002A\002A*
G36*
X147174537Y-95351949D02*
X147201955Y-95382546D01*
X147265686Y-95435400D01*
X147293464Y-95435068D01*
X147349184Y-95433365D01*
X147409798Y-95497342D01*
X147450641Y-95595470D01*
X147456000Y-95642820D01*
X147471693Y-95735308D01*
X147499755Y-95763600D01*
X147505387Y-95754304D01*
X147588744Y-95754304D01*
X147603790Y-95792119D01*
X147636034Y-95797466D01*
X147702384Y-95789671D01*
X147710000Y-95783531D01*
X147672162Y-95743881D01*
X147607102Y-95740250D01*
X147588744Y-95754304D01*
X147505387Y-95754304D01*
X147525940Y-95720380D01*
X147526099Y-95623900D01*
X147515445Y-95528573D01*
X147524233Y-95530892D01*
X147553480Y-95611200D01*
X147586344Y-95691865D01*
X147601772Y-95680398D01*
X147606906Y-95636600D01*
X147615540Y-95535000D01*
X147659200Y-95636600D01*
X147693927Y-95691945D01*
X147706429Y-95664990D01*
X147724755Y-95630025D01*
X147779174Y-95681273D01*
X147786324Y-95690390D01*
X147841555Y-95758294D01*
X147848533Y-95744684D01*
X147832332Y-95687400D01*
X147823423Y-95627238D01*
X147844907Y-95640345D01*
X147922622Y-95677265D01*
X148034213Y-95685931D01*
X148151903Y-95700595D01*
X148205980Y-95774309D01*
X148207848Y-95781065D01*
X148231789Y-95854675D01*
X148255410Y-95831505D01*
X148273764Y-95786279D01*
X148304438Y-95716555D01*
X148315944Y-95742782D01*
X148319600Y-95789000D01*
X148326740Y-95890600D01*
X148370400Y-95789000D01*
X148414059Y-95687400D01*
X148421200Y-95789000D01*
X148428340Y-95890600D01*
X148472000Y-95789000D01*
X148515659Y-95687400D01*
X148522800Y-95789000D01*
X148529940Y-95890600D01*
X148577951Y-95789000D01*
X148608074Y-95735914D01*
X148611616Y-95770220D01*
X148601796Y-95839800D01*
X148592344Y-95927334D01*
X148601443Y-95938110D01*
X148603634Y-95933544D01*
X148668504Y-95897636D01*
X148779418Y-95898494D01*
X148885785Y-95900146D01*
X148929199Y-95869898D01*
X148929200Y-95869844D01*
X148891704Y-95840276D01*
X148847847Y-95848806D01*
X148787493Y-95849915D01*
X148786166Y-95814033D01*
X149034520Y-95814033D01*
X149065691Y-95779395D01*
X149076954Y-95763600D01*
X149120229Y-95713103D01*
X149131976Y-95749102D01*
X149132400Y-95763600D01*
X149140565Y-95814175D01*
X149174963Y-95776214D01*
X149183200Y-95763600D01*
X149223017Y-95713024D01*
X149233657Y-95750985D01*
X149234000Y-95763600D01*
X149242165Y-95814175D01*
X149276563Y-95776214D01*
X149284800Y-95763600D01*
X149324617Y-95713024D01*
X149335257Y-95750985D01*
X149335600Y-95763600D01*
X149353713Y-95805858D01*
X149374477Y-95789000D01*
X149454568Y-95732307D01*
X149488000Y-95721397D01*
X149580862Y-95664887D01*
X149603105Y-95635569D01*
X149679622Y-95584952D01*
X149731919Y-95583858D01*
X149807608Y-95564653D01*
X149821828Y-95510679D01*
X149790062Y-95441787D01*
X149718446Y-95440539D01*
X149642506Y-95506454D01*
X149638190Y-95513174D01*
X149553958Y-95576704D01*
X149489852Y-95592150D01*
X149393510Y-95602916D01*
X149361000Y-95611200D01*
X149293149Y-95634432D01*
X149284800Y-95636600D01*
X149213253Y-95659832D01*
X149208600Y-95662000D01*
X149140203Y-95678963D01*
X149123933Y-95681050D01*
X149059515Y-95728768D01*
X149043865Y-95763600D01*
X149034520Y-95814033D01*
X148786166Y-95814033D01*
X148785043Y-95783712D01*
X148800005Y-95763600D01*
X148827600Y-95763600D01*
X148846186Y-95805414D01*
X148861466Y-95797466D01*
X148864881Y-95763600D01*
X148929200Y-95763600D01*
X148947786Y-95805414D01*
X148963066Y-95797466D01*
X148969146Y-95737178D01*
X148963066Y-95729733D01*
X148932866Y-95736706D01*
X148929200Y-95763600D01*
X148864881Y-95763600D01*
X148867546Y-95737178D01*
X148861466Y-95729733D01*
X148831266Y-95736706D01*
X148827600Y-95763600D01*
X148800005Y-95763600D01*
X148846541Y-95701047D01*
X148917195Y-95681050D01*
X149017901Y-95670927D01*
X149056200Y-95662000D01*
X149119700Y-95642172D01*
X149193381Y-95611081D01*
X149221300Y-95594724D01*
X149277107Y-95577441D01*
X149284800Y-95589022D01*
X149316187Y-95590927D01*
X149361000Y-95560400D01*
X149422578Y-95527599D01*
X149437977Y-95541479D01*
X149459835Y-95545035D01*
X149488000Y-95509600D01*
X149527662Y-95459903D01*
X149537868Y-95498764D01*
X149538022Y-95508203D01*
X149556588Y-95538666D01*
X149612745Y-95477422D01*
X149614757Y-95474562D01*
X149699977Y-95399912D01*
X149788410Y-95382667D01*
X149847143Y-95421750D01*
X149852902Y-95482368D01*
X149859930Y-95542262D01*
X149903702Y-95530346D01*
X149942395Y-95514738D01*
X149912036Y-95562163D01*
X149901344Y-95575489D01*
X149828519Y-95632361D01*
X149787044Y-95633042D01*
X149746084Y-95645539D01*
X149741222Y-95671701D01*
X149727199Y-95705020D01*
X149691200Y-95662000D01*
X149651679Y-95613632D01*
X149641358Y-95657437D01*
X149641177Y-95669192D01*
X149597378Y-95734922D01*
X149495628Y-95793691D01*
X149378654Y-95824886D01*
X149322900Y-95822733D01*
X149287180Y-95854437D01*
X149284022Y-95877900D01*
X149266459Y-95904344D01*
X149234000Y-95865200D01*
X149194182Y-95814624D01*
X149183542Y-95852585D01*
X149183200Y-95865200D01*
X149175034Y-95915775D01*
X149140636Y-95877814D01*
X149132400Y-95865200D01*
X149093627Y-95821895D01*
X149079824Y-95871358D01*
X149078807Y-95890600D01*
X149074459Y-95992200D01*
X149030800Y-95890600D01*
X148997288Y-95824995D01*
X148985067Y-95851533D01*
X148983570Y-95877900D01*
X148947793Y-95945049D01*
X148835456Y-95971487D01*
X148814900Y-95972452D01*
X148658915Y-95978116D01*
X148468157Y-95985458D01*
X148407010Y-95987896D01*
X148262356Y-95990905D01*
X148168018Y-95987527D01*
X148149926Y-95983392D01*
X148093173Y-95964218D01*
X147982572Y-95941187D01*
X147865040Y-95923465D01*
X147824300Y-95919774D01*
X147767732Y-95890600D01*
X147913200Y-95890600D01*
X147938600Y-95916000D01*
X147964000Y-95890600D01*
X147938600Y-95865200D01*
X147913200Y-95890600D01*
X147767732Y-95890600D01*
X147765125Y-95889256D01*
X147760800Y-95873689D01*
X147801172Y-95842122D01*
X147893097Y-95843928D01*
X147992787Y-95877369D01*
X148002993Y-95883302D01*
X148090633Y-95899943D01*
X148116400Y-95890600D01*
X148162628Y-95898554D01*
X148167200Y-95921468D01*
X148183090Y-95962609D01*
X148193691Y-95957242D01*
X148195897Y-95916000D01*
X148268800Y-95916000D01*
X148287386Y-95957814D01*
X148302666Y-95949866D01*
X148306081Y-95916000D01*
X148370400Y-95916000D01*
X148388986Y-95957814D01*
X148404266Y-95949866D01*
X148407681Y-95916000D01*
X148472000Y-95916000D01*
X148490586Y-95957814D01*
X148505866Y-95949866D01*
X148511946Y-95889578D01*
X148505866Y-95882133D01*
X148475666Y-95889106D01*
X148472000Y-95916000D01*
X148407681Y-95916000D01*
X148410346Y-95889578D01*
X148404266Y-95882133D01*
X148374066Y-95889106D01*
X148370400Y-95916000D01*
X148306081Y-95916000D01*
X148308746Y-95889578D01*
X148302666Y-95882133D01*
X148272466Y-95889106D01*
X148268800Y-95916000D01*
X148195897Y-95916000D01*
X148196975Y-95895853D01*
X148171511Y-95809075D01*
X148135569Y-95737297D01*
X148120566Y-95760446D01*
X148119620Y-95776300D01*
X148093589Y-95851787D01*
X148067194Y-95865200D01*
X148039078Y-95826266D01*
X148046586Y-95776300D01*
X148060559Y-95718353D01*
X148029661Y-95750810D01*
X148020369Y-95763600D01*
X147976414Y-95814078D01*
X147964441Y-95778473D01*
X147964000Y-95763600D01*
X147954966Y-95714054D01*
X147919045Y-95756003D01*
X147916293Y-95760333D01*
X147869264Y-95807183D01*
X147805934Y-95780392D01*
X147780320Y-95760333D01*
X147723825Y-95723760D01*
X147722296Y-95740625D01*
X147726168Y-95824672D01*
X147707425Y-95867625D01*
X147668468Y-95907999D01*
X147659977Y-95877900D01*
X147635447Y-95822820D01*
X147621100Y-95820415D01*
X147483893Y-95819287D01*
X147415568Y-95750993D01*
X147399189Y-95649300D01*
X147393179Y-95484200D01*
X147354400Y-95636600D01*
X147315620Y-95789000D01*
X147304546Y-95636600D01*
X147295159Y-95534785D01*
X147281485Y-95528776D01*
X147252800Y-95611200D01*
X147212127Y-95738200D01*
X147203493Y-95611200D01*
X147193816Y-95526087D01*
X147174053Y-95535914D01*
X147151200Y-95585800D01*
X147107540Y-95687400D01*
X147103192Y-95585800D01*
X147090257Y-95521628D01*
X147055891Y-95551959D01*
X147013955Y-95591508D01*
X146983895Y-95544032D01*
X146993427Y-95467456D01*
X147009374Y-95467456D01*
X147027052Y-95486770D01*
X147123588Y-95489280D01*
X147162073Y-95484200D01*
X147303600Y-95484200D01*
X147329000Y-95509600D01*
X147354400Y-95484200D01*
X147329000Y-95458800D01*
X147303600Y-95484200D01*
X147162073Y-95484200D01*
X147207332Y-95478226D01*
X147203993Y-95436801D01*
X147193048Y-95422613D01*
X147125343Y-95383168D01*
X147068259Y-95413593D01*
X147009374Y-95467456D01*
X146993427Y-95467456D01*
X146994978Y-95455002D01*
X147045742Y-95386091D01*
X147120935Y-95331817D01*
X147174537Y-95351949D01*
X147174537Y-95351949D01*
G37*
X147174537Y-95351949D02*
X147201955Y-95382546D01*
X147265686Y-95435400D01*
X147293464Y-95435068D01*
X147349184Y-95433365D01*
X147409798Y-95497342D01*
X147450641Y-95595470D01*
X147456000Y-95642820D01*
X147471693Y-95735308D01*
X147499755Y-95763600D01*
X147505387Y-95754304D01*
X147588744Y-95754304D01*
X147603790Y-95792119D01*
X147636034Y-95797466D01*
X147702384Y-95789671D01*
X147710000Y-95783531D01*
X147672162Y-95743881D01*
X147607102Y-95740250D01*
X147588744Y-95754304D01*
X147505387Y-95754304D01*
X147525940Y-95720380D01*
X147526099Y-95623900D01*
X147515445Y-95528573D01*
X147524233Y-95530892D01*
X147553480Y-95611200D01*
X147586344Y-95691865D01*
X147601772Y-95680398D01*
X147606906Y-95636600D01*
X147615540Y-95535000D01*
X147659200Y-95636600D01*
X147693927Y-95691945D01*
X147706429Y-95664990D01*
X147724755Y-95630025D01*
X147779174Y-95681273D01*
X147786324Y-95690390D01*
X147841555Y-95758294D01*
X147848533Y-95744684D01*
X147832332Y-95687400D01*
X147823423Y-95627238D01*
X147844907Y-95640345D01*
X147922622Y-95677265D01*
X148034213Y-95685931D01*
X148151903Y-95700595D01*
X148205980Y-95774309D01*
X148207848Y-95781065D01*
X148231789Y-95854675D01*
X148255410Y-95831505D01*
X148273764Y-95786279D01*
X148304438Y-95716555D01*
X148315944Y-95742782D01*
X148319600Y-95789000D01*
X148326740Y-95890600D01*
X148370400Y-95789000D01*
X148414059Y-95687400D01*
X148421200Y-95789000D01*
X148428340Y-95890600D01*
X148472000Y-95789000D01*
X148515659Y-95687400D01*
X148522800Y-95789000D01*
X148529940Y-95890600D01*
X148577951Y-95789000D01*
X148608074Y-95735914D01*
X148611616Y-95770220D01*
X148601796Y-95839800D01*
X148592344Y-95927334D01*
X148601443Y-95938110D01*
X148603634Y-95933544D01*
X148668504Y-95897636D01*
X148779418Y-95898494D01*
X148885785Y-95900146D01*
X148929199Y-95869898D01*
X148929200Y-95869844D01*
X148891704Y-95840276D01*
X148847847Y-95848806D01*
X148787493Y-95849915D01*
X148786166Y-95814033D01*
X149034520Y-95814033D01*
X149065691Y-95779395D01*
X149076954Y-95763600D01*
X149120229Y-95713103D01*
X149131976Y-95749102D01*
X149132400Y-95763600D01*
X149140565Y-95814175D01*
X149174963Y-95776214D01*
X149183200Y-95763600D01*
X149223017Y-95713024D01*
X149233657Y-95750985D01*
X149234000Y-95763600D01*
X149242165Y-95814175D01*
X149276563Y-95776214D01*
X149284800Y-95763600D01*
X149324617Y-95713024D01*
X149335257Y-95750985D01*
X149335600Y-95763600D01*
X149353713Y-95805858D01*
X149374477Y-95789000D01*
X149454568Y-95732307D01*
X149488000Y-95721397D01*
X149580862Y-95664887D01*
X149603105Y-95635569D01*
X149679622Y-95584952D01*
X149731919Y-95583858D01*
X149807608Y-95564653D01*
X149821828Y-95510679D01*
X149790062Y-95441787D01*
X149718446Y-95440539D01*
X149642506Y-95506454D01*
X149638190Y-95513174D01*
X149553958Y-95576704D01*
X149489852Y-95592150D01*
X149393510Y-95602916D01*
X149361000Y-95611200D01*
X149293149Y-95634432D01*
X149284800Y-95636600D01*
X149213253Y-95659832D01*
X149208600Y-95662000D01*
X149140203Y-95678963D01*
X149123933Y-95681050D01*
X149059515Y-95728768D01*
X149043865Y-95763600D01*
X149034520Y-95814033D01*
X148786166Y-95814033D01*
X148785043Y-95783712D01*
X148800005Y-95763600D01*
X148827600Y-95763600D01*
X148846186Y-95805414D01*
X148861466Y-95797466D01*
X148864881Y-95763600D01*
X148929200Y-95763600D01*
X148947786Y-95805414D01*
X148963066Y-95797466D01*
X148969146Y-95737178D01*
X148963066Y-95729733D01*
X148932866Y-95736706D01*
X148929200Y-95763600D01*
X148864881Y-95763600D01*
X148867546Y-95737178D01*
X148861466Y-95729733D01*
X148831266Y-95736706D01*
X148827600Y-95763600D01*
X148800005Y-95763600D01*
X148846541Y-95701047D01*
X148917195Y-95681050D01*
X149017901Y-95670927D01*
X149056200Y-95662000D01*
X149119700Y-95642172D01*
X149193381Y-95611081D01*
X149221300Y-95594724D01*
X149277107Y-95577441D01*
X149284800Y-95589022D01*
X149316187Y-95590927D01*
X149361000Y-95560400D01*
X149422578Y-95527599D01*
X149437977Y-95541479D01*
X149459835Y-95545035D01*
X149488000Y-95509600D01*
X149527662Y-95459903D01*
X149537868Y-95498764D01*
X149538022Y-95508203D01*
X149556588Y-95538666D01*
X149612745Y-95477422D01*
X149614757Y-95474562D01*
X149699977Y-95399912D01*
X149788410Y-95382667D01*
X149847143Y-95421750D01*
X149852902Y-95482368D01*
X149859930Y-95542262D01*
X149903702Y-95530346D01*
X149942395Y-95514738D01*
X149912036Y-95562163D01*
X149901344Y-95575489D01*
X149828519Y-95632361D01*
X149787044Y-95633042D01*
X149746084Y-95645539D01*
X149741222Y-95671701D01*
X149727199Y-95705020D01*
X149691200Y-95662000D01*
X149651679Y-95613632D01*
X149641358Y-95657437D01*
X149641177Y-95669192D01*
X149597378Y-95734922D01*
X149495628Y-95793691D01*
X149378654Y-95824886D01*
X149322900Y-95822733D01*
X149287180Y-95854437D01*
X149284022Y-95877900D01*
X149266459Y-95904344D01*
X149234000Y-95865200D01*
X149194182Y-95814624D01*
X149183542Y-95852585D01*
X149183200Y-95865200D01*
X149175034Y-95915775D01*
X149140636Y-95877814D01*
X149132400Y-95865200D01*
X149093627Y-95821895D01*
X149079824Y-95871358D01*
X149078807Y-95890600D01*
X149074459Y-95992200D01*
X149030800Y-95890600D01*
X148997288Y-95824995D01*
X148985067Y-95851533D01*
X148983570Y-95877900D01*
X148947793Y-95945049D01*
X148835456Y-95971487D01*
X148814900Y-95972452D01*
X148658915Y-95978116D01*
X148468157Y-95985458D01*
X148407010Y-95987896D01*
X148262356Y-95990905D01*
X148168018Y-95987527D01*
X148149926Y-95983392D01*
X148093173Y-95964218D01*
X147982572Y-95941187D01*
X147865040Y-95923465D01*
X147824300Y-95919774D01*
X147767732Y-95890600D01*
X147913200Y-95890600D01*
X147938600Y-95916000D01*
X147964000Y-95890600D01*
X147938600Y-95865200D01*
X147913200Y-95890600D01*
X147767732Y-95890600D01*
X147765125Y-95889256D01*
X147760800Y-95873689D01*
X147801172Y-95842122D01*
X147893097Y-95843928D01*
X147992787Y-95877369D01*
X148002993Y-95883302D01*
X148090633Y-95899943D01*
X148116400Y-95890600D01*
X148162628Y-95898554D01*
X148167200Y-95921468D01*
X148183090Y-95962609D01*
X148193691Y-95957242D01*
X148195897Y-95916000D01*
X148268800Y-95916000D01*
X148287386Y-95957814D01*
X148302666Y-95949866D01*
X148306081Y-95916000D01*
X148370400Y-95916000D01*
X148388986Y-95957814D01*
X148404266Y-95949866D01*
X148407681Y-95916000D01*
X148472000Y-95916000D01*
X148490586Y-95957814D01*
X148505866Y-95949866D01*
X148511946Y-95889578D01*
X148505866Y-95882133D01*
X148475666Y-95889106D01*
X148472000Y-95916000D01*
X148407681Y-95916000D01*
X148410346Y-95889578D01*
X148404266Y-95882133D01*
X148374066Y-95889106D01*
X148370400Y-95916000D01*
X148306081Y-95916000D01*
X148308746Y-95889578D01*
X148302666Y-95882133D01*
X148272466Y-95889106D01*
X148268800Y-95916000D01*
X148195897Y-95916000D01*
X148196975Y-95895853D01*
X148171511Y-95809075D01*
X148135569Y-95737297D01*
X148120566Y-95760446D01*
X148119620Y-95776300D01*
X148093589Y-95851787D01*
X148067194Y-95865200D01*
X148039078Y-95826266D01*
X148046586Y-95776300D01*
X148060559Y-95718353D01*
X148029661Y-95750810D01*
X148020369Y-95763600D01*
X147976414Y-95814078D01*
X147964441Y-95778473D01*
X147964000Y-95763600D01*
X147954966Y-95714054D01*
X147919045Y-95756003D01*
X147916293Y-95760333D01*
X147869264Y-95807183D01*
X147805934Y-95780392D01*
X147780320Y-95760333D01*
X147723825Y-95723760D01*
X147722296Y-95740625D01*
X147726168Y-95824672D01*
X147707425Y-95867625D01*
X147668468Y-95907999D01*
X147659977Y-95877900D01*
X147635447Y-95822820D01*
X147621100Y-95820415D01*
X147483893Y-95819287D01*
X147415568Y-95750993D01*
X147399189Y-95649300D01*
X147393179Y-95484200D01*
X147354400Y-95636600D01*
X147315620Y-95789000D01*
X147304546Y-95636600D01*
X147295159Y-95534785D01*
X147281485Y-95528776D01*
X147252800Y-95611200D01*
X147212127Y-95738200D01*
X147203493Y-95611200D01*
X147193816Y-95526087D01*
X147174053Y-95535914D01*
X147151200Y-95585800D01*
X147107540Y-95687400D01*
X147103192Y-95585800D01*
X147090257Y-95521628D01*
X147055891Y-95551959D01*
X147013955Y-95591508D01*
X146983895Y-95544032D01*
X146993427Y-95467456D01*
X147009374Y-95467456D01*
X147027052Y-95486770D01*
X147123588Y-95489280D01*
X147162073Y-95484200D01*
X147303600Y-95484200D01*
X147329000Y-95509600D01*
X147354400Y-95484200D01*
X147329000Y-95458800D01*
X147303600Y-95484200D01*
X147162073Y-95484200D01*
X147207332Y-95478226D01*
X147203993Y-95436801D01*
X147193048Y-95422613D01*
X147125343Y-95383168D01*
X147068259Y-95413593D01*
X147009374Y-95467456D01*
X146993427Y-95467456D01*
X146994978Y-95455002D01*
X147045742Y-95386091D01*
X147120935Y-95331817D01*
X147174537Y-95351949D01*
G36*
X148709902Y-95754075D02*
X148715958Y-95833469D01*
X148705891Y-95851441D01*
X148682802Y-95836291D01*
X148679210Y-95784766D01*
X148691616Y-95730561D01*
X148709902Y-95754075D01*
X148709902Y-95754075D01*
G37*
X148709902Y-95754075D02*
X148715958Y-95833469D01*
X148705891Y-95851441D01*
X148682802Y-95836291D01*
X148679210Y-95784766D01*
X148691616Y-95730561D01*
X148709902Y-95754075D01*
G36*
X147456000Y-94898757D02*
X147474104Y-94941906D01*
X147489425Y-94934307D01*
X147548227Y-94933058D01*
X147618957Y-94984365D01*
X147658578Y-95055339D01*
X147659200Y-95064055D01*
X147621090Y-95090534D01*
X147570300Y-95080225D01*
X147511861Y-95064679D01*
X147538438Y-95102946D01*
X147548319Y-95112890D01*
X147610209Y-95148812D01*
X147671009Y-95102936D01*
X147688019Y-95080790D01*
X147741708Y-95028791D01*
X147760800Y-95045688D01*
X147788322Y-95086336D01*
X147808089Y-95079969D01*
X147872900Y-95087086D01*
X147889428Y-95105834D01*
X147959368Y-95140352D01*
X147992911Y-95134281D01*
X148073590Y-95139698D01*
X148094460Y-95159598D01*
X148110563Y-95221312D01*
X148047850Y-95234588D01*
X147913261Y-95204817D01*
X147807808Y-95182195D01*
X147783900Y-95196183D01*
X147790176Y-95203696D01*
X147868849Y-95240921D01*
X148001591Y-95271425D01*
X148030974Y-95275541D01*
X148173395Y-95279457D01*
X148243576Y-95241458D01*
X148253394Y-95222472D01*
X148287125Y-95173686D01*
X148325891Y-95213240D01*
X148361538Y-95252062D01*
X148370400Y-95204800D01*
X148378565Y-95154224D01*
X148412963Y-95192185D01*
X148421200Y-95204800D01*
X148461017Y-95255375D01*
X148471657Y-95217414D01*
X148472000Y-95204800D01*
X148480165Y-95154224D01*
X148514563Y-95192185D01*
X148522800Y-95204800D01*
X148562617Y-95255375D01*
X148573257Y-95217414D01*
X148573600Y-95204800D01*
X148581765Y-95154224D01*
X148616163Y-95192185D01*
X148624400Y-95204800D01*
X148664049Y-95253463D01*
X148674339Y-95213369D01*
X148674422Y-95207790D01*
X148689572Y-95171753D01*
X148740031Y-95223278D01*
X148743693Y-95228251D01*
X148818851Y-95287626D01*
X148870693Y-95285762D01*
X148922683Y-95286044D01*
X148929200Y-95309326D01*
X148889139Y-95347436D01*
X148827600Y-95342480D01*
X148745064Y-95344229D01*
X148725222Y-95374655D01*
X148704140Y-95390915D01*
X148675200Y-95357200D01*
X148635382Y-95306624D01*
X148624742Y-95344585D01*
X148624400Y-95357200D01*
X148616234Y-95407775D01*
X148581836Y-95369814D01*
X148573600Y-95357200D01*
X148533950Y-95308536D01*
X148523660Y-95348630D01*
X148523577Y-95354209D01*
X148506571Y-95388266D01*
X148451520Y-95335267D01*
X148446475Y-95328809D01*
X148404914Y-95281000D01*
X148472000Y-95281000D01*
X148497400Y-95306400D01*
X148522800Y-95281000D01*
X148573600Y-95281000D01*
X148599000Y-95306400D01*
X148624400Y-95281000D01*
X148675200Y-95281000D01*
X148700600Y-95306400D01*
X148726000Y-95281000D01*
X148700600Y-95255600D01*
X148675200Y-95281000D01*
X148624400Y-95281000D01*
X148599000Y-95255600D01*
X148573600Y-95281000D01*
X148522800Y-95281000D01*
X148497400Y-95255600D01*
X148472000Y-95281000D01*
X148404914Y-95281000D01*
X148395380Y-95270033D01*
X148392670Y-95293662D01*
X148400024Y-95316270D01*
X148407395Y-95367611D01*
X148372917Y-95390996D01*
X148280034Y-95387329D01*
X148112188Y-95357515D01*
X148014800Y-95337295D01*
X147872874Y-95302431D01*
X147857214Y-95297104D01*
X148249144Y-95297104D01*
X148264190Y-95334919D01*
X148296434Y-95340266D01*
X148362784Y-95332471D01*
X148370400Y-95326331D01*
X148332562Y-95286681D01*
X148267502Y-95283050D01*
X148249144Y-95297104D01*
X147857214Y-95297104D01*
X147778357Y-95270281D01*
X147760800Y-95259533D01*
X147694971Y-95227594D01*
X147633800Y-95212846D01*
X147603817Y-95201492D01*
X147671655Y-95201492D01*
X147678603Y-95204800D01*
X147711529Y-95179400D01*
X148014800Y-95179400D01*
X148040200Y-95204800D01*
X148065600Y-95179400D01*
X148040200Y-95154000D01*
X148014800Y-95179400D01*
X147711529Y-95179400D01*
X147724963Y-95169037D01*
X147735400Y-95154000D01*
X147742322Y-95128600D01*
X147811600Y-95128600D01*
X147837000Y-95154000D01*
X147862400Y-95128600D01*
X147837000Y-95103200D01*
X147811600Y-95128600D01*
X147742322Y-95128600D01*
X147748344Y-95106507D01*
X147741396Y-95103200D01*
X147695036Y-95138962D01*
X147684600Y-95154000D01*
X147671655Y-95201492D01*
X147603817Y-95201492D01*
X147542694Y-95178347D01*
X147515161Y-95149030D01*
X147467990Y-95122956D01*
X147457417Y-95127724D01*
X147391839Y-95130094D01*
X147354755Y-95067876D01*
X147358307Y-94997713D01*
X147364101Y-94997713D01*
X147370467Y-95035298D01*
X147381324Y-95054866D01*
X147437096Y-95080069D01*
X147477896Y-95055307D01*
X147554633Y-95028519D01*
X147583118Y-95040140D01*
X147601975Y-95042376D01*
X147590942Y-95018824D01*
X147527210Y-94978611D01*
X147398643Y-94989688D01*
X147364101Y-94997713D01*
X147358307Y-94997713D01*
X147359360Y-94976923D01*
X147384000Y-94928246D01*
X147439358Y-94872509D01*
X147456000Y-94898757D01*
X147456000Y-94898757D01*
G37*
X147456000Y-94898757D02*
X147474104Y-94941906D01*
X147489425Y-94934307D01*
X147548227Y-94933058D01*
X147618957Y-94984365D01*
X147658578Y-95055339D01*
X147659200Y-95064055D01*
X147621090Y-95090534D01*
X147570300Y-95080225D01*
X147511861Y-95064679D01*
X147538438Y-95102946D01*
X147548319Y-95112890D01*
X147610209Y-95148812D01*
X147671009Y-95102936D01*
X147688019Y-95080790D01*
X147741708Y-95028791D01*
X147760800Y-95045688D01*
X147788322Y-95086336D01*
X147808089Y-95079969D01*
X147872900Y-95087086D01*
X147889428Y-95105834D01*
X147959368Y-95140352D01*
X147992911Y-95134281D01*
X148073590Y-95139698D01*
X148094460Y-95159598D01*
X148110563Y-95221312D01*
X148047850Y-95234588D01*
X147913261Y-95204817D01*
X147807808Y-95182195D01*
X147783900Y-95196183D01*
X147790176Y-95203696D01*
X147868849Y-95240921D01*
X148001591Y-95271425D01*
X148030974Y-95275541D01*
X148173395Y-95279457D01*
X148243576Y-95241458D01*
X148253394Y-95222472D01*
X148287125Y-95173686D01*
X148325891Y-95213240D01*
X148361538Y-95252062D01*
X148370400Y-95204800D01*
X148378565Y-95154224D01*
X148412963Y-95192185D01*
X148421200Y-95204800D01*
X148461017Y-95255375D01*
X148471657Y-95217414D01*
X148472000Y-95204800D01*
X148480165Y-95154224D01*
X148514563Y-95192185D01*
X148522800Y-95204800D01*
X148562617Y-95255375D01*
X148573257Y-95217414D01*
X148573600Y-95204800D01*
X148581765Y-95154224D01*
X148616163Y-95192185D01*
X148624400Y-95204800D01*
X148664049Y-95253463D01*
X148674339Y-95213369D01*
X148674422Y-95207790D01*
X148689572Y-95171753D01*
X148740031Y-95223278D01*
X148743693Y-95228251D01*
X148818851Y-95287626D01*
X148870693Y-95285762D01*
X148922683Y-95286044D01*
X148929200Y-95309326D01*
X148889139Y-95347436D01*
X148827600Y-95342480D01*
X148745064Y-95344229D01*
X148725222Y-95374655D01*
X148704140Y-95390915D01*
X148675200Y-95357200D01*
X148635382Y-95306624D01*
X148624742Y-95344585D01*
X148624400Y-95357200D01*
X148616234Y-95407775D01*
X148581836Y-95369814D01*
X148573600Y-95357200D01*
X148533950Y-95308536D01*
X148523660Y-95348630D01*
X148523577Y-95354209D01*
X148506571Y-95388266D01*
X148451520Y-95335267D01*
X148446475Y-95328809D01*
X148404914Y-95281000D01*
X148472000Y-95281000D01*
X148497400Y-95306400D01*
X148522800Y-95281000D01*
X148573600Y-95281000D01*
X148599000Y-95306400D01*
X148624400Y-95281000D01*
X148675200Y-95281000D01*
X148700600Y-95306400D01*
X148726000Y-95281000D01*
X148700600Y-95255600D01*
X148675200Y-95281000D01*
X148624400Y-95281000D01*
X148599000Y-95255600D01*
X148573600Y-95281000D01*
X148522800Y-95281000D01*
X148497400Y-95255600D01*
X148472000Y-95281000D01*
X148404914Y-95281000D01*
X148395380Y-95270033D01*
X148392670Y-95293662D01*
X148400024Y-95316270D01*
X148407395Y-95367611D01*
X148372917Y-95390996D01*
X148280034Y-95387329D01*
X148112188Y-95357515D01*
X148014800Y-95337295D01*
X147872874Y-95302431D01*
X147857214Y-95297104D01*
X148249144Y-95297104D01*
X148264190Y-95334919D01*
X148296434Y-95340266D01*
X148362784Y-95332471D01*
X148370400Y-95326331D01*
X148332562Y-95286681D01*
X148267502Y-95283050D01*
X148249144Y-95297104D01*
X147857214Y-95297104D01*
X147778357Y-95270281D01*
X147760800Y-95259533D01*
X147694971Y-95227594D01*
X147633800Y-95212846D01*
X147603817Y-95201492D01*
X147671655Y-95201492D01*
X147678603Y-95204800D01*
X147711529Y-95179400D01*
X148014800Y-95179400D01*
X148040200Y-95204800D01*
X148065600Y-95179400D01*
X148040200Y-95154000D01*
X148014800Y-95179400D01*
X147711529Y-95179400D01*
X147724963Y-95169037D01*
X147735400Y-95154000D01*
X147742322Y-95128600D01*
X147811600Y-95128600D01*
X147837000Y-95154000D01*
X147862400Y-95128600D01*
X147837000Y-95103200D01*
X147811600Y-95128600D01*
X147742322Y-95128600D01*
X147748344Y-95106507D01*
X147741396Y-95103200D01*
X147695036Y-95138962D01*
X147684600Y-95154000D01*
X147671655Y-95201492D01*
X147603817Y-95201492D01*
X147542694Y-95178347D01*
X147515161Y-95149030D01*
X147467990Y-95122956D01*
X147457417Y-95127724D01*
X147391839Y-95130094D01*
X147354755Y-95067876D01*
X147358307Y-94997713D01*
X147364101Y-94997713D01*
X147370467Y-95035298D01*
X147381324Y-95054866D01*
X147437096Y-95080069D01*
X147477896Y-95055307D01*
X147554633Y-95028519D01*
X147583118Y-95040140D01*
X147601975Y-95042376D01*
X147590942Y-95018824D01*
X147527210Y-94978611D01*
X147398643Y-94989688D01*
X147364101Y-94997713D01*
X147358307Y-94997713D01*
X147359360Y-94976923D01*
X147384000Y-94928246D01*
X147439358Y-94872509D01*
X147456000Y-94898757D01*
G36*
X149437200Y-94950800D02*
X149477130Y-95001377D01*
X149488298Y-94963370D01*
X149488766Y-94950800D01*
X149500336Y-94908426D01*
X149538383Y-94955895D01*
X149543094Y-94963902D01*
X149569988Y-95057268D01*
X149548470Y-95124292D01*
X149491092Y-95130159D01*
X149484489Y-95126430D01*
X149441570Y-95137547D01*
X149436422Y-95163701D01*
X149422399Y-95197020D01*
X149386400Y-95154000D01*
X149347627Y-95110695D01*
X149333824Y-95160158D01*
X149332807Y-95179400D01*
X149328459Y-95281000D01*
X149284800Y-95179400D01*
X149251288Y-95113795D01*
X149239067Y-95140333D01*
X149237570Y-95166700D01*
X149211329Y-95240695D01*
X149123659Y-95253966D01*
X149099979Y-95251261D01*
X149047778Y-95283465D01*
X149030849Y-95306320D01*
X148990467Y-95330649D01*
X148963592Y-95286115D01*
X148899453Y-95231325D01*
X148854922Y-95236491D01*
X148788588Y-95233905D01*
X148776800Y-95207236D01*
X148807601Y-95171850D01*
X148827600Y-95179400D01*
X148873571Y-95170432D01*
X148879177Y-95144298D01*
X148889385Y-95104333D01*
X148922908Y-95145559D01*
X148964739Y-95184410D01*
X148973770Y-95170129D01*
X149015986Y-95170129D01*
X149021812Y-95229014D01*
X149069663Y-95233450D01*
X149148241Y-95191328D01*
X149163936Y-95160991D01*
X149163778Y-95130093D01*
X149147840Y-95158478D01*
X149110697Y-95187630D01*
X149082520Y-95155488D01*
X149042362Y-95127031D01*
X149015986Y-95170129D01*
X148973770Y-95170129D01*
X148995803Y-95135289D01*
X149064193Y-95078511D01*
X149125854Y-95076539D01*
X149221149Y-95059900D01*
X149227530Y-95052400D01*
X149284800Y-95052400D01*
X149303386Y-95094214D01*
X149318666Y-95086266D01*
X149322081Y-95052400D01*
X149386400Y-95052400D01*
X149404986Y-95094214D01*
X149420266Y-95086266D01*
X149423681Y-95052400D01*
X149488000Y-95052400D01*
X149506586Y-95094214D01*
X149521866Y-95086266D01*
X149527946Y-95025978D01*
X149521866Y-95018533D01*
X149491666Y-95025506D01*
X149488000Y-95052400D01*
X149423681Y-95052400D01*
X149426346Y-95025978D01*
X149420266Y-95018533D01*
X149390066Y-95025506D01*
X149386400Y-95052400D01*
X149322081Y-95052400D01*
X149324746Y-95025978D01*
X149318666Y-95018533D01*
X149288466Y-95025506D01*
X149284800Y-95052400D01*
X149227530Y-95052400D01*
X149255022Y-95020089D01*
X149305504Y-94970427D01*
X149335241Y-94975978D01*
X149381523Y-94967229D01*
X149387177Y-94941098D01*
X149401200Y-94907779D01*
X149437200Y-94950800D01*
X149437200Y-94950800D01*
G37*
X149437200Y-94950800D02*
X149477130Y-95001377D01*
X149488298Y-94963370D01*
X149488766Y-94950800D01*
X149500336Y-94908426D01*
X149538383Y-94955895D01*
X149543094Y-94963902D01*
X149569988Y-95057268D01*
X149548470Y-95124292D01*
X149491092Y-95130159D01*
X149484489Y-95126430D01*
X149441570Y-95137547D01*
X149436422Y-95163701D01*
X149422399Y-95197020D01*
X149386400Y-95154000D01*
X149347627Y-95110695D01*
X149333824Y-95160158D01*
X149332807Y-95179400D01*
X149328459Y-95281000D01*
X149284800Y-95179400D01*
X149251288Y-95113795D01*
X149239067Y-95140333D01*
X149237570Y-95166700D01*
X149211329Y-95240695D01*
X149123659Y-95253966D01*
X149099979Y-95251261D01*
X149047778Y-95283465D01*
X149030849Y-95306320D01*
X148990467Y-95330649D01*
X148963592Y-95286115D01*
X148899453Y-95231325D01*
X148854922Y-95236491D01*
X148788588Y-95233905D01*
X148776800Y-95207236D01*
X148807601Y-95171850D01*
X148827600Y-95179400D01*
X148873571Y-95170432D01*
X148879177Y-95144298D01*
X148889385Y-95104333D01*
X148922908Y-95145559D01*
X148964739Y-95184410D01*
X148973770Y-95170129D01*
X149015986Y-95170129D01*
X149021812Y-95229014D01*
X149069663Y-95233450D01*
X149148241Y-95191328D01*
X149163936Y-95160991D01*
X149163778Y-95130093D01*
X149147840Y-95158478D01*
X149110697Y-95187630D01*
X149082520Y-95155488D01*
X149042362Y-95127031D01*
X149015986Y-95170129D01*
X148973770Y-95170129D01*
X148995803Y-95135289D01*
X149064193Y-95078511D01*
X149125854Y-95076539D01*
X149221149Y-95059900D01*
X149227530Y-95052400D01*
X149284800Y-95052400D01*
X149303386Y-95094214D01*
X149318666Y-95086266D01*
X149322081Y-95052400D01*
X149386400Y-95052400D01*
X149404986Y-95094214D01*
X149420266Y-95086266D01*
X149423681Y-95052400D01*
X149488000Y-95052400D01*
X149506586Y-95094214D01*
X149521866Y-95086266D01*
X149527946Y-95025978D01*
X149521866Y-95018533D01*
X149491666Y-95025506D01*
X149488000Y-95052400D01*
X149423681Y-95052400D01*
X149426346Y-95025978D01*
X149420266Y-95018533D01*
X149390066Y-95025506D01*
X149386400Y-95052400D01*
X149322081Y-95052400D01*
X149324746Y-95025978D01*
X149318666Y-95018533D01*
X149288466Y-95025506D01*
X149284800Y-95052400D01*
X149227530Y-95052400D01*
X149255022Y-95020089D01*
X149305504Y-94970427D01*
X149335241Y-94975978D01*
X149381523Y-94967229D01*
X149387177Y-94941098D01*
X149401200Y-94907779D01*
X149437200Y-94950800D01*
G36*
X148201066Y-95170933D02*
X148207146Y-95231221D01*
X148201066Y-95238666D01*
X148170866Y-95231693D01*
X148167200Y-95204800D01*
X148185786Y-95162985D01*
X148201066Y-95170933D01*
X148201066Y-95170933D01*
G37*
X148201066Y-95170933D02*
X148207146Y-95231221D01*
X148201066Y-95238666D01*
X148170866Y-95231693D01*
X148167200Y-95204800D01*
X148185786Y-95162985D01*
X148201066Y-95170933D01*
G36*
X149193864Y-94470834D02*
X149213816Y-94514276D01*
X149227698Y-94604724D01*
X149166815Y-94648312D01*
X149087342Y-94659535D01*
X149001568Y-94684190D01*
X148980000Y-94713045D01*
X148942611Y-94737746D01*
X148903800Y-94729229D01*
X148838289Y-94734112D01*
X148826822Y-94761894D01*
X148808037Y-94784938D01*
X148776800Y-94747600D01*
X148736982Y-94697024D01*
X148726342Y-94734985D01*
X148726000Y-94747600D01*
X148717834Y-94798175D01*
X148683436Y-94760214D01*
X148675200Y-94747600D01*
X148634123Y-94706267D01*
X148625177Y-94734900D01*
X148577156Y-94779694D01*
X148443485Y-94798153D01*
X148421200Y-94798400D01*
X148284489Y-94787960D01*
X148224023Y-94749808D01*
X148218668Y-94727306D01*
X148316489Y-94727306D01*
X148386733Y-94735322D01*
X148421200Y-94735814D01*
X148513621Y-94730517D01*
X148524513Y-94717331D01*
X148510100Y-94712582D01*
X148381259Y-94704681D01*
X148332300Y-94712582D01*
X148316489Y-94727306D01*
X148218668Y-94727306D01*
X148214429Y-94709500D01*
X148208639Y-94671400D01*
X148776800Y-94671400D01*
X148802200Y-94696800D01*
X148805508Y-94693492D01*
X148890855Y-94693492D01*
X148897803Y-94696800D01*
X148944163Y-94661037D01*
X148954600Y-94646000D01*
X148960262Y-94625225D01*
X149030800Y-94625225D01*
X149069256Y-94625730D01*
X149107000Y-94613570D01*
X149174302Y-94560274D01*
X149183200Y-94532744D01*
X149152994Y-94515919D01*
X149107000Y-94544400D01*
X149043911Y-94604511D01*
X149030800Y-94625225D01*
X148960262Y-94625225D01*
X148967544Y-94598507D01*
X148960596Y-94595200D01*
X148914236Y-94630962D01*
X148903800Y-94646000D01*
X148890855Y-94693492D01*
X148805508Y-94693492D01*
X148827600Y-94671400D01*
X148802200Y-94646000D01*
X148776800Y-94671400D01*
X148208639Y-94671400D01*
X148206166Y-94655128D01*
X148180639Y-94691816D01*
X148167200Y-94722200D01*
X148123540Y-94823800D01*
X148119192Y-94722200D01*
X148107624Y-94656488D01*
X148074345Y-94684794D01*
X148068693Y-94693533D01*
X148021643Y-94740439D01*
X147958778Y-94712867D01*
X147934664Y-94693533D01*
X147864625Y-94645209D01*
X147841892Y-94642931D01*
X147800911Y-94639761D01*
X147740967Y-94611520D01*
X147677759Y-94544714D01*
X147681990Y-94497822D01*
X147688605Y-94493370D01*
X147712145Y-94493370D01*
X147728419Y-94523579D01*
X147753855Y-94556540D01*
X147824528Y-94616269D01*
X147864645Y-94619212D01*
X147924613Y-94629029D01*
X147938087Y-94645171D01*
X147988443Y-94694364D01*
X147998618Y-94696800D01*
X147995368Y-94665097D01*
X147962981Y-94619372D01*
X147899666Y-94567373D01*
X147872535Y-94568131D01*
X147817258Y-94562941D01*
X147765474Y-94531259D01*
X147712145Y-94493370D01*
X147688605Y-94493370D01*
X147732548Y-94463799D01*
X147790722Y-94497353D01*
X147849638Y-94529895D01*
X147862400Y-94519000D01*
X147893907Y-94515211D01*
X147943155Y-94548180D01*
X148043954Y-94594793D01*
X148193707Y-94627079D01*
X148235255Y-94631361D01*
X148404316Y-94646254D01*
X148551718Y-94662375D01*
X148573600Y-94665277D01*
X148695823Y-94660427D01*
X148764100Y-94632895D01*
X148818566Y-94608339D01*
X148827600Y-94620600D01*
X148858854Y-94625169D01*
X148903800Y-94595200D01*
X148965183Y-94560419D01*
X148980000Y-94571453D01*
X149011241Y-94571727D01*
X149080540Y-94519958D01*
X149156116Y-94460069D01*
X149193864Y-94470834D01*
X149193864Y-94470834D01*
G37*
X149193864Y-94470834D02*
X149213816Y-94514276D01*
X149227698Y-94604724D01*
X149166815Y-94648312D01*
X149087342Y-94659535D01*
X149001568Y-94684190D01*
X148980000Y-94713045D01*
X148942611Y-94737746D01*
X148903800Y-94729229D01*
X148838289Y-94734112D01*
X148826822Y-94761894D01*
X148808037Y-94784938D01*
X148776800Y-94747600D01*
X148736982Y-94697024D01*
X148726342Y-94734985D01*
X148726000Y-94747600D01*
X148717834Y-94798175D01*
X148683436Y-94760214D01*
X148675200Y-94747600D01*
X148634123Y-94706267D01*
X148625177Y-94734900D01*
X148577156Y-94779694D01*
X148443485Y-94798153D01*
X148421200Y-94798400D01*
X148284489Y-94787960D01*
X148224023Y-94749808D01*
X148218668Y-94727306D01*
X148316489Y-94727306D01*
X148386733Y-94735322D01*
X148421200Y-94735814D01*
X148513621Y-94730517D01*
X148524513Y-94717331D01*
X148510100Y-94712582D01*
X148381259Y-94704681D01*
X148332300Y-94712582D01*
X148316489Y-94727306D01*
X148218668Y-94727306D01*
X148214429Y-94709500D01*
X148208639Y-94671400D01*
X148776800Y-94671400D01*
X148802200Y-94696800D01*
X148805508Y-94693492D01*
X148890855Y-94693492D01*
X148897803Y-94696800D01*
X148944163Y-94661037D01*
X148954600Y-94646000D01*
X148960262Y-94625225D01*
X149030800Y-94625225D01*
X149069256Y-94625730D01*
X149107000Y-94613570D01*
X149174302Y-94560274D01*
X149183200Y-94532744D01*
X149152994Y-94515919D01*
X149107000Y-94544400D01*
X149043911Y-94604511D01*
X149030800Y-94625225D01*
X148960262Y-94625225D01*
X148967544Y-94598507D01*
X148960596Y-94595200D01*
X148914236Y-94630962D01*
X148903800Y-94646000D01*
X148890855Y-94693492D01*
X148805508Y-94693492D01*
X148827600Y-94671400D01*
X148802200Y-94646000D01*
X148776800Y-94671400D01*
X148208639Y-94671400D01*
X148206166Y-94655128D01*
X148180639Y-94691816D01*
X148167200Y-94722200D01*
X148123540Y-94823800D01*
X148119192Y-94722200D01*
X148107624Y-94656488D01*
X148074345Y-94684794D01*
X148068693Y-94693533D01*
X148021643Y-94740439D01*
X147958778Y-94712867D01*
X147934664Y-94693533D01*
X147864625Y-94645209D01*
X147841892Y-94642931D01*
X147800911Y-94639761D01*
X147740967Y-94611520D01*
X147677759Y-94544714D01*
X147681990Y-94497822D01*
X147688605Y-94493370D01*
X147712145Y-94493370D01*
X147728419Y-94523579D01*
X147753855Y-94556540D01*
X147824528Y-94616269D01*
X147864645Y-94619212D01*
X147924613Y-94629029D01*
X147938087Y-94645171D01*
X147988443Y-94694364D01*
X147998618Y-94696800D01*
X147995368Y-94665097D01*
X147962981Y-94619372D01*
X147899666Y-94567373D01*
X147872535Y-94568131D01*
X147817258Y-94562941D01*
X147765474Y-94531259D01*
X147712145Y-94493370D01*
X147688605Y-94493370D01*
X147732548Y-94463799D01*
X147790722Y-94497353D01*
X147849638Y-94529895D01*
X147862400Y-94519000D01*
X147893907Y-94515211D01*
X147943155Y-94548180D01*
X148043954Y-94594793D01*
X148193707Y-94627079D01*
X148235255Y-94631361D01*
X148404316Y-94646254D01*
X148551718Y-94662375D01*
X148573600Y-94665277D01*
X148695823Y-94660427D01*
X148764100Y-94632895D01*
X148818566Y-94608339D01*
X148827600Y-94620600D01*
X148858854Y-94625169D01*
X148903800Y-94595200D01*
X148965183Y-94560419D01*
X148980000Y-94571453D01*
X149011241Y-94571727D01*
X149080540Y-94519958D01*
X149156116Y-94460069D01*
X149193864Y-94470834D01*
G36*
X148843385Y-92322743D02*
X149083211Y-92449587D01*
X149192668Y-92546339D01*
X149325594Y-92720208D01*
X149402852Y-92916404D01*
X149434792Y-93166122D01*
X149437200Y-93283490D01*
X149399699Y-93599401D01*
X149284139Y-93854564D01*
X149085935Y-94058404D01*
X149046349Y-94086815D01*
X148831958Y-94183347D01*
X148566570Y-94230402D01*
X148289114Y-94225788D01*
X148038518Y-94167315D01*
X147989400Y-94146315D01*
X147732955Y-93974161D01*
X147556482Y-93743345D01*
X147462773Y-93461281D01*
X147457352Y-93244547D01*
X148014800Y-93244547D01*
X148048703Y-93492792D01*
X148142694Y-93678632D01*
X148285194Y-93792238D01*
X148464624Y-93823780D01*
X148641828Y-93776788D01*
X148791054Y-93654949D01*
X148876482Y-93456787D01*
X148897450Y-93249000D01*
X148863658Y-92992545D01*
X148762890Y-92810635D01*
X148625418Y-92716021D01*
X148425924Y-92678302D01*
X148252424Y-92730156D01*
X148117838Y-92860402D01*
X148035082Y-93057860D01*
X148014800Y-93244547D01*
X147457352Y-93244547D01*
X147454621Y-93135382D01*
X147506761Y-92865112D01*
X147618355Y-92638265D01*
X147800818Y-92461008D01*
X148034352Y-92337083D01*
X148299157Y-92270235D01*
X148575434Y-92264208D01*
X148843385Y-92322743D01*
X148843385Y-92322743D01*
G37*
X148843385Y-92322743D02*
X149083211Y-92449587D01*
X149192668Y-92546339D01*
X149325594Y-92720208D01*
X149402852Y-92916404D01*
X149434792Y-93166122D01*
X149437200Y-93283490D01*
X149399699Y-93599401D01*
X149284139Y-93854564D01*
X149085935Y-94058404D01*
X149046349Y-94086815D01*
X148831958Y-94183347D01*
X148566570Y-94230402D01*
X148289114Y-94225788D01*
X148038518Y-94167315D01*
X147989400Y-94146315D01*
X147732955Y-93974161D01*
X147556482Y-93743345D01*
X147462773Y-93461281D01*
X147457352Y-93244547D01*
X148014800Y-93244547D01*
X148048703Y-93492792D01*
X148142694Y-93678632D01*
X148285194Y-93792238D01*
X148464624Y-93823780D01*
X148641828Y-93776788D01*
X148791054Y-93654949D01*
X148876482Y-93456787D01*
X148897450Y-93249000D01*
X148863658Y-92992545D01*
X148762890Y-92810635D01*
X148625418Y-92716021D01*
X148425924Y-92678302D01*
X148252424Y-92730156D01*
X148117838Y-92860402D01*
X148035082Y-93057860D01*
X148014800Y-93244547D01*
X147457352Y-93244547D01*
X147454621Y-93135382D01*
X147506761Y-92865112D01*
X147618355Y-92638265D01*
X147800818Y-92461008D01*
X148034352Y-92337083D01*
X148299157Y-92270235D01*
X148575434Y-92264208D01*
X148843385Y-92322743D01*
G36*
X153428668Y-92277353D02*
X153634325Y-92313117D01*
X153669002Y-92323648D01*
X153775577Y-92369959D01*
X153854626Y-92436252D01*
X153910413Y-92537140D01*
X153947200Y-92687238D01*
X153969252Y-92901160D01*
X153980829Y-93193517D01*
X153984427Y-93404921D01*
X153994155Y-94188800D01*
X153747677Y-94188800D01*
X153590659Y-94180187D01*
X153515349Y-94150483D01*
X153501200Y-94112501D01*
X153486606Y-94071974D01*
X153428525Y-94080547D01*
X153311452Y-94137901D01*
X153060877Y-94221686D01*
X152792561Y-94227825D01*
X152555453Y-94159168D01*
X152393193Y-94029721D01*
X152302049Y-93852857D01*
X152281311Y-93658586D01*
X152810355Y-93658586D01*
X152856959Y-93757472D01*
X152956585Y-93819048D01*
X153086131Y-93835575D01*
X153222498Y-93799315D01*
X153342582Y-93702531D01*
X153345112Y-93699349D01*
X153408910Y-93586277D01*
X153444509Y-93462215D01*
X153448823Y-93356722D01*
X153418770Y-93299357D01*
X153386900Y-93298886D01*
X153300511Y-93324132D01*
X153160858Y-93361639D01*
X153108363Y-93375217D01*
X152959349Y-93432690D01*
X152855574Y-93508100D01*
X152839876Y-93530125D01*
X152810355Y-93658586D01*
X152281311Y-93658586D01*
X152280645Y-93652347D01*
X152327604Y-93451960D01*
X152441550Y-93275467D01*
X152613881Y-93150006D01*
X152765665Y-93094115D01*
X152967570Y-93040028D01*
X153124119Y-93008647D01*
X153302229Y-92974884D01*
X153401269Y-92940820D01*
X153443203Y-92895454D01*
X153450400Y-92845250D01*
X153410799Y-92705180D01*
X153292441Y-92629014D01*
X153167036Y-92614000D01*
X153008855Y-92650952D01*
X152930564Y-92726997D01*
X152854774Y-92802273D01*
X152736888Y-92836978D01*
X152619568Y-92844016D01*
X152474973Y-92841009D01*
X152405327Y-92817601D01*
X152384338Y-92761966D01*
X152383600Y-92737869D01*
X152428801Y-92584927D01*
X152546968Y-92439095D01*
X152711947Y-92329793D01*
X152764712Y-92309162D01*
X152948289Y-92274646D01*
X153184799Y-92264286D01*
X153428668Y-92277353D01*
X153428668Y-92277353D01*
G37*
X153428668Y-92277353D02*
X153634325Y-92313117D01*
X153669002Y-92323648D01*
X153775577Y-92369959D01*
X153854626Y-92436252D01*
X153910413Y-92537140D01*
X153947200Y-92687238D01*
X153969252Y-92901160D01*
X153980829Y-93193517D01*
X153984427Y-93404921D01*
X153994155Y-94188800D01*
X153747677Y-94188800D01*
X153590659Y-94180187D01*
X153515349Y-94150483D01*
X153501200Y-94112501D01*
X153486606Y-94071974D01*
X153428525Y-94080547D01*
X153311452Y-94137901D01*
X153060877Y-94221686D01*
X152792561Y-94227825D01*
X152555453Y-94159168D01*
X152393193Y-94029721D01*
X152302049Y-93852857D01*
X152281311Y-93658586D01*
X152810355Y-93658586D01*
X152856959Y-93757472D01*
X152956585Y-93819048D01*
X153086131Y-93835575D01*
X153222498Y-93799315D01*
X153342582Y-93702531D01*
X153345112Y-93699349D01*
X153408910Y-93586277D01*
X153444509Y-93462215D01*
X153448823Y-93356722D01*
X153418770Y-93299357D01*
X153386900Y-93298886D01*
X153300511Y-93324132D01*
X153160858Y-93361639D01*
X153108363Y-93375217D01*
X152959349Y-93432690D01*
X152855574Y-93508100D01*
X152839876Y-93530125D01*
X152810355Y-93658586D01*
X152281311Y-93658586D01*
X152280645Y-93652347D01*
X152327604Y-93451960D01*
X152441550Y-93275467D01*
X152613881Y-93150006D01*
X152765665Y-93094115D01*
X152967570Y-93040028D01*
X153124119Y-93008647D01*
X153302229Y-92974884D01*
X153401269Y-92940820D01*
X153443203Y-92895454D01*
X153450400Y-92845250D01*
X153410799Y-92705180D01*
X153292441Y-92629014D01*
X153167036Y-92614000D01*
X153008855Y-92650952D01*
X152930564Y-92726997D01*
X152854774Y-92802273D01*
X152736888Y-92836978D01*
X152619568Y-92844016D01*
X152474973Y-92841009D01*
X152405327Y-92817601D01*
X152384338Y-92761966D01*
X152383600Y-92737869D01*
X152428801Y-92584927D01*
X152546968Y-92439095D01*
X152711947Y-92329793D01*
X152764712Y-92309162D01*
X152948289Y-92274646D01*
X153184799Y-92264286D01*
X153428668Y-92277353D01*
G36*
X145944700Y-91659075D02*
X146262200Y-91674200D01*
X146262200Y-93655400D01*
X146757500Y-93669939D01*
X147252800Y-93684479D01*
X147252800Y-94188800D01*
X145627200Y-94188800D01*
X145627200Y-91643951D01*
X145944700Y-91659075D01*
X145944700Y-91659075D01*
G37*
X145944700Y-91659075D02*
X146262200Y-91674200D01*
X146262200Y-93655400D01*
X146757500Y-93669939D01*
X147252800Y-93684479D01*
X147252800Y-94188800D01*
X145627200Y-94188800D01*
X145627200Y-91643951D01*
X145944700Y-91659075D01*
G36*
X150643700Y-91657404D02*
X150972313Y-91666906D01*
X151216708Y-91680179D01*
X151394250Y-91699114D01*
X151522302Y-91725605D01*
X151618229Y-91761547D01*
X151623832Y-91764288D01*
X151816043Y-91910407D01*
X151944448Y-92111305D01*
X152007915Y-92343924D01*
X152005311Y-92585210D01*
X151935504Y-92812104D01*
X151797360Y-93001551D01*
X151688631Y-93083340D01*
X151580771Y-93152351D01*
X151523044Y-93199752D01*
X151520000Y-93205910D01*
X151543871Y-93256580D01*
X151608554Y-93376131D01*
X151703653Y-93545696D01*
X151798350Y-93711097D01*
X152076700Y-94193208D01*
X151710943Y-94178304D01*
X151345187Y-94163400D01*
X151107566Y-93731600D01*
X150996755Y-93533014D01*
X150917881Y-93407115D01*
X150854329Y-93337344D01*
X150789481Y-93307141D01*
X150706720Y-93299947D01*
X150674273Y-93299800D01*
X150478600Y-93299800D01*
X150449244Y-94188800D01*
X149843600Y-94188800D01*
X149843600Y-92817200D01*
X150448557Y-92817200D01*
X150815178Y-92817200D01*
X151040364Y-92809033D01*
X151186789Y-92781884D01*
X151274699Y-92733126D01*
X151341308Y-92619118D01*
X151366848Y-92463624D01*
X151349966Y-92311071D01*
X151290710Y-92207027D01*
X151199270Y-92172531D01*
X151035453Y-92147695D01*
X150846210Y-92137307D01*
X150478600Y-92131400D01*
X150463578Y-92474300D01*
X150448557Y-92817200D01*
X149843600Y-92817200D01*
X149843600Y-91639873D01*
X150643700Y-91657404D01*
X150643700Y-91657404D01*
G37*
X150643700Y-91657404D02*
X150972313Y-91666906D01*
X151216708Y-91680179D01*
X151394250Y-91699114D01*
X151522302Y-91725605D01*
X151618229Y-91761547D01*
X151623832Y-91764288D01*
X151816043Y-91910407D01*
X151944448Y-92111305D01*
X152007915Y-92343924D01*
X152005311Y-92585210D01*
X151935504Y-92812104D01*
X151797360Y-93001551D01*
X151688631Y-93083340D01*
X151580771Y-93152351D01*
X151523044Y-93199752D01*
X151520000Y-93205910D01*
X151543871Y-93256580D01*
X151608554Y-93376131D01*
X151703653Y-93545696D01*
X151798350Y-93711097D01*
X152076700Y-94193208D01*
X151710943Y-94178304D01*
X151345187Y-94163400D01*
X151107566Y-93731600D01*
X150996755Y-93533014D01*
X150917881Y-93407115D01*
X150854329Y-93337344D01*
X150789481Y-93307141D01*
X150706720Y-93299947D01*
X150674273Y-93299800D01*
X150478600Y-93299800D01*
X150449244Y-94188800D01*
X149843600Y-94188800D01*
X149843600Y-92817200D01*
X150448557Y-92817200D01*
X150815178Y-92817200D01*
X151040364Y-92809033D01*
X151186789Y-92781884D01*
X151274699Y-92733126D01*
X151341308Y-92619118D01*
X151366848Y-92463624D01*
X151349966Y-92311071D01*
X151290710Y-92207027D01*
X151199270Y-92172531D01*
X151035453Y-92147695D01*
X150846210Y-92137307D01*
X150478600Y-92131400D01*
X150463578Y-92474300D01*
X150448557Y-92817200D01*
X149843600Y-92817200D01*
X149843600Y-91639873D01*
X150643700Y-91657404D01*
G36*
X147958072Y-91784870D02*
X147960429Y-91839300D01*
X147943552Y-91930959D01*
X147867356Y-91952900D01*
X147840331Y-91950269D01*
X147862400Y-91928200D01*
X147837000Y-91902800D01*
X147811600Y-91928200D01*
X147832950Y-91949550D01*
X147829979Y-91949261D01*
X147776642Y-91980560D01*
X147766479Y-91994439D01*
X147712575Y-92006397D01*
X147669897Y-91973378D01*
X147638492Y-91917061D01*
X147694650Y-91902508D01*
X147732066Y-91906134D01*
X147710000Y-91928200D01*
X147735400Y-91953600D01*
X147760800Y-91928200D01*
X147739450Y-91906850D01*
X147742420Y-91907138D01*
X147794206Y-91874571D01*
X147817842Y-91843638D01*
X147854172Y-91804610D01*
X147865192Y-91852000D01*
X147880427Y-91883511D01*
X147913200Y-91826600D01*
X147946593Y-91758041D01*
X147958072Y-91784870D01*
X147958072Y-91784870D01*
G37*
X147958072Y-91784870D02*
X147960429Y-91839300D01*
X147943552Y-91930959D01*
X147867356Y-91952900D01*
X147840331Y-91950269D01*
X147862400Y-91928200D01*
X147837000Y-91902800D01*
X147811600Y-91928200D01*
X147832950Y-91949550D01*
X147829979Y-91949261D01*
X147776642Y-91980560D01*
X147766479Y-91994439D01*
X147712575Y-92006397D01*
X147669897Y-91973378D01*
X147638492Y-91917061D01*
X147694650Y-91902508D01*
X147732066Y-91906134D01*
X147710000Y-91928200D01*
X147735400Y-91953600D01*
X147760800Y-91928200D01*
X147739450Y-91906850D01*
X147742420Y-91907138D01*
X147794206Y-91874571D01*
X147817842Y-91843638D01*
X147854172Y-91804610D01*
X147865192Y-91852000D01*
X147880427Y-91883511D01*
X147913200Y-91826600D01*
X147946593Y-91758041D01*
X147958072Y-91784870D01*
G36*
X149157104Y-91885780D02*
X149203016Y-91921079D01*
X149220173Y-91979000D01*
X149233137Y-92080600D01*
X149189616Y-91979000D01*
X149149470Y-91885282D01*
X149157104Y-91885780D01*
X149157104Y-91885780D01*
G37*
X149157104Y-91885780D02*
X149203016Y-91921079D01*
X149220173Y-91979000D01*
X149233137Y-92080600D01*
X149189616Y-91979000D01*
X149149470Y-91885282D01*
X149157104Y-91885780D01*
G36*
X148920963Y-91788585D02*
X148929200Y-91801200D01*
X148969967Y-91844667D01*
X148979222Y-91833079D01*
X149010014Y-91820423D01*
X149043500Y-91841459D01*
X149127629Y-91883857D01*
X149144140Y-91884934D01*
X149119740Y-91979000D01*
X149093385Y-92080600D01*
X149086714Y-91979000D01*
X149074009Y-91912022D01*
X149040390Y-91939176D01*
X149030800Y-91953600D01*
X148989723Y-91994932D01*
X148980777Y-91966300D01*
X148956247Y-91911220D01*
X148941900Y-91908815D01*
X148822199Y-91899713D01*
X148809135Y-91877400D01*
X148878400Y-91877400D01*
X148903800Y-91902800D01*
X148929200Y-91877400D01*
X148980000Y-91877400D01*
X149005400Y-91902800D01*
X149030800Y-91877400D01*
X149005400Y-91852000D01*
X148980000Y-91877400D01*
X148929200Y-91877400D01*
X148903800Y-91852000D01*
X148878400Y-91877400D01*
X148809135Y-91877400D01*
X148777799Y-91823884D01*
X148777577Y-91813900D01*
X148785967Y-91755073D01*
X148821236Y-91791468D01*
X148827600Y-91801200D01*
X148867417Y-91851775D01*
X148878057Y-91813814D01*
X148878400Y-91801200D01*
X148886565Y-91750624D01*
X148920963Y-91788585D01*
X148920963Y-91788585D01*
G37*
X148920963Y-91788585D02*
X148929200Y-91801200D01*
X148969967Y-91844667D01*
X148979222Y-91833079D01*
X149010014Y-91820423D01*
X149043500Y-91841459D01*
X149127629Y-91883857D01*
X149144140Y-91884934D01*
X149119740Y-91979000D01*
X149093385Y-92080600D01*
X149086714Y-91979000D01*
X149074009Y-91912022D01*
X149040390Y-91939176D01*
X149030800Y-91953600D01*
X148989723Y-91994932D01*
X148980777Y-91966300D01*
X148956247Y-91911220D01*
X148941900Y-91908815D01*
X148822199Y-91899713D01*
X148809135Y-91877400D01*
X148878400Y-91877400D01*
X148903800Y-91902800D01*
X148929200Y-91877400D01*
X148980000Y-91877400D01*
X149005400Y-91902800D01*
X149030800Y-91877400D01*
X149005400Y-91852000D01*
X148980000Y-91877400D01*
X148929200Y-91877400D01*
X148903800Y-91852000D01*
X148878400Y-91877400D01*
X148809135Y-91877400D01*
X148777799Y-91823884D01*
X148777577Y-91813900D01*
X148785967Y-91755073D01*
X148821236Y-91791468D01*
X148827600Y-91801200D01*
X148867417Y-91851775D01*
X148878057Y-91813814D01*
X148878400Y-91801200D01*
X148886565Y-91750624D01*
X148920963Y-91788585D01*
G36*
X149146094Y-91877400D02*
X149149470Y-91885282D01*
X149144140Y-91884934D01*
X149146094Y-91877400D01*
X149146094Y-91877400D01*
G37*
X149146094Y-91877400D02*
X149149470Y-91885282D01*
X149144140Y-91884934D01*
X149146094Y-91877400D01*
G36*
X148159001Y-91750900D02*
X148161307Y-91788500D01*
X148137706Y-91882096D01*
X148091000Y-91902800D01*
X148026978Y-91861301D01*
X148015577Y-91813900D01*
X148025124Y-91756967D01*
X148060973Y-91795464D01*
X148061233Y-91795873D01*
X148101015Y-91833867D01*
X148128747Y-91778168D01*
X148130762Y-91770473D01*
X148149849Y-91712925D01*
X148159001Y-91750900D01*
X148159001Y-91750900D01*
G37*
X148159001Y-91750900D02*
X148161307Y-91788500D01*
X148137706Y-91882096D01*
X148091000Y-91902800D01*
X148026978Y-91861301D01*
X148015577Y-91813900D01*
X148025124Y-91756967D01*
X148060973Y-91795464D01*
X148061233Y-91795873D01*
X148101015Y-91833867D01*
X148128747Y-91778168D01*
X148130762Y-91770473D01*
X148149849Y-91712925D01*
X148159001Y-91750900D01*
G36*
X148251643Y-91737700D02*
X148258353Y-91841705D01*
X148251643Y-91864700D01*
X148233102Y-91871081D01*
X148226021Y-91801200D01*
X148234004Y-91729082D01*
X148251643Y-91737700D01*
X148251643Y-91737700D01*
G37*
X148251643Y-91737700D02*
X148258353Y-91841705D01*
X148251643Y-91864700D01*
X148233102Y-91871081D01*
X148226021Y-91801200D01*
X148234004Y-91729082D01*
X148251643Y-91737700D01*
G36*
X148503126Y-91708777D02*
X148638061Y-91739452D01*
X148717602Y-91798734D01*
X148721740Y-91869017D01*
X148706875Y-91888057D01*
X148679679Y-91873621D01*
X148671189Y-91822366D01*
X148658128Y-91770085D01*
X148641556Y-91788500D01*
X148579290Y-91838150D01*
X148476123Y-91853022D01*
X148375569Y-91835047D01*
X148321140Y-91786157D01*
X148321133Y-91786097D01*
X148402118Y-91786097D01*
X148472000Y-91793178D01*
X148544117Y-91785195D01*
X148535500Y-91767556D01*
X148431494Y-91760846D01*
X148408500Y-91767556D01*
X148402118Y-91786097D01*
X148321133Y-91786097D01*
X148319600Y-91774208D01*
X148348699Y-91721419D01*
X148449056Y-91706466D01*
X148503126Y-91708777D01*
X148503126Y-91708777D01*
G37*
X148503126Y-91708777D02*
X148638061Y-91739452D01*
X148717602Y-91798734D01*
X148721740Y-91869017D01*
X148706875Y-91888057D01*
X148679679Y-91873621D01*
X148671189Y-91822366D01*
X148658128Y-91770085D01*
X148641556Y-91788500D01*
X148579290Y-91838150D01*
X148476123Y-91853022D01*
X148375569Y-91835047D01*
X148321140Y-91786157D01*
X148321133Y-91786097D01*
X148402118Y-91786097D01*
X148472000Y-91793178D01*
X148544117Y-91785195D01*
X148535500Y-91767556D01*
X148431494Y-91760846D01*
X148408500Y-91767556D01*
X148402118Y-91786097D01*
X148321133Y-91786097D01*
X148319600Y-91774208D01*
X148348699Y-91721419D01*
X148449056Y-91706466D01*
X148503126Y-91708777D01*
G36*
X148627345Y-91124431D02*
X148704408Y-91136616D01*
X148713300Y-91141497D01*
X148767406Y-91156805D01*
X148827600Y-91166200D01*
X148922960Y-91182323D01*
X148954600Y-91191600D01*
X149023218Y-91209368D01*
X149032652Y-91210650D01*
X149102610Y-91254569D01*
X149133475Y-91293200D01*
X149172483Y-91343791D01*
X149182874Y-91305381D01*
X149183200Y-91293200D01*
X149191365Y-91242624D01*
X149225763Y-91280585D01*
X149234000Y-91293200D01*
X149274767Y-91336667D01*
X149284022Y-91325079D01*
X149315158Y-91313500D01*
X149352974Y-91337339D01*
X149423596Y-91373027D01*
X149447335Y-91367731D01*
X149495544Y-91379332D01*
X149539897Y-91421521D01*
X149579113Y-91498318D01*
X149535666Y-91571971D01*
X149527914Y-91579857D01*
X149464990Y-91626552D01*
X149412275Y-91599836D01*
X149367177Y-91540604D01*
X149306285Y-91472537D01*
X149284061Y-91495726D01*
X149284022Y-91497796D01*
X149275832Y-91546156D01*
X149240270Y-91506018D01*
X149234000Y-91496400D01*
X149193232Y-91452932D01*
X149183977Y-91464520D01*
X149153185Y-91477176D01*
X149119700Y-91456140D01*
X149039933Y-91406550D01*
X148935940Y-91394815D01*
X148929200Y-91394800D01*
X148884374Y-91352710D01*
X148874829Y-91305900D01*
X148866566Y-91251528D01*
X148841039Y-91288216D01*
X148827600Y-91318600D01*
X148794041Y-91382427D01*
X148781487Y-91353726D01*
X148780370Y-91334298D01*
X148750825Y-91242417D01*
X148726581Y-91217359D01*
X148696989Y-91225287D01*
X148704180Y-91258811D01*
X148694129Y-91314490D01*
X148599000Y-91331300D01*
X148503223Y-91312294D01*
X148489558Y-91269916D01*
X148473811Y-91217000D01*
X148539733Y-91217000D01*
X148579201Y-91272845D01*
X148599000Y-91276266D01*
X148654845Y-91236798D01*
X148658266Y-91217000D01*
X148776800Y-91217000D01*
X148802200Y-91242400D01*
X148827600Y-91217000D01*
X148810337Y-91199737D01*
X148897396Y-91199737D01*
X148898597Y-91217874D01*
X148928946Y-91281922D01*
X148985826Y-91358937D01*
X149029838Y-91369994D01*
X149093087Y-91377211D01*
X149104558Y-91390848D01*
X149172725Y-91422388D01*
X149234863Y-91420033D01*
X149342223Y-91445293D01*
X149388743Y-91500779D01*
X149451430Y-91562427D01*
X149511216Y-91559735D01*
X149529616Y-91498862D01*
X149524548Y-91479044D01*
X149464674Y-91418599D01*
X149445666Y-91413850D01*
X149369638Y-91398317D01*
X149361000Y-91394800D01*
X149294997Y-91381565D01*
X149232147Y-91375750D01*
X149123650Y-91335793D01*
X149080524Y-91293200D01*
X149041687Y-91244559D01*
X149031651Y-91285116D01*
X149031577Y-91290209D01*
X149014496Y-91324674D01*
X148958666Y-91273280D01*
X148951797Y-91264809D01*
X148897396Y-91199737D01*
X148810337Y-91199737D01*
X148802200Y-91191600D01*
X148776800Y-91217000D01*
X148658266Y-91217000D01*
X148618798Y-91161154D01*
X148599000Y-91157733D01*
X148543154Y-91197201D01*
X148539733Y-91217000D01*
X148473811Y-91217000D01*
X148473111Y-91214649D01*
X148446600Y-91208533D01*
X148403054Y-91244517D01*
X148408738Y-91283198D01*
X148406220Y-91336854D01*
X148365794Y-91333350D01*
X148266184Y-91328246D01*
X148154500Y-91348273D01*
X148048584Y-91363857D01*
X148014871Y-91325522D01*
X148014800Y-91322098D01*
X148058560Y-91275863D01*
X148154500Y-91273900D01*
X148249116Y-91284506D01*
X148246064Y-91276303D01*
X148167200Y-91249458D01*
X148072813Y-91230848D01*
X148289698Y-91230848D01*
X148296369Y-91245910D01*
X148338068Y-91290273D01*
X148353164Y-91238005D01*
X148353466Y-91219234D01*
X148331048Y-91168286D01*
X148310304Y-91171944D01*
X148289698Y-91230848D01*
X148072813Y-91230848D01*
X148037675Y-91223920D01*
X147974509Y-91263096D01*
X147960429Y-91334298D01*
X147951117Y-91383876D01*
X147923431Y-91341800D01*
X147913200Y-91318600D01*
X147880346Y-91252001D01*
X147868519Y-91278792D01*
X147865970Y-91336735D01*
X147842421Y-91424167D01*
X147789482Y-91428488D01*
X147716814Y-91427146D01*
X147700582Y-91444643D01*
X147643009Y-91493748D01*
X147608400Y-91505290D01*
X147518305Y-91548736D01*
X147497971Y-91569333D01*
X147436458Y-91581326D01*
X147383045Y-91549893D01*
X147331458Y-91477610D01*
X147347304Y-91441713D01*
X147364101Y-91441713D01*
X147370467Y-91479298D01*
X147381324Y-91498866D01*
X147437096Y-91524069D01*
X147477896Y-91499307D01*
X147554633Y-91472519D01*
X147583118Y-91484140D01*
X147601975Y-91486376D01*
X147590942Y-91462824D01*
X147527210Y-91422611D01*
X147398643Y-91433688D01*
X147364101Y-91441713D01*
X147347304Y-91441713D01*
X147359529Y-91414019D01*
X147429626Y-91368653D01*
X147461755Y-91372957D01*
X147502708Y-91361131D01*
X147506800Y-91337288D01*
X147530783Y-91322604D01*
X147580473Y-91372390D01*
X147632904Y-91436584D01*
X147642138Y-91414118D01*
X147630230Y-91344000D01*
X147618366Y-91265127D01*
X147633205Y-91279929D01*
X147649622Y-91315879D01*
X147684231Y-91381404D01*
X147707038Y-91356225D01*
X147718847Y-91314366D01*
X147764810Y-91314366D01*
X147774150Y-91380255D01*
X147791491Y-91381041D01*
X147803618Y-91313051D01*
X147795502Y-91283675D01*
X147772945Y-91264432D01*
X147764810Y-91314366D01*
X147718847Y-91314366D01*
X147723446Y-91298068D01*
X147764200Y-91220662D01*
X147782853Y-91217000D01*
X147913200Y-91217000D01*
X147938600Y-91242400D01*
X147964000Y-91217000D01*
X147938600Y-91191600D01*
X147913200Y-91217000D01*
X147782853Y-91217000D01*
X147804670Y-91212717D01*
X147871392Y-91211561D01*
X147883890Y-91197925D01*
X147948605Y-91171684D01*
X148070253Y-91167444D01*
X148092058Y-91169203D01*
X148202896Y-91171294D01*
X148216965Y-91166200D01*
X148421200Y-91166200D01*
X148446600Y-91191600D01*
X148472000Y-91166200D01*
X148446600Y-91140800D01*
X148421200Y-91166200D01*
X148216965Y-91166200D01*
X148249501Y-91154420D01*
X148248061Y-91148342D01*
X148281174Y-91132531D01*
X148379546Y-91122921D01*
X148506997Y-91120044D01*
X148627345Y-91124431D01*
X148627345Y-91124431D01*
G37*
X148627345Y-91124431D02*
X148704408Y-91136616D01*
X148713300Y-91141497D01*
X148767406Y-91156805D01*
X148827600Y-91166200D01*
X148922960Y-91182323D01*
X148954600Y-91191600D01*
X149023218Y-91209368D01*
X149032652Y-91210650D01*
X149102610Y-91254569D01*
X149133475Y-91293200D01*
X149172483Y-91343791D01*
X149182874Y-91305381D01*
X149183200Y-91293200D01*
X149191365Y-91242624D01*
X149225763Y-91280585D01*
X149234000Y-91293200D01*
X149274767Y-91336667D01*
X149284022Y-91325079D01*
X149315158Y-91313500D01*
X149352974Y-91337339D01*
X149423596Y-91373027D01*
X149447335Y-91367731D01*
X149495544Y-91379332D01*
X149539897Y-91421521D01*
X149579113Y-91498318D01*
X149535666Y-91571971D01*
X149527914Y-91579857D01*
X149464990Y-91626552D01*
X149412275Y-91599836D01*
X149367177Y-91540604D01*
X149306285Y-91472537D01*
X149284061Y-91495726D01*
X149284022Y-91497796D01*
X149275832Y-91546156D01*
X149240270Y-91506018D01*
X149234000Y-91496400D01*
X149193232Y-91452932D01*
X149183977Y-91464520D01*
X149153185Y-91477176D01*
X149119700Y-91456140D01*
X149039933Y-91406550D01*
X148935940Y-91394815D01*
X148929200Y-91394800D01*
X148884374Y-91352710D01*
X148874829Y-91305900D01*
X148866566Y-91251528D01*
X148841039Y-91288216D01*
X148827600Y-91318600D01*
X148794041Y-91382427D01*
X148781487Y-91353726D01*
X148780370Y-91334298D01*
X148750825Y-91242417D01*
X148726581Y-91217359D01*
X148696989Y-91225287D01*
X148704180Y-91258811D01*
X148694129Y-91314490D01*
X148599000Y-91331300D01*
X148503223Y-91312294D01*
X148489558Y-91269916D01*
X148473811Y-91217000D01*
X148539733Y-91217000D01*
X148579201Y-91272845D01*
X148599000Y-91276266D01*
X148654845Y-91236798D01*
X148658266Y-91217000D01*
X148776800Y-91217000D01*
X148802200Y-91242400D01*
X148827600Y-91217000D01*
X148810337Y-91199737D01*
X148897396Y-91199737D01*
X148898597Y-91217874D01*
X148928946Y-91281922D01*
X148985826Y-91358937D01*
X149029838Y-91369994D01*
X149093087Y-91377211D01*
X149104558Y-91390848D01*
X149172725Y-91422388D01*
X149234863Y-91420033D01*
X149342223Y-91445293D01*
X149388743Y-91500779D01*
X149451430Y-91562427D01*
X149511216Y-91559735D01*
X149529616Y-91498862D01*
X149524548Y-91479044D01*
X149464674Y-91418599D01*
X149445666Y-91413850D01*
X149369638Y-91398317D01*
X149361000Y-91394800D01*
X149294997Y-91381565D01*
X149232147Y-91375750D01*
X149123650Y-91335793D01*
X149080524Y-91293200D01*
X149041687Y-91244559D01*
X149031651Y-91285116D01*
X149031577Y-91290209D01*
X149014496Y-91324674D01*
X148958666Y-91273280D01*
X148951797Y-91264809D01*
X148897396Y-91199737D01*
X148810337Y-91199737D01*
X148802200Y-91191600D01*
X148776800Y-91217000D01*
X148658266Y-91217000D01*
X148618798Y-91161154D01*
X148599000Y-91157733D01*
X148543154Y-91197201D01*
X148539733Y-91217000D01*
X148473811Y-91217000D01*
X148473111Y-91214649D01*
X148446600Y-91208533D01*
X148403054Y-91244517D01*
X148408738Y-91283198D01*
X148406220Y-91336854D01*
X148365794Y-91333350D01*
X148266184Y-91328246D01*
X148154500Y-91348273D01*
X148048584Y-91363857D01*
X148014871Y-91325522D01*
X148014800Y-91322098D01*
X148058560Y-91275863D01*
X148154500Y-91273900D01*
X148249116Y-91284506D01*
X148246064Y-91276303D01*
X148167200Y-91249458D01*
X148072813Y-91230848D01*
X148289698Y-91230848D01*
X148296369Y-91245910D01*
X148338068Y-91290273D01*
X148353164Y-91238005D01*
X148353466Y-91219234D01*
X148331048Y-91168286D01*
X148310304Y-91171944D01*
X148289698Y-91230848D01*
X148072813Y-91230848D01*
X148037675Y-91223920D01*
X147974509Y-91263096D01*
X147960429Y-91334298D01*
X147951117Y-91383876D01*
X147923431Y-91341800D01*
X147913200Y-91318600D01*
X147880346Y-91252001D01*
X147868519Y-91278792D01*
X147865970Y-91336735D01*
X147842421Y-91424167D01*
X147789482Y-91428488D01*
X147716814Y-91427146D01*
X147700582Y-91444643D01*
X147643009Y-91493748D01*
X147608400Y-91505290D01*
X147518305Y-91548736D01*
X147497971Y-91569333D01*
X147436458Y-91581326D01*
X147383045Y-91549893D01*
X147331458Y-91477610D01*
X147347304Y-91441713D01*
X147364101Y-91441713D01*
X147370467Y-91479298D01*
X147381324Y-91498866D01*
X147437096Y-91524069D01*
X147477896Y-91499307D01*
X147554633Y-91472519D01*
X147583118Y-91484140D01*
X147601975Y-91486376D01*
X147590942Y-91462824D01*
X147527210Y-91422611D01*
X147398643Y-91433688D01*
X147364101Y-91441713D01*
X147347304Y-91441713D01*
X147359529Y-91414019D01*
X147429626Y-91368653D01*
X147461755Y-91372957D01*
X147502708Y-91361131D01*
X147506800Y-91337288D01*
X147530783Y-91322604D01*
X147580473Y-91372390D01*
X147632904Y-91436584D01*
X147642138Y-91414118D01*
X147630230Y-91344000D01*
X147618366Y-91265127D01*
X147633205Y-91279929D01*
X147649622Y-91315879D01*
X147684231Y-91381404D01*
X147707038Y-91356225D01*
X147718847Y-91314366D01*
X147764810Y-91314366D01*
X147774150Y-91380255D01*
X147791491Y-91381041D01*
X147803618Y-91313051D01*
X147795502Y-91283675D01*
X147772945Y-91264432D01*
X147764810Y-91314366D01*
X147718847Y-91314366D01*
X147723446Y-91298068D01*
X147764200Y-91220662D01*
X147782853Y-91217000D01*
X147913200Y-91217000D01*
X147938600Y-91242400D01*
X147964000Y-91217000D01*
X147938600Y-91191600D01*
X147913200Y-91217000D01*
X147782853Y-91217000D01*
X147804670Y-91212717D01*
X147871392Y-91211561D01*
X147883890Y-91197925D01*
X147948605Y-91171684D01*
X148070253Y-91167444D01*
X148092058Y-91169203D01*
X148202896Y-91171294D01*
X148216965Y-91166200D01*
X148421200Y-91166200D01*
X148446600Y-91191600D01*
X148472000Y-91166200D01*
X148446600Y-91140800D01*
X148421200Y-91166200D01*
X148216965Y-91166200D01*
X148249501Y-91154420D01*
X148248061Y-91148342D01*
X148281174Y-91132531D01*
X148379546Y-91122921D01*
X148506997Y-91120044D01*
X148627345Y-91124431D01*
G36*
X148426841Y-90511492D02*
X148509265Y-90534309D01*
X148493267Y-90574041D01*
X148487782Y-90594700D01*
X148430241Y-90669909D01*
X148345322Y-90676298D01*
X148294559Y-90633381D01*
X148302736Y-90604514D01*
X148342361Y-90613416D01*
X148409310Y-90614605D01*
X148421200Y-90591930D01*
X148380550Y-90555367D01*
X148332300Y-90555143D01*
X148263336Y-90593933D01*
X148256100Y-90626848D01*
X148234629Y-90680149D01*
X148218000Y-90683600D01*
X148170275Y-90643417D01*
X148166422Y-90620100D01*
X148148859Y-90593655D01*
X148116400Y-90632800D01*
X148076582Y-90683375D01*
X148065942Y-90645414D01*
X148065600Y-90632800D01*
X148057434Y-90582224D01*
X148023036Y-90620185D01*
X148014800Y-90632800D01*
X147974869Y-90683377D01*
X147963701Y-90645370D01*
X147963233Y-90632800D01*
X147951484Y-90590832D01*
X147913113Y-90638779D01*
X147908533Y-90646568D01*
X147847157Y-90707091D01*
X147809059Y-90707430D01*
X147784131Y-90719333D01*
X147793851Y-90761420D01*
X147834095Y-90811573D01*
X147856769Y-90802128D01*
X147924038Y-90770567D01*
X148047595Y-90749356D01*
X148065600Y-90747960D01*
X148238068Y-90736268D01*
X148430725Y-90722850D01*
X148459300Y-90720824D01*
X148596163Y-90722276D01*
X148672351Y-90745687D01*
X148679210Y-90758033D01*
X148696255Y-90769136D01*
X148710759Y-90741351D01*
X148745543Y-90700837D01*
X148775879Y-90732911D01*
X148816014Y-90761694D01*
X148842068Y-90719168D01*
X148840079Y-90670112D01*
X148768221Y-90656769D01*
X148696737Y-90661474D01*
X148573561Y-90661301D01*
X148522667Y-90621887D01*
X148516907Y-90592065D01*
X148509340Y-90534330D01*
X148526708Y-90539138D01*
X148559781Y-90568463D01*
X148592353Y-90614293D01*
X148630691Y-90573559D01*
X148666338Y-90534737D01*
X148675200Y-90582000D01*
X148683365Y-90632575D01*
X148717763Y-90594614D01*
X148726000Y-90582000D01*
X148765817Y-90531424D01*
X148776457Y-90569385D01*
X148776800Y-90582000D01*
X148784965Y-90632575D01*
X148819363Y-90594614D01*
X148827600Y-90582000D01*
X148867417Y-90531424D01*
X148878057Y-90569385D01*
X148878400Y-90582000D01*
X148886565Y-90632575D01*
X148920963Y-90594614D01*
X148929200Y-90582000D01*
X148969992Y-90542884D01*
X148979222Y-90566383D01*
X149020727Y-90607196D01*
X149080531Y-90607605D01*
X149176175Y-90612675D01*
X149211041Y-90636751D01*
X149272368Y-90662548D01*
X149288668Y-90655808D01*
X149343319Y-90669369D01*
X149368428Y-90710039D01*
X149403530Y-90763539D01*
X149443491Y-90725959D01*
X149479223Y-90684669D01*
X149487222Y-90724698D01*
X149514515Y-90767998D01*
X149535324Y-90761948D01*
X149595039Y-90776671D01*
X149662324Y-90846453D01*
X149722101Y-90912876D01*
X149742772Y-90885836D01*
X149742777Y-90885403D01*
X149752791Y-90838664D01*
X149786557Y-90878438D01*
X149842034Y-90936179D01*
X149861979Y-90941938D01*
X149900266Y-90950972D01*
X149898521Y-91013127D01*
X149883861Y-91074012D01*
X149835663Y-91155776D01*
X149747615Y-91156987D01*
X149661661Y-91101387D01*
X149639622Y-91045975D01*
X149631584Y-90991037D01*
X149596665Y-91028386D01*
X149589600Y-91039200D01*
X149549370Y-91083040D01*
X149539577Y-91048901D01*
X149512302Y-91005589D01*
X149491510Y-91011630D01*
X149426266Y-91005260D01*
X149412312Y-90989228D01*
X149340181Y-90945843D01*
X149281801Y-90937600D01*
X149200876Y-90916989D01*
X149183200Y-90889716D01*
X149141910Y-90859553D01*
X149079064Y-90861888D01*
X148977765Y-90841517D01*
X148929884Y-90770071D01*
X148899997Y-90718161D01*
X148962824Y-90718161D01*
X148970038Y-90752593D01*
X148993874Y-90825847D01*
X149017520Y-90802108D01*
X149035764Y-90757079D01*
X149066438Y-90687355D01*
X149077944Y-90713582D01*
X149081600Y-90759800D01*
X149089961Y-90831840D01*
X149109434Y-90807452D01*
X149127435Y-90762520D01*
X149158553Y-90697856D01*
X149180622Y-90723601D01*
X149197034Y-90781818D01*
X149247382Y-90868557D01*
X149302965Y-90871205D01*
X149382124Y-90882128D01*
X149405068Y-90912977D01*
X149470490Y-90961917D01*
X149538800Y-90963000D01*
X149640652Y-90978254D01*
X149675396Y-91020489D01*
X149709340Y-91070016D01*
X149748291Y-91030759D01*
X149782862Y-90996672D01*
X149792022Y-91051900D01*
X149804248Y-91132195D01*
X149832356Y-91115359D01*
X149857263Y-91043235D01*
X149856509Y-90970099D01*
X149787193Y-90964079D01*
X149685407Y-90938604D01*
X149640400Y-90886800D01*
X149553336Y-90813614D01*
X149488599Y-90810484D01*
X149379652Y-90788268D01*
X149332569Y-90744028D01*
X149292189Y-90686156D01*
X149295264Y-90715825D01*
X149304769Y-90747100D01*
X149307603Y-90820701D01*
X149286930Y-90836000D01*
X149239856Y-90794003D01*
X149224829Y-90749697D01*
X149164116Y-90677908D01*
X149075608Y-90656310D01*
X148981521Y-90664507D01*
X148962824Y-90718161D01*
X148899997Y-90718161D01*
X148895469Y-90710298D01*
X148881621Y-90734400D01*
X148861759Y-90771376D01*
X148794501Y-90794914D01*
X148662678Y-90807885D01*
X148449122Y-90813156D01*
X148408501Y-90813463D01*
X148191506Y-90818790D01*
X148007049Y-90830634D01*
X147883170Y-90846877D01*
X147854143Y-90855293D01*
X147776730Y-90858902D01*
X147745736Y-90801630D01*
X147726614Y-90755602D01*
X147713834Y-90805250D01*
X147710829Y-90836000D01*
X147699872Y-90963000D01*
X147659200Y-90836000D01*
X147629539Y-90756924D01*
X147616250Y-90771343D01*
X147613036Y-90810600D01*
X147568777Y-90895619D01*
X147464133Y-90985987D01*
X147328802Y-91065919D01*
X147192485Y-91119626D01*
X147084880Y-91131323D01*
X147046544Y-91111717D01*
X147010074Y-91021838D01*
X147010331Y-91019042D01*
X147057123Y-91019042D01*
X147087559Y-91096963D01*
X147109936Y-91107122D01*
X147110527Y-91115400D01*
X147112767Y-91108407D01*
X147139735Y-91120650D01*
X147150841Y-91115621D01*
X147189897Y-91044939D01*
X147196936Y-90972701D01*
X147195672Y-90958766D01*
X147256810Y-90958766D01*
X147266150Y-91024655D01*
X147283491Y-91025441D01*
X147295618Y-90957451D01*
X147287502Y-90928075D01*
X147264945Y-90908832D01*
X147256810Y-90958766D01*
X147195672Y-90958766D01*
X147190446Y-90901155D01*
X147174024Y-90920529D01*
X147151200Y-90988400D01*
X147112767Y-91108407D01*
X147109936Y-91107122D01*
X147101453Y-90988400D01*
X147086750Y-90916838D01*
X147066197Y-90926575D01*
X147057123Y-91019042D01*
X147010331Y-91019042D01*
X147018648Y-90928899D01*
X147064400Y-90875228D01*
X147090717Y-90874100D01*
X147146770Y-90847242D01*
X147151977Y-90823300D01*
X147169540Y-90796855D01*
X147202000Y-90836000D01*
X147240843Y-90879327D01*
X147254928Y-90829880D01*
X147256032Y-90810600D01*
X147266317Y-90760207D01*
X147292828Y-90800301D01*
X147313759Y-90854448D01*
X147358345Y-90946798D01*
X147397275Y-90948156D01*
X147410571Y-90930648D01*
X147419223Y-90906157D01*
X147486461Y-90906157D01*
X147505405Y-90913061D01*
X147549830Y-90848443D01*
X147572130Y-90785921D01*
X147577938Y-90715042D01*
X147561360Y-90709000D01*
X147659200Y-90709000D01*
X147684600Y-90734400D01*
X147710000Y-90709000D01*
X147684600Y-90683600D01*
X147659200Y-90709000D01*
X147561360Y-90709000D01*
X147558994Y-90708138D01*
X147514569Y-90772756D01*
X147492269Y-90835278D01*
X147486461Y-90906157D01*
X147419223Y-90906157D01*
X147449047Y-90821736D01*
X147451651Y-90785200D01*
X147436851Y-90753637D01*
X147402060Y-90810600D01*
X147366696Y-90883049D01*
X147361882Y-90863218D01*
X147368226Y-90810600D01*
X147399916Y-90727510D01*
X147431295Y-90708222D01*
X147516918Y-90682539D01*
X147544900Y-90667124D01*
X147600962Y-90653157D01*
X147609177Y-90667901D01*
X147631157Y-90668694D01*
X147659200Y-90632800D01*
X147699017Y-90582224D01*
X147709657Y-90620185D01*
X147710000Y-90632800D01*
X147718165Y-90683375D01*
X147752563Y-90645414D01*
X147760800Y-90632800D01*
X147800617Y-90582224D01*
X147811257Y-90620185D01*
X147811600Y-90632800D01*
X147819660Y-90683391D01*
X147853548Y-90644981D01*
X147861324Y-90632800D01*
X147943155Y-90576111D01*
X148063747Y-90550250D01*
X148176130Y-90542450D01*
X148230631Y-90532570D01*
X148230700Y-90532510D01*
X148311298Y-90507439D01*
X148426841Y-90511492D01*
X148426841Y-90511492D01*
G37*
X148426841Y-90511492D02*
X148509265Y-90534309D01*
X148493267Y-90574041D01*
X148487782Y-90594700D01*
X148430241Y-90669909D01*
X148345322Y-90676298D01*
X148294559Y-90633381D01*
X148302736Y-90604514D01*
X148342361Y-90613416D01*
X148409310Y-90614605D01*
X148421200Y-90591930D01*
X148380550Y-90555367D01*
X148332300Y-90555143D01*
X148263336Y-90593933D01*
X148256100Y-90626848D01*
X148234629Y-90680149D01*
X148218000Y-90683600D01*
X148170275Y-90643417D01*
X148166422Y-90620100D01*
X148148859Y-90593655D01*
X148116400Y-90632800D01*
X148076582Y-90683375D01*
X148065942Y-90645414D01*
X148065600Y-90632800D01*
X148057434Y-90582224D01*
X148023036Y-90620185D01*
X148014800Y-90632800D01*
X147974869Y-90683377D01*
X147963701Y-90645370D01*
X147963233Y-90632800D01*
X147951484Y-90590832D01*
X147913113Y-90638779D01*
X147908533Y-90646568D01*
X147847157Y-90707091D01*
X147809059Y-90707430D01*
X147784131Y-90719333D01*
X147793851Y-90761420D01*
X147834095Y-90811573D01*
X147856769Y-90802128D01*
X147924038Y-90770567D01*
X148047595Y-90749356D01*
X148065600Y-90747960D01*
X148238068Y-90736268D01*
X148430725Y-90722850D01*
X148459300Y-90720824D01*
X148596163Y-90722276D01*
X148672351Y-90745687D01*
X148679210Y-90758033D01*
X148696255Y-90769136D01*
X148710759Y-90741351D01*
X148745543Y-90700837D01*
X148775879Y-90732911D01*
X148816014Y-90761694D01*
X148842068Y-90719168D01*
X148840079Y-90670112D01*
X148768221Y-90656769D01*
X148696737Y-90661474D01*
X148573561Y-90661301D01*
X148522667Y-90621887D01*
X148516907Y-90592065D01*
X148509340Y-90534330D01*
X148526708Y-90539138D01*
X148559781Y-90568463D01*
X148592353Y-90614293D01*
X148630691Y-90573559D01*
X148666338Y-90534737D01*
X148675200Y-90582000D01*
X148683365Y-90632575D01*
X148717763Y-90594614D01*
X148726000Y-90582000D01*
X148765817Y-90531424D01*
X148776457Y-90569385D01*
X148776800Y-90582000D01*
X148784965Y-90632575D01*
X148819363Y-90594614D01*
X148827600Y-90582000D01*
X148867417Y-90531424D01*
X148878057Y-90569385D01*
X148878400Y-90582000D01*
X148886565Y-90632575D01*
X148920963Y-90594614D01*
X148929200Y-90582000D01*
X148969992Y-90542884D01*
X148979222Y-90566383D01*
X149020727Y-90607196D01*
X149080531Y-90607605D01*
X149176175Y-90612675D01*
X149211041Y-90636751D01*
X149272368Y-90662548D01*
X149288668Y-90655808D01*
X149343319Y-90669369D01*
X149368428Y-90710039D01*
X149403530Y-90763539D01*
X149443491Y-90725959D01*
X149479223Y-90684669D01*
X149487222Y-90724698D01*
X149514515Y-90767998D01*
X149535324Y-90761948D01*
X149595039Y-90776671D01*
X149662324Y-90846453D01*
X149722101Y-90912876D01*
X149742772Y-90885836D01*
X149742777Y-90885403D01*
X149752791Y-90838664D01*
X149786557Y-90878438D01*
X149842034Y-90936179D01*
X149861979Y-90941938D01*
X149900266Y-90950972D01*
X149898521Y-91013127D01*
X149883861Y-91074012D01*
X149835663Y-91155776D01*
X149747615Y-91156987D01*
X149661661Y-91101387D01*
X149639622Y-91045975D01*
X149631584Y-90991037D01*
X149596665Y-91028386D01*
X149589600Y-91039200D01*
X149549370Y-91083040D01*
X149539577Y-91048901D01*
X149512302Y-91005589D01*
X149491510Y-91011630D01*
X149426266Y-91005260D01*
X149412312Y-90989228D01*
X149340181Y-90945843D01*
X149281801Y-90937600D01*
X149200876Y-90916989D01*
X149183200Y-90889716D01*
X149141910Y-90859553D01*
X149079064Y-90861888D01*
X148977765Y-90841517D01*
X148929884Y-90770071D01*
X148899997Y-90718161D01*
X148962824Y-90718161D01*
X148970038Y-90752593D01*
X148993874Y-90825847D01*
X149017520Y-90802108D01*
X149035764Y-90757079D01*
X149066438Y-90687355D01*
X149077944Y-90713582D01*
X149081600Y-90759800D01*
X149089961Y-90831840D01*
X149109434Y-90807452D01*
X149127435Y-90762520D01*
X149158553Y-90697856D01*
X149180622Y-90723601D01*
X149197034Y-90781818D01*
X149247382Y-90868557D01*
X149302965Y-90871205D01*
X149382124Y-90882128D01*
X149405068Y-90912977D01*
X149470490Y-90961917D01*
X149538800Y-90963000D01*
X149640652Y-90978254D01*
X149675396Y-91020489D01*
X149709340Y-91070016D01*
X149748291Y-91030759D01*
X149782862Y-90996672D01*
X149792022Y-91051900D01*
X149804248Y-91132195D01*
X149832356Y-91115359D01*
X149857263Y-91043235D01*
X149856509Y-90970099D01*
X149787193Y-90964079D01*
X149685407Y-90938604D01*
X149640400Y-90886800D01*
X149553336Y-90813614D01*
X149488599Y-90810484D01*
X149379652Y-90788268D01*
X149332569Y-90744028D01*
X149292189Y-90686156D01*
X149295264Y-90715825D01*
X149304769Y-90747100D01*
X149307603Y-90820701D01*
X149286930Y-90836000D01*
X149239856Y-90794003D01*
X149224829Y-90749697D01*
X149164116Y-90677908D01*
X149075608Y-90656310D01*
X148981521Y-90664507D01*
X148962824Y-90718161D01*
X148899997Y-90718161D01*
X148895469Y-90710298D01*
X148881621Y-90734400D01*
X148861759Y-90771376D01*
X148794501Y-90794914D01*
X148662678Y-90807885D01*
X148449122Y-90813156D01*
X148408501Y-90813463D01*
X148191506Y-90818790D01*
X148007049Y-90830634D01*
X147883170Y-90846877D01*
X147854143Y-90855293D01*
X147776730Y-90858902D01*
X147745736Y-90801630D01*
X147726614Y-90755602D01*
X147713834Y-90805250D01*
X147710829Y-90836000D01*
X147699872Y-90963000D01*
X147659200Y-90836000D01*
X147629539Y-90756924D01*
X147616250Y-90771343D01*
X147613036Y-90810600D01*
X147568777Y-90895619D01*
X147464133Y-90985987D01*
X147328802Y-91065919D01*
X147192485Y-91119626D01*
X147084880Y-91131323D01*
X147046544Y-91111717D01*
X147010074Y-91021838D01*
X147010331Y-91019042D01*
X147057123Y-91019042D01*
X147087559Y-91096963D01*
X147109936Y-91107122D01*
X147110527Y-91115400D01*
X147112767Y-91108407D01*
X147139735Y-91120650D01*
X147150841Y-91115621D01*
X147189897Y-91044939D01*
X147196936Y-90972701D01*
X147195672Y-90958766D01*
X147256810Y-90958766D01*
X147266150Y-91024655D01*
X147283491Y-91025441D01*
X147295618Y-90957451D01*
X147287502Y-90928075D01*
X147264945Y-90908832D01*
X147256810Y-90958766D01*
X147195672Y-90958766D01*
X147190446Y-90901155D01*
X147174024Y-90920529D01*
X147151200Y-90988400D01*
X147112767Y-91108407D01*
X147109936Y-91107122D01*
X147101453Y-90988400D01*
X147086750Y-90916838D01*
X147066197Y-90926575D01*
X147057123Y-91019042D01*
X147010331Y-91019042D01*
X147018648Y-90928899D01*
X147064400Y-90875228D01*
X147090717Y-90874100D01*
X147146770Y-90847242D01*
X147151977Y-90823300D01*
X147169540Y-90796855D01*
X147202000Y-90836000D01*
X147240843Y-90879327D01*
X147254928Y-90829880D01*
X147256032Y-90810600D01*
X147266317Y-90760207D01*
X147292828Y-90800301D01*
X147313759Y-90854448D01*
X147358345Y-90946798D01*
X147397275Y-90948156D01*
X147410571Y-90930648D01*
X147419223Y-90906157D01*
X147486461Y-90906157D01*
X147505405Y-90913061D01*
X147549830Y-90848443D01*
X147572130Y-90785921D01*
X147577938Y-90715042D01*
X147561360Y-90709000D01*
X147659200Y-90709000D01*
X147684600Y-90734400D01*
X147710000Y-90709000D01*
X147684600Y-90683600D01*
X147659200Y-90709000D01*
X147561360Y-90709000D01*
X147558994Y-90708138D01*
X147514569Y-90772756D01*
X147492269Y-90835278D01*
X147486461Y-90906157D01*
X147419223Y-90906157D01*
X147449047Y-90821736D01*
X147451651Y-90785200D01*
X147436851Y-90753637D01*
X147402060Y-90810600D01*
X147366696Y-90883049D01*
X147361882Y-90863218D01*
X147368226Y-90810600D01*
X147399916Y-90727510D01*
X147431295Y-90708222D01*
X147516918Y-90682539D01*
X147544900Y-90667124D01*
X147600962Y-90653157D01*
X147609177Y-90667901D01*
X147631157Y-90668694D01*
X147659200Y-90632800D01*
X147699017Y-90582224D01*
X147709657Y-90620185D01*
X147710000Y-90632800D01*
X147718165Y-90683375D01*
X147752563Y-90645414D01*
X147760800Y-90632800D01*
X147800617Y-90582224D01*
X147811257Y-90620185D01*
X147811600Y-90632800D01*
X147819660Y-90683391D01*
X147853548Y-90644981D01*
X147861324Y-90632800D01*
X147943155Y-90576111D01*
X148063747Y-90550250D01*
X148176130Y-90542450D01*
X148230631Y-90532570D01*
X148230700Y-90532510D01*
X148311298Y-90507439D01*
X148426841Y-90511492D01*
G36*
X149284800Y-95687400D02*
X149259400Y-95712800D01*
X149234000Y-95687400D01*
X149259400Y-95662000D01*
X149284800Y-95687400D01*
X149284800Y-95687400D01*
G37*
X149284800Y-95687400D02*
X149259400Y-95712800D01*
X149234000Y-95687400D01*
X149259400Y-95662000D01*
X149284800Y-95687400D01*
G36*
X149521279Y-95635606D02*
X149516584Y-95650348D01*
X149442928Y-95685422D01*
X149405674Y-95693525D01*
X149353120Y-95688393D01*
X149357815Y-95673651D01*
X149431471Y-95638577D01*
X149468725Y-95630474D01*
X149521279Y-95635606D01*
X149521279Y-95635606D01*
G37*
X149521279Y-95635606D02*
X149516584Y-95650348D01*
X149442928Y-95685422D01*
X149405674Y-95693525D01*
X149353120Y-95688393D01*
X149357815Y-95673651D01*
X149431471Y-95638577D01*
X149468725Y-95630474D01*
X149521279Y-95635606D01*
G36*
X149725066Y-95475733D02*
X149731146Y-95536021D01*
X149725066Y-95543466D01*
X149694866Y-95536493D01*
X149691200Y-95509600D01*
X149709786Y-95467785D01*
X149725066Y-95475733D01*
X149725066Y-95475733D01*
G37*
X149725066Y-95475733D02*
X149731146Y-95536021D01*
X149725066Y-95543466D01*
X149694866Y-95536493D01*
X149691200Y-95509600D01*
X149709786Y-95467785D01*
X149725066Y-95475733D01*
G36*
X147151200Y-95433400D02*
X147125800Y-95458800D01*
X147100400Y-95433400D01*
X147125800Y-95408000D01*
X147151200Y-95433400D01*
X147151200Y-95433400D01*
G37*
X147151200Y-95433400D02*
X147125800Y-95458800D01*
X147100400Y-95433400D01*
X147125800Y-95408000D01*
X147151200Y-95433400D01*
G36*
X147456000Y-95027000D02*
X147430600Y-95052400D01*
X147405200Y-95027000D01*
X147430600Y-95001600D01*
X147456000Y-95027000D01*
X147456000Y-95027000D01*
G37*
X147456000Y-95027000D02*
X147430600Y-95052400D01*
X147405200Y-95027000D01*
X147430600Y-95001600D01*
X147456000Y-95027000D01*
G36*
X149471066Y-91462533D02*
X149477146Y-91522821D01*
X149471066Y-91530266D01*
X149440866Y-91523293D01*
X149437200Y-91496400D01*
X149455786Y-91454585D01*
X149471066Y-91462533D01*
X149471066Y-91462533D01*
G37*
X149471066Y-91462533D02*
X149477146Y-91522821D01*
X149471066Y-91530266D01*
X149440866Y-91523293D01*
X149437200Y-91496400D01*
X149455786Y-91454585D01*
X149471066Y-91462533D01*
G36*
X147456000Y-91471000D02*
X147430600Y-91496400D01*
X147405200Y-91471000D01*
X147430600Y-91445600D01*
X147456000Y-91471000D01*
X147456000Y-91471000D01*
G37*
X147456000Y-91471000D02*
X147430600Y-91496400D01*
X147405200Y-91471000D01*
X147430600Y-91445600D01*
X147456000Y-91471000D01*
G36*
X149471066Y-90852933D02*
X149477146Y-90913221D01*
X149471066Y-90920666D01*
X149440866Y-90913693D01*
X149437200Y-90886800D01*
X149455786Y-90844985D01*
X149471066Y-90852933D01*
X149471066Y-90852933D01*
G37*
X149471066Y-90852933D02*
X149477146Y-90913221D01*
X149471066Y-90920666D01*
X149440866Y-90913693D01*
X149437200Y-90886800D01*
X149455786Y-90844985D01*
X149471066Y-90852933D01*
G36*
X149572666Y-90852933D02*
X149578746Y-90913221D01*
X149572666Y-90920666D01*
X149542466Y-90913693D01*
X149538800Y-90886800D01*
X149557386Y-90844985D01*
X149572666Y-90852933D01*
X149572666Y-90852933D01*
G37*
X149572666Y-90852933D02*
X149578746Y-90913221D01*
X149572666Y-90920666D01*
X149542466Y-90913693D01*
X149538800Y-90886800D01*
X149557386Y-90844985D01*
X149572666Y-90852933D01*
G36*
X147964000Y-90709000D02*
X147938600Y-90734400D01*
X147913200Y-90709000D01*
X147938600Y-90683600D01*
X147964000Y-90709000D01*
X147964000Y-90709000D01*
G37*
X147964000Y-90709000D02*
X147938600Y-90734400D01*
X147913200Y-90709000D01*
X147938600Y-90683600D01*
X147964000Y-90709000D01*
G36*
X148065600Y-90709000D02*
X148040200Y-90734400D01*
X148014800Y-90709000D01*
X148040200Y-90683600D01*
X148065600Y-90709000D01*
X148065600Y-90709000D01*
G37*
X148065600Y-90709000D02*
X148040200Y-90734400D01*
X148014800Y-90709000D01*
X148040200Y-90683600D01*
X148065600Y-90709000D01*
G36*
X148167200Y-90709000D02*
X148141800Y-90734400D01*
X148116400Y-90709000D01*
X148141800Y-90683600D01*
X148167200Y-90709000D01*
X148167200Y-90709000D01*
G37*
X148167200Y-90709000D02*
X148141800Y-90734400D01*
X148116400Y-90709000D01*
X148141800Y-90683600D01*
X148167200Y-90709000D01*
D13*
G04 #@! TO.C,J8*
X168214500Y-105767000D02*
G75*
G03X168214500Y-105767000I-700000J0D01*
G01*
G04 #@! TO.C,J7*
X156910000Y-110236000D02*
G75*
G03X156910000Y-110236000I-700000J0D01*
G01*
G04 #@! TO.C,J6*
D14*
X151558666Y-113752380D02*
X151558666Y-114466666D01*
X151511047Y-114609523D01*
X151415809Y-114704761D01*
X151272952Y-114752380D01*
X151177714Y-114752380D01*
X152463428Y-113752380D02*
X152272952Y-113752380D01*
X152177714Y-113800000D01*
X152130095Y-113847619D01*
X152034857Y-113990476D01*
X151987238Y-114180952D01*
X151987238Y-114561904D01*
X152034857Y-114657142D01*
X152082476Y-114704761D01*
X152177714Y-114752380D01*
X152368190Y-114752380D01*
X152463428Y-114704761D01*
X152511047Y-114657142D01*
X152558666Y-114561904D01*
X152558666Y-114323809D01*
X152511047Y-114228571D01*
X152463428Y-114180952D01*
X152368190Y-114133333D01*
X152177714Y-114133333D01*
X152082476Y-114180952D01*
X152034857Y-114228571D01*
X151987238Y-114323809D01*
G04 #@! TO.C,U1*
X127238095Y-92452380D02*
X127238095Y-93261904D01*
X127285714Y-93357142D01*
X127333333Y-93404761D01*
X127428571Y-93452380D01*
X127619047Y-93452380D01*
X127714285Y-93404761D01*
X127761904Y-93357142D01*
X127809523Y-93261904D01*
X127809523Y-92452380D01*
X128809523Y-93452380D02*
X128238095Y-93452380D01*
X128523809Y-93452380D02*
X128523809Y-92452380D01*
X128428571Y-92595238D01*
X128333333Y-92690476D01*
X128238095Y-92738095D01*
X129785714Y-104452380D02*
X129452380Y-103976190D01*
X129214285Y-104452380D02*
X129214285Y-103452380D01*
X129595238Y-103452380D01*
X129690476Y-103500000D01*
X129738095Y-103547619D01*
X129785714Y-103642857D01*
X129785714Y-103785714D01*
X129738095Y-103880952D01*
X129690476Y-103928571D01*
X129595238Y-103976190D01*
X129214285Y-103976190D01*
X130547619Y-103928571D02*
X130214285Y-103928571D01*
X130214285Y-104452380D02*
X130214285Y-103452380D01*
X130690476Y-103452380D01*
X131071428Y-104452380D02*
X131071428Y-103452380D01*
X131404761Y-104166666D01*
X131738095Y-103452380D01*
X131738095Y-104452380D01*
X132261904Y-104452380D02*
X132452380Y-104452380D01*
X132547619Y-104404761D01*
X132595238Y-104357142D01*
X132690476Y-104214285D01*
X132738095Y-104023809D01*
X132738095Y-103642857D01*
X132690476Y-103547619D01*
X132642857Y-103500000D01*
X132547619Y-103452380D01*
X132357142Y-103452380D01*
X132261904Y-103500000D01*
X132214285Y-103547619D01*
X132166666Y-103642857D01*
X132166666Y-103880952D01*
X132214285Y-103976190D01*
X132261904Y-104023809D01*
X132357142Y-104071428D01*
X132547619Y-104071428D01*
X132642857Y-104023809D01*
X132690476Y-103976190D01*
X132738095Y-103880952D01*
X133642857Y-103452380D02*
X133166666Y-103452380D01*
X133119047Y-103928571D01*
X133166666Y-103880952D01*
X133261904Y-103833333D01*
X133500000Y-103833333D01*
X133595238Y-103880952D01*
X133642857Y-103928571D01*
X133690476Y-104023809D01*
X133690476Y-104261904D01*
X133642857Y-104357142D01*
X133595238Y-104404761D01*
X133500000Y-104452380D01*
X133261904Y-104452380D01*
X133166666Y-104404761D01*
X133119047Y-104357142D01*
X134023809Y-103452380D02*
X134261904Y-104452380D01*
X134452380Y-103738095D01*
X134642857Y-104452380D01*
X134880952Y-103452380D01*
X135261904Y-104071428D02*
X136023809Y-104071428D01*
X136642857Y-103880952D02*
X136547619Y-103833333D01*
X136500000Y-103785714D01*
X136452380Y-103690476D01*
X136452380Y-103642857D01*
X136500000Y-103547619D01*
X136547619Y-103500000D01*
X136642857Y-103452380D01*
X136833333Y-103452380D01*
X136928571Y-103500000D01*
X136976190Y-103547619D01*
X137023809Y-103642857D01*
X137023809Y-103690476D01*
X136976190Y-103785714D01*
X136928571Y-103833333D01*
X136833333Y-103880952D01*
X136642857Y-103880952D01*
X136547619Y-103928571D01*
X136500000Y-103976190D01*
X136452380Y-104071428D01*
X136452380Y-104261904D01*
X136500000Y-104357142D01*
X136547619Y-104404761D01*
X136642857Y-104452380D01*
X136833333Y-104452380D01*
X136928571Y-104404761D01*
X136976190Y-104357142D01*
X137023809Y-104261904D01*
X137023809Y-104071428D01*
X136976190Y-103976190D01*
X136928571Y-103928571D01*
X136833333Y-103880952D01*
X137880952Y-103452380D02*
X137690476Y-103452380D01*
X137595238Y-103500000D01*
X137547619Y-103547619D01*
X137452380Y-103690476D01*
X137404761Y-103880952D01*
X137404761Y-104261904D01*
X137452380Y-104357142D01*
X137500000Y-104404761D01*
X137595238Y-104452380D01*
X137785714Y-104452380D01*
X137880952Y-104404761D01*
X137928571Y-104357142D01*
X137976190Y-104261904D01*
X137976190Y-104023809D01*
X137928571Y-103928571D01*
X137880952Y-103880952D01*
X137785714Y-103833333D01*
X137595238Y-103833333D01*
X137500000Y-103880952D01*
X137452380Y-103928571D01*
X137404761Y-104023809D01*
X138547619Y-103880952D02*
X138452380Y-103833333D01*
X138404761Y-103785714D01*
X138357142Y-103690476D01*
X138357142Y-103642857D01*
X138404761Y-103547619D01*
X138452380Y-103500000D01*
X138547619Y-103452380D01*
X138738095Y-103452380D01*
X138833333Y-103500000D01*
X138880952Y-103547619D01*
X138928571Y-103642857D01*
X138928571Y-103690476D01*
X138880952Y-103785714D01*
X138833333Y-103833333D01*
X138738095Y-103880952D01*
X138547619Y-103880952D01*
X138452380Y-103928571D01*
X138404761Y-103976190D01*
X138357142Y-104071428D01*
X138357142Y-104261904D01*
X138404761Y-104357142D01*
X138452380Y-104404761D01*
X138547619Y-104452380D01*
X138738095Y-104452380D01*
X138833333Y-104404761D01*
X138880952Y-104357142D01*
X138928571Y-104261904D01*
X138928571Y-104071428D01*
X138880952Y-103976190D01*
X138833333Y-103928571D01*
X138738095Y-103880952D01*
X139309523Y-104404761D02*
X139452380Y-104452380D01*
X139690476Y-104452380D01*
X139785714Y-104404761D01*
X139833333Y-104357142D01*
X139880952Y-104261904D01*
X139880952Y-104166666D01*
X139833333Y-104071428D01*
X139785714Y-104023809D01*
X139690476Y-103976190D01*
X139500000Y-103928571D01*
X139404761Y-103880952D01*
X139357142Y-103833333D01*
X139309523Y-103738095D01*
X139309523Y-103642857D01*
X139357142Y-103547619D01*
X139404761Y-103500000D01*
X139500000Y-103452380D01*
X139738095Y-103452380D01*
X139880952Y-103500000D01*
X140261904Y-103547619D02*
X140309523Y-103500000D01*
X140404761Y-103452380D01*
X140642857Y-103452380D01*
X140738095Y-103500000D01*
X140785714Y-103547619D01*
X140833333Y-103642857D01*
X140833333Y-103738095D01*
X140785714Y-103880952D01*
X140214285Y-104452380D01*
X140833333Y-104452380D01*
G04 #@! TO.C,C15*
X163886393Y-101411968D02*
X163819049Y-101411968D01*
X163684362Y-101344624D01*
X163617019Y-101277281D01*
X163549675Y-101142594D01*
X163549675Y-101007907D01*
X163583347Y-100906892D01*
X163684362Y-100738533D01*
X163785377Y-100637518D01*
X163953736Y-100536502D01*
X164054751Y-100502831D01*
X164189438Y-100502831D01*
X164324125Y-100570174D01*
X164391469Y-100637518D01*
X164458812Y-100772205D01*
X164458812Y-100839548D01*
X164492484Y-102152747D02*
X164088423Y-101748686D01*
X164290454Y-101950716D02*
X164997561Y-101243609D01*
X164829202Y-101277281D01*
X164694515Y-101277281D01*
X164593500Y-101243609D01*
X165839354Y-102085403D02*
X165502637Y-101748686D01*
X165132248Y-102051731D01*
X165199591Y-102051731D01*
X165300606Y-102085403D01*
X165468965Y-102253762D01*
X165502637Y-102354777D01*
X165502637Y-102422121D01*
X165468965Y-102523136D01*
X165300606Y-102691495D01*
X165199591Y-102725166D01*
X165132248Y-102725166D01*
X165031232Y-102691495D01*
X164862874Y-102523136D01*
X164829202Y-102422121D01*
X164829202Y-102354777D01*
G04 #@! TO.C,C1*
X139985333Y-89059142D02*
X139937714Y-89106761D01*
X139794857Y-89154380D01*
X139699619Y-89154380D01*
X139556761Y-89106761D01*
X139461523Y-89011523D01*
X139413904Y-88916285D01*
X139366285Y-88725809D01*
X139366285Y-88582952D01*
X139413904Y-88392476D01*
X139461523Y-88297238D01*
X139556761Y-88202000D01*
X139699619Y-88154380D01*
X139794857Y-88154380D01*
X139937714Y-88202000D01*
X139985333Y-88249619D01*
X140937714Y-89154380D02*
X140366285Y-89154380D01*
X140652000Y-89154380D02*
X140652000Y-88154380D01*
X140556761Y-88297238D01*
X140461523Y-88392476D01*
X140366285Y-88440095D01*
G04 #@! TO.C,C2*
X130881333Y-88911142D02*
X130833714Y-88958761D01*
X130690857Y-89006380D01*
X130595619Y-89006380D01*
X130452761Y-88958761D01*
X130357523Y-88863523D01*
X130309904Y-88768285D01*
X130262285Y-88577809D01*
X130262285Y-88434952D01*
X130309904Y-88244476D01*
X130357523Y-88149238D01*
X130452761Y-88054000D01*
X130595619Y-88006380D01*
X130690857Y-88006380D01*
X130833714Y-88054000D01*
X130881333Y-88101619D01*
X131262285Y-88101619D02*
X131309904Y-88054000D01*
X131405142Y-88006380D01*
X131643238Y-88006380D01*
X131738476Y-88054000D01*
X131786095Y-88101619D01*
X131833714Y-88196857D01*
X131833714Y-88292095D01*
X131786095Y-88434952D01*
X131214666Y-89006380D01*
X131833714Y-89006380D01*
G04 #@! TO.C,L1*
X134133333Y-90552380D02*
X133657142Y-90552380D01*
X133657142Y-89552380D01*
X134990476Y-90552380D02*
X134419047Y-90552380D01*
X134704761Y-90552380D02*
X134704761Y-89552380D01*
X134609523Y-89695238D01*
X134514285Y-89790476D01*
X134419047Y-89838095D01*
G04 #@! TO.C,C11*
X163632393Y-97665469D02*
X163565049Y-97665469D01*
X163430362Y-97598125D01*
X163363019Y-97530782D01*
X163295675Y-97396095D01*
X163295675Y-97261408D01*
X163329347Y-97160393D01*
X163430362Y-96992034D01*
X163531377Y-96891019D01*
X163699736Y-96790003D01*
X163800751Y-96756332D01*
X163935438Y-96756332D01*
X164070125Y-96823675D01*
X164137469Y-96891019D01*
X164204812Y-97025706D01*
X164204812Y-97093049D01*
X164238484Y-98406248D02*
X163834423Y-98002187D01*
X164036454Y-98204217D02*
X164743561Y-97497110D01*
X164575202Y-97530782D01*
X164440515Y-97530782D01*
X164339500Y-97497110D01*
X164911919Y-99079683D02*
X164507858Y-98675622D01*
X164709889Y-98877652D02*
X165416996Y-98170545D01*
X165248637Y-98204217D01*
X165113950Y-98204217D01*
X165012935Y-98170545D01*
G04 #@! TO.C,C12*
X151249142Y-110847142D02*
X151201523Y-110894761D01*
X151058666Y-110942380D01*
X150963428Y-110942380D01*
X150820571Y-110894761D01*
X150725333Y-110799523D01*
X150677714Y-110704285D01*
X150630095Y-110513809D01*
X150630095Y-110370952D01*
X150677714Y-110180476D01*
X150725333Y-110085238D01*
X150820571Y-109990000D01*
X150963428Y-109942380D01*
X151058666Y-109942380D01*
X151201523Y-109990000D01*
X151249142Y-110037619D01*
X152201523Y-110942380D02*
X151630095Y-110942380D01*
X151915809Y-110942380D02*
X151915809Y-109942380D01*
X151820571Y-110085238D01*
X151725333Y-110180476D01*
X151630095Y-110228095D01*
X152582476Y-110037619D02*
X152630095Y-109990000D01*
X152725333Y-109942380D01*
X152963428Y-109942380D01*
X153058666Y-109990000D01*
X153106285Y-110037619D01*
X153153904Y-110132857D01*
X153153904Y-110228095D01*
X153106285Y-110370952D01*
X152534857Y-110942380D01*
X153153904Y-110942380D01*
G04 #@! TO.C,C13*
X134659142Y-92157142D02*
X134611523Y-92204761D01*
X134468666Y-92252380D01*
X134373428Y-92252380D01*
X134230571Y-92204761D01*
X134135333Y-92109523D01*
X134087714Y-92014285D01*
X134040095Y-91823809D01*
X134040095Y-91680952D01*
X134087714Y-91490476D01*
X134135333Y-91395238D01*
X134230571Y-91300000D01*
X134373428Y-91252380D01*
X134468666Y-91252380D01*
X134611523Y-91300000D01*
X134659142Y-91347619D01*
X135611523Y-92252380D02*
X135040095Y-92252380D01*
X135325809Y-92252380D02*
X135325809Y-91252380D01*
X135230571Y-91395238D01*
X135135333Y-91490476D01*
X135040095Y-91538095D01*
X135944857Y-91252380D02*
X136563904Y-91252380D01*
X136230571Y-91633333D01*
X136373428Y-91633333D01*
X136468666Y-91680952D01*
X136516285Y-91728571D01*
X136563904Y-91823809D01*
X136563904Y-92061904D01*
X136516285Y-92157142D01*
X136468666Y-92204761D01*
X136373428Y-92252380D01*
X136087714Y-92252380D01*
X135992476Y-92204761D01*
X135944857Y-92157142D01*
G04 #@! TO.C,C14*
X134705142Y-93857142D02*
X134657523Y-93904761D01*
X134514666Y-93952380D01*
X134419428Y-93952380D01*
X134276571Y-93904761D01*
X134181333Y-93809523D01*
X134133714Y-93714285D01*
X134086095Y-93523809D01*
X134086095Y-93380952D01*
X134133714Y-93190476D01*
X134181333Y-93095238D01*
X134276571Y-93000000D01*
X134419428Y-92952380D01*
X134514666Y-92952380D01*
X134657523Y-93000000D01*
X134705142Y-93047619D01*
X135657523Y-93952380D02*
X135086095Y-93952380D01*
X135371809Y-93952380D02*
X135371809Y-92952380D01*
X135276571Y-93095238D01*
X135181333Y-93190476D01*
X135086095Y-93238095D01*
X136514666Y-93285714D02*
X136514666Y-93952380D01*
X136276571Y-92904761D02*
X136038476Y-93619047D01*
X136657523Y-93619047D01*
G04 #@! TO.C,C16*
X153089142Y-106816257D02*
X153136761Y-106863876D01*
X153184380Y-107006733D01*
X153184380Y-107101971D01*
X153136761Y-107244828D01*
X153041523Y-107340066D01*
X152946285Y-107387685D01*
X152755809Y-107435304D01*
X152612952Y-107435304D01*
X152422476Y-107387685D01*
X152327238Y-107340066D01*
X152232000Y-107244828D01*
X152184380Y-107101971D01*
X152184380Y-107006733D01*
X152232000Y-106863876D01*
X152279619Y-106816257D01*
X153184380Y-105863876D02*
X153184380Y-106435304D01*
X153184380Y-106149590D02*
X152184380Y-106149590D01*
X152327238Y-106244828D01*
X152422476Y-106340066D01*
X152470095Y-106435304D01*
X152184380Y-105006733D02*
X152184380Y-105197209D01*
X152232000Y-105292447D01*
X152279619Y-105340066D01*
X152422476Y-105435304D01*
X152612952Y-105482923D01*
X152993904Y-105482923D01*
X153089142Y-105435304D01*
X153136761Y-105387685D01*
X153184380Y-105292447D01*
X153184380Y-105101971D01*
X153136761Y-105006733D01*
X153089142Y-104959114D01*
X152993904Y-104911495D01*
X152755809Y-104911495D01*
X152660571Y-104959114D01*
X152612952Y-105006733D01*
X152565333Y-105101971D01*
X152565333Y-105292447D01*
X152612952Y-105387685D01*
X152660571Y-105435304D01*
X152755809Y-105482923D01*
G04 #@! TO.C,C18*
X153613142Y-97869142D02*
X153565523Y-97916761D01*
X153422666Y-97964380D01*
X153327428Y-97964380D01*
X153184571Y-97916761D01*
X153089333Y-97821523D01*
X153041714Y-97726285D01*
X152994095Y-97535809D01*
X152994095Y-97392952D01*
X153041714Y-97202476D01*
X153089333Y-97107238D01*
X153184571Y-97012000D01*
X153327428Y-96964380D01*
X153422666Y-96964380D01*
X153565523Y-97012000D01*
X153613142Y-97059619D01*
X154565523Y-97964380D02*
X153994095Y-97964380D01*
X154279809Y-97964380D02*
X154279809Y-96964380D01*
X154184571Y-97107238D01*
X154089333Y-97202476D01*
X153994095Y-97250095D01*
X155136952Y-97392952D02*
X155041714Y-97345333D01*
X154994095Y-97297714D01*
X154946476Y-97202476D01*
X154946476Y-97154857D01*
X154994095Y-97059619D01*
X155041714Y-97012000D01*
X155136952Y-96964380D01*
X155327428Y-96964380D01*
X155422666Y-97012000D01*
X155470285Y-97059619D01*
X155517904Y-97154857D01*
X155517904Y-97202476D01*
X155470285Y-97297714D01*
X155422666Y-97345333D01*
X155327428Y-97392952D01*
X155136952Y-97392952D01*
X155041714Y-97440571D01*
X154994095Y-97488190D01*
X154946476Y-97583428D01*
X154946476Y-97773904D01*
X154994095Y-97869142D01*
X155041714Y-97916761D01*
X155136952Y-97964380D01*
X155327428Y-97964380D01*
X155422666Y-97916761D01*
X155470285Y-97869142D01*
X155517904Y-97773904D01*
X155517904Y-97583428D01*
X155470285Y-97488190D01*
X155422666Y-97440571D01*
X155327428Y-97392952D01*
G04 #@! TO.C,C19*
X165003142Y-95868857D02*
X165050761Y-95916476D01*
X165098380Y-96059333D01*
X165098380Y-96154571D01*
X165050761Y-96297428D01*
X164955523Y-96392666D01*
X164860285Y-96440285D01*
X164669809Y-96487904D01*
X164526952Y-96487904D01*
X164336476Y-96440285D01*
X164241238Y-96392666D01*
X164146000Y-96297428D01*
X164098380Y-96154571D01*
X164098380Y-96059333D01*
X164146000Y-95916476D01*
X164193619Y-95868857D01*
X165098380Y-94916476D02*
X165098380Y-95487904D01*
X165098380Y-95202190D02*
X164098380Y-95202190D01*
X164241238Y-95297428D01*
X164336476Y-95392666D01*
X164384095Y-95487904D01*
X165098380Y-94440285D02*
X165098380Y-94249809D01*
X165050761Y-94154571D01*
X165003142Y-94106952D01*
X164860285Y-94011714D01*
X164669809Y-93964095D01*
X164288857Y-93964095D01*
X164193619Y-94011714D01*
X164146000Y-94059333D01*
X164098380Y-94154571D01*
X164098380Y-94345047D01*
X164146000Y-94440285D01*
X164193619Y-94487904D01*
X164288857Y-94535523D01*
X164526952Y-94535523D01*
X164622190Y-94487904D01*
X164669809Y-94440285D01*
X164717428Y-94345047D01*
X164717428Y-94154571D01*
X164669809Y-94059333D01*
X164622190Y-94011714D01*
X164526952Y-93964095D01*
G04 #@! TO.C,C20*
X167251893Y-110111469D02*
X167184549Y-110111469D01*
X167049862Y-110044125D01*
X166982519Y-109976782D01*
X166915175Y-109842095D01*
X166915175Y-109707408D01*
X166948847Y-109606393D01*
X167049862Y-109438034D01*
X167150877Y-109337019D01*
X167319236Y-109236003D01*
X167420251Y-109202332D01*
X167554938Y-109202332D01*
X167689625Y-109269675D01*
X167756969Y-109337019D01*
X167824312Y-109471706D01*
X167824312Y-109539049D01*
X168093687Y-109808423D02*
X168161030Y-109808423D01*
X168262045Y-109842095D01*
X168430404Y-110010454D01*
X168464076Y-110111469D01*
X168464076Y-110178812D01*
X168430404Y-110279828D01*
X168363061Y-110347171D01*
X168228374Y-110414515D01*
X167420251Y-110414515D01*
X167857984Y-110852248D01*
X169002824Y-110582874D02*
X169070167Y-110650217D01*
X169103839Y-110751232D01*
X169103839Y-110818576D01*
X169070167Y-110919591D01*
X168969152Y-111087950D01*
X168800793Y-111256309D01*
X168632435Y-111357324D01*
X168531419Y-111390996D01*
X168464076Y-111390996D01*
X168363061Y-111357324D01*
X168295717Y-111289980D01*
X168262045Y-111188965D01*
X168262045Y-111121622D01*
X168295717Y-111020606D01*
X168396732Y-110852248D01*
X168565091Y-110683889D01*
X168733450Y-110582874D01*
X168834465Y-110549202D01*
X168901809Y-110549202D01*
X169002824Y-110582874D01*
G04 #@! TO.C,J4*
X146123809Y-104852380D02*
X146123809Y-103852380D01*
X146552380Y-104804761D02*
X146695238Y-104852380D01*
X146933333Y-104852380D01*
X147028571Y-104804761D01*
X147076190Y-104757142D01*
X147123809Y-104661904D01*
X147123809Y-104566666D01*
X147076190Y-104471428D01*
X147028571Y-104423809D01*
X146933333Y-104376190D01*
X146742857Y-104328571D01*
X146647619Y-104280952D01*
X146600000Y-104233333D01*
X146552380Y-104138095D01*
X146552380Y-104042857D01*
X146600000Y-103947619D01*
X146647619Y-103900000D01*
X146742857Y-103852380D01*
X146980952Y-103852380D01*
X147123809Y-103900000D01*
X147552380Y-104852380D02*
X147552380Y-103852380D01*
X147933333Y-103852380D01*
X148028571Y-103900000D01*
X148076190Y-103947619D01*
X148123809Y-104042857D01*
X148123809Y-104185714D01*
X148076190Y-104280952D01*
X148028571Y-104328571D01*
X147933333Y-104376190D01*
X147552380Y-104376190D01*
G04 #@! TO.C,J5*
X169670666Y-110172380D02*
X169670666Y-110886666D01*
X169623047Y-111029523D01*
X169527809Y-111124761D01*
X169384952Y-111172380D01*
X169289714Y-111172380D01*
X170623047Y-110172380D02*
X170146857Y-110172380D01*
X170099238Y-110648571D01*
X170146857Y-110600952D01*
X170242095Y-110553333D01*
X170480190Y-110553333D01*
X170575428Y-110600952D01*
X170623047Y-110648571D01*
X170670666Y-110743809D01*
X170670666Y-110981904D01*
X170623047Y-111077142D01*
X170575428Y-111124761D01*
X170480190Y-111172380D01*
X170242095Y-111172380D01*
X170146857Y-111124761D01*
X170099238Y-111077142D01*
G04 #@! TO.C,R13*
X166105049Y-111067812D02*
X166206064Y-110495393D01*
X165700988Y-110663751D02*
X166408095Y-109956645D01*
X166677469Y-110226019D01*
X166711141Y-110327034D01*
X166711141Y-110394377D01*
X166677469Y-110495393D01*
X166576454Y-110596408D01*
X166475438Y-110630080D01*
X166408095Y-110630080D01*
X166307080Y-110596408D01*
X166037706Y-110327034D01*
X166778484Y-111741248D02*
X166374423Y-111337187D01*
X166576454Y-111539217D02*
X167283561Y-110832110D01*
X167115202Y-110865782D01*
X166980515Y-110865782D01*
X166879500Y-110832110D01*
X167721293Y-111269843D02*
X168159026Y-111707576D01*
X167653950Y-111741248D01*
X167754965Y-111842263D01*
X167788637Y-111943278D01*
X167788637Y-112010622D01*
X167754965Y-112111637D01*
X167586606Y-112279996D01*
X167485591Y-112313667D01*
X167418248Y-112313667D01*
X167317232Y-112279996D01*
X167115202Y-112077965D01*
X167081530Y-111976950D01*
X167081530Y-111909606D01*
G04 #@! TO.C,U4*
X154320626Y-100451522D02*
X154893046Y-101023942D01*
X154994061Y-101057614D01*
X155061405Y-101057614D01*
X155162420Y-101023942D01*
X155297107Y-100889255D01*
X155330779Y-100788240D01*
X155330779Y-100720896D01*
X155297107Y-100619881D01*
X154724687Y-100047461D01*
X155600153Y-99643400D02*
X156071557Y-100114805D01*
X155162420Y-99542385D02*
X155499138Y-100215820D01*
X155936870Y-99778087D01*
D16*
X155289199Y-104766066D02*
X155622532Y-104766066D01*
X155222532Y-104966066D02*
X155455865Y-104266066D01*
X155689199Y-104966066D01*
X155822532Y-104266066D02*
X156222532Y-104266066D01*
X156022532Y-104966066D02*
X156022532Y-104266066D01*
X156455865Y-104966066D02*
X156455865Y-104266066D01*
X156689199Y-104766066D01*
X156922532Y-104266066D01*
X156922532Y-104966066D01*
X157255865Y-104599400D02*
X157489199Y-104599400D01*
X157589199Y-104966066D02*
X157255865Y-104966066D01*
X157255865Y-104266066D01*
X157589199Y-104266066D01*
X158255865Y-104299400D02*
X158189199Y-104266066D01*
X158089199Y-104266066D01*
X157989199Y-104299400D01*
X157922532Y-104366066D01*
X157889199Y-104432733D01*
X157855865Y-104566066D01*
X157855865Y-104666066D01*
X157889199Y-104799400D01*
X157922532Y-104866066D01*
X157989199Y-104932733D01*
X158089199Y-104966066D01*
X158155865Y-104966066D01*
X158255865Y-104932733D01*
X158289199Y-104899400D01*
X158289199Y-104666066D01*
X158155865Y-104666066D01*
X158555865Y-104766066D02*
X158889199Y-104766066D01*
X158489199Y-104966066D02*
X158722532Y-104266066D01*
X158955865Y-104966066D01*
X159122532Y-104266066D02*
X159555865Y-104266066D01*
X159322532Y-104532733D01*
X159422532Y-104532733D01*
X159489199Y-104566066D01*
X159522532Y-104599400D01*
X159555865Y-104666066D01*
X159555865Y-104832733D01*
X159522532Y-104899400D01*
X159489199Y-104932733D01*
X159422532Y-104966066D01*
X159222532Y-104966066D01*
X159155865Y-104932733D01*
X159122532Y-104899400D01*
X159822532Y-104332733D02*
X159855865Y-104299400D01*
X159922532Y-104266066D01*
X160089199Y-104266066D01*
X160155865Y-104299400D01*
X160189199Y-104332733D01*
X160222532Y-104399400D01*
X160222532Y-104466066D01*
X160189199Y-104566066D01*
X159789199Y-104966066D01*
X160222532Y-104966066D01*
X160622532Y-104566066D02*
X160555865Y-104532733D01*
X160522532Y-104499400D01*
X160489199Y-104432733D01*
X160489199Y-104399400D01*
X160522532Y-104332733D01*
X160555865Y-104299400D01*
X160622532Y-104266066D01*
X160755865Y-104266066D01*
X160822532Y-104299400D01*
X160855865Y-104332733D01*
X160889199Y-104399400D01*
X160889199Y-104432733D01*
X160855865Y-104499400D01*
X160822532Y-104532733D01*
X160755865Y-104566066D01*
X160622532Y-104566066D01*
X160555865Y-104599400D01*
X160522532Y-104632733D01*
X160489199Y-104699400D01*
X160489199Y-104832733D01*
X160522532Y-104899400D01*
X160555865Y-104932733D01*
X160622532Y-104966066D01*
X160755865Y-104966066D01*
X160822532Y-104932733D01*
X160855865Y-104899400D01*
X160889199Y-104832733D01*
X160889199Y-104699400D01*
X160855865Y-104632733D01*
X160822532Y-104599400D01*
X160755865Y-104566066D01*
X161189199Y-104966066D02*
X161189199Y-104266066D01*
X161455865Y-104266066D01*
X161522532Y-104299400D01*
X161555865Y-104332733D01*
X161589199Y-104399400D01*
X161589199Y-104499400D01*
X161555865Y-104566066D01*
X161522532Y-104599400D01*
X161455865Y-104632733D01*
X161189199Y-104632733D01*
X161889199Y-104699400D02*
X162422532Y-104699400D01*
X162722532Y-104766066D02*
X163055865Y-104766066D01*
X162655865Y-104966066D02*
X162889199Y-104266066D01*
X163122532Y-104966066D01*
X163355865Y-104266066D02*
X163355865Y-104832733D01*
X163389199Y-104899400D01*
X163422532Y-104932733D01*
X163489199Y-104966066D01*
X163622532Y-104966066D01*
X163689199Y-104932733D01*
X163722532Y-104899400D01*
X163755865Y-104832733D01*
X163755865Y-104266066D01*
G04 #@! TO.C,Y1*
D14*
X159113809Y-91900190D02*
X159113809Y-92376380D01*
X158780476Y-91376380D02*
X159113809Y-91900190D01*
X159447142Y-91376380D01*
X160304285Y-92376380D02*
X159732857Y-92376380D01*
X160018571Y-92376380D02*
X160018571Y-91376380D01*
X159923333Y-91519238D01*
X159828095Y-91614476D01*
X159732857Y-91662095D01*
G04 #@! TO.C,R14*
X166103549Y-113149312D02*
X166204564Y-112576893D01*
X165699488Y-112745251D02*
X166406595Y-112038145D01*
X166675969Y-112307519D01*
X166709641Y-112408534D01*
X166709641Y-112475877D01*
X166675969Y-112576893D01*
X166574954Y-112677908D01*
X166473938Y-112711580D01*
X166406595Y-112711580D01*
X166305580Y-112677908D01*
X166036206Y-112408534D01*
X166776984Y-113822748D02*
X166372923Y-113418687D01*
X166574954Y-113620717D02*
X167282061Y-112913610D01*
X167113702Y-112947282D01*
X166979015Y-112947282D01*
X166878000Y-112913610D01*
X167854480Y-113957435D02*
X167383076Y-114428839D01*
X167955496Y-113519702D02*
X167282061Y-113856419D01*
X167719793Y-114294152D01*
G04 #@! TO.C,R15*
X165087549Y-114165312D02*
X165188564Y-113592893D01*
X164683488Y-113761251D02*
X165390595Y-113054145D01*
X165659969Y-113323519D01*
X165693641Y-113424534D01*
X165693641Y-113491877D01*
X165659969Y-113592893D01*
X165558954Y-113693908D01*
X165457938Y-113727580D01*
X165390595Y-113727580D01*
X165289580Y-113693908D01*
X165020206Y-113424534D01*
X165760984Y-114838748D02*
X165356923Y-114434687D01*
X165558954Y-114636717D02*
X166266061Y-113929610D01*
X166097702Y-113963282D01*
X165963015Y-113963282D01*
X165862000Y-113929610D01*
X167107854Y-114771404D02*
X166771137Y-114434687D01*
X166400748Y-114737732D01*
X166468091Y-114737732D01*
X166569106Y-114771404D01*
X166737465Y-114939763D01*
X166771137Y-115040778D01*
X166771137Y-115108122D01*
X166737465Y-115209137D01*
X166569106Y-115377496D01*
X166468091Y-115411167D01*
X166400748Y-115411167D01*
X166299732Y-115377496D01*
X166131374Y-115209137D01*
X166097702Y-115108122D01*
X166097702Y-115040778D01*
G04 #@! TO.C,R16*
X157345142Y-113990380D02*
X157011809Y-113514190D01*
X156773714Y-113990380D02*
X156773714Y-112990380D01*
X157154666Y-112990380D01*
X157249904Y-113038000D01*
X157297523Y-113085619D01*
X157345142Y-113180857D01*
X157345142Y-113323714D01*
X157297523Y-113418952D01*
X157249904Y-113466571D01*
X157154666Y-113514190D01*
X156773714Y-113514190D01*
X158297523Y-113990380D02*
X157726095Y-113990380D01*
X158011809Y-113990380D02*
X158011809Y-112990380D01*
X157916571Y-113133238D01*
X157821333Y-113228476D01*
X157726095Y-113276095D01*
X159154666Y-112990380D02*
X158964190Y-112990380D01*
X158868952Y-113038000D01*
X158821333Y-113085619D01*
X158726095Y-113228476D01*
X158678476Y-113418952D01*
X158678476Y-113799904D01*
X158726095Y-113895142D01*
X158773714Y-113942761D01*
X158868952Y-113990380D01*
X159059428Y-113990380D01*
X159154666Y-113942761D01*
X159202285Y-113895142D01*
X159249904Y-113799904D01*
X159249904Y-113561809D01*
X159202285Y-113466571D01*
X159154666Y-113418952D01*
X159059428Y-113371333D01*
X158868952Y-113371333D01*
X158773714Y-113418952D01*
X158726095Y-113466571D01*
X158678476Y-113561809D01*
G04 #@! TO.C,R17*
X151503142Y-112212380D02*
X151169809Y-111736190D01*
X150931714Y-112212380D02*
X150931714Y-111212380D01*
X151312666Y-111212380D01*
X151407904Y-111260000D01*
X151455523Y-111307619D01*
X151503142Y-111402857D01*
X151503142Y-111545714D01*
X151455523Y-111640952D01*
X151407904Y-111688571D01*
X151312666Y-111736190D01*
X150931714Y-111736190D01*
X152455523Y-112212380D02*
X151884095Y-112212380D01*
X152169809Y-112212380D02*
X152169809Y-111212380D01*
X152074571Y-111355238D01*
X151979333Y-111450476D01*
X151884095Y-111498095D01*
X152788857Y-111212380D02*
X153455523Y-111212380D01*
X153026952Y-112212380D01*
G04 #@! TO.C,C17*
X167313142Y-96122857D02*
X167360761Y-96170476D01*
X167408380Y-96313333D01*
X167408380Y-96408571D01*
X167360761Y-96551428D01*
X167265523Y-96646666D01*
X167170285Y-96694285D01*
X166979809Y-96741904D01*
X166836952Y-96741904D01*
X166646476Y-96694285D01*
X166551238Y-96646666D01*
X166456000Y-96551428D01*
X166408380Y-96408571D01*
X166408380Y-96313333D01*
X166456000Y-96170476D01*
X166503619Y-96122857D01*
X167408380Y-95170476D02*
X167408380Y-95741904D01*
X167408380Y-95456190D02*
X166408380Y-95456190D01*
X166551238Y-95551428D01*
X166646476Y-95646666D01*
X166694095Y-95741904D01*
X166408380Y-94837142D02*
X166408380Y-94170476D01*
X167408380Y-94599047D01*
G04 #@! TO.C,J2*
X142668666Y-113752380D02*
X142668666Y-114466666D01*
X142621047Y-114609523D01*
X142525809Y-114704761D01*
X142382952Y-114752380D01*
X142287714Y-114752380D01*
X143097238Y-113847619D02*
X143144857Y-113800000D01*
X143240095Y-113752380D01*
X143478190Y-113752380D01*
X143573428Y-113800000D01*
X143621047Y-113847619D01*
X143668666Y-113942857D01*
X143668666Y-114038095D01*
X143621047Y-114180952D01*
X143049619Y-114752380D01*
X143668666Y-114752380D01*
G04 #@! TD*
M02*
