G04 #@! TF.GenerationSoftware,KiCad,Pcbnew,(5.0.2)-1*
G04 #@! TF.CreationDate,2019-03-22T14:17:17+01:00*
G04 #@! TF.ProjectId,LoRaNode,4c6f5261-4e6f-4646-952e-6b696361645f,rev?*
G04 #@! TF.SameCoordinates,Original*
G04 #@! TF.FileFunction,Soldermask,Top*
G04 #@! TF.FilePolarity,Negative*
%FSLAX46Y46*%
G04 Gerber Fmt 4.6, Leading zero omitted, Abs format (unit mm)*
G04 Created by KiCad (PCBNEW (5.0.2)-1) date 03/22/19 14:17:17*
%MOMM*%
%LPD*%
G01*
G04 APERTURE LIST*
%ADD10C,0.100000*%
G04 APERTURE END LIST*
D10*
G36*
X152566630Y-115494299D02*
X152726855Y-115542903D01*
X152874520Y-115621831D01*
X153003949Y-115728051D01*
X153110169Y-115857480D01*
X153189097Y-116005145D01*
X153237701Y-116165370D01*
X153254112Y-116332000D01*
X153237701Y-116498630D01*
X153189097Y-116658855D01*
X153110169Y-116806520D01*
X153003949Y-116935949D01*
X152874520Y-117042169D01*
X152726855Y-117121097D01*
X152566630Y-117169701D01*
X152441752Y-117182000D01*
X152358248Y-117182000D01*
X152233370Y-117169701D01*
X152073145Y-117121097D01*
X151925480Y-117042169D01*
X151796051Y-116935949D01*
X151689831Y-116806520D01*
X151610903Y-116658855D01*
X151562299Y-116498630D01*
X151545888Y-116332000D01*
X151562299Y-116165370D01*
X151610903Y-116005145D01*
X151689831Y-115857480D01*
X151796051Y-115728051D01*
X151925480Y-115621831D01*
X152073145Y-115542903D01*
X152233370Y-115494299D01*
X152358248Y-115482000D01*
X152441752Y-115482000D01*
X152566630Y-115494299D01*
X152566630Y-115494299D01*
G37*
G36*
X157646630Y-115494299D02*
X157806855Y-115542903D01*
X157954520Y-115621831D01*
X158083949Y-115728051D01*
X158190169Y-115857480D01*
X158269097Y-116005145D01*
X158317701Y-116165370D01*
X158334112Y-116332000D01*
X158317701Y-116498630D01*
X158269097Y-116658855D01*
X158190169Y-116806520D01*
X158083949Y-116935949D01*
X157954520Y-117042169D01*
X157806855Y-117121097D01*
X157646630Y-117169701D01*
X157521752Y-117182000D01*
X157438248Y-117182000D01*
X157313370Y-117169701D01*
X157153145Y-117121097D01*
X157005480Y-117042169D01*
X156876051Y-116935949D01*
X156769831Y-116806520D01*
X156690903Y-116658855D01*
X156642299Y-116498630D01*
X156625888Y-116332000D01*
X156642299Y-116165370D01*
X156690903Y-116005145D01*
X156769831Y-115857480D01*
X156876051Y-115728051D01*
X157005480Y-115621831D01*
X157153145Y-115542903D01*
X157313370Y-115494299D01*
X157438248Y-115482000D01*
X157521752Y-115482000D01*
X157646630Y-115494299D01*
X157646630Y-115494299D01*
G37*
G36*
X143676630Y-115494299D02*
X143836855Y-115542903D01*
X143984520Y-115621831D01*
X144113949Y-115728051D01*
X144220169Y-115857480D01*
X144299097Y-116005145D01*
X144347701Y-116165370D01*
X144364112Y-116332000D01*
X144347701Y-116498630D01*
X144299097Y-116658855D01*
X144220169Y-116806520D01*
X144113949Y-116935949D01*
X143984520Y-117042169D01*
X143836855Y-117121097D01*
X143676630Y-117169701D01*
X143551752Y-117182000D01*
X143468248Y-117182000D01*
X143343370Y-117169701D01*
X143183145Y-117121097D01*
X143035480Y-117042169D01*
X142906051Y-116935949D01*
X142799831Y-116806520D01*
X142720903Y-116658855D01*
X142672299Y-116498630D01*
X142655888Y-116332000D01*
X142672299Y-116165370D01*
X142720903Y-116005145D01*
X142799831Y-115857480D01*
X142906051Y-115728051D01*
X143035480Y-115621831D01*
X143183145Y-115542903D01*
X143343370Y-115494299D01*
X143468248Y-115482000D01*
X143551752Y-115482000D01*
X143676630Y-115494299D01*
X143676630Y-115494299D01*
G37*
G36*
X146216630Y-115494299D02*
X146376855Y-115542903D01*
X146524520Y-115621831D01*
X146653949Y-115728051D01*
X146760169Y-115857480D01*
X146839097Y-116005145D01*
X146887701Y-116165370D01*
X146904112Y-116332000D01*
X146887701Y-116498630D01*
X146839097Y-116658855D01*
X146760169Y-116806520D01*
X146653949Y-116935949D01*
X146524520Y-117042169D01*
X146376855Y-117121097D01*
X146216630Y-117169701D01*
X146091752Y-117182000D01*
X146008248Y-117182000D01*
X145883370Y-117169701D01*
X145723145Y-117121097D01*
X145575480Y-117042169D01*
X145446051Y-116935949D01*
X145339831Y-116806520D01*
X145260903Y-116658855D01*
X145212299Y-116498630D01*
X145195888Y-116332000D01*
X145212299Y-116165370D01*
X145260903Y-116005145D01*
X145339831Y-115857480D01*
X145446051Y-115728051D01*
X145575480Y-115621831D01*
X145723145Y-115542903D01*
X145883370Y-115494299D01*
X146008248Y-115482000D01*
X146091752Y-115482000D01*
X146216630Y-115494299D01*
X146216630Y-115494299D01*
G37*
G36*
X160870000Y-117182000D02*
X159170000Y-117182000D01*
X159170000Y-115482000D01*
X160870000Y-115482000D01*
X160870000Y-117182000D01*
X160870000Y-117182000D01*
G37*
G36*
X149440000Y-117182000D02*
X147740000Y-117182000D01*
X147740000Y-115482000D01*
X149440000Y-115482000D01*
X149440000Y-117182000D01*
X149440000Y-117182000D01*
G37*
G36*
X155106630Y-115494299D02*
X155266855Y-115542903D01*
X155414520Y-115621831D01*
X155543949Y-115728051D01*
X155650169Y-115857480D01*
X155729097Y-116005145D01*
X155777701Y-116165370D01*
X155794112Y-116332000D01*
X155777701Y-116498630D01*
X155729097Y-116658855D01*
X155650169Y-116806520D01*
X155543949Y-116935949D01*
X155414520Y-117042169D01*
X155266855Y-117121097D01*
X155106630Y-117169701D01*
X154981752Y-117182000D01*
X154898248Y-117182000D01*
X154773370Y-117169701D01*
X154613145Y-117121097D01*
X154465480Y-117042169D01*
X154336051Y-116935949D01*
X154229831Y-116806520D01*
X154150903Y-116658855D01*
X154102299Y-116498630D01*
X154085888Y-116332000D01*
X154102299Y-116165370D01*
X154150903Y-116005145D01*
X154229831Y-115857480D01*
X154336051Y-115728051D01*
X154465480Y-115621831D01*
X154613145Y-115542903D01*
X154773370Y-115494299D01*
X154898248Y-115482000D01*
X154981752Y-115482000D01*
X155106630Y-115494299D01*
X155106630Y-115494299D01*
G37*
G36*
X154804001Y-113784000D02*
X153984001Y-113784000D01*
X153984001Y-112784000D01*
X154804001Y-112784000D01*
X154804001Y-113784000D01*
X154804001Y-113784000D01*
G37*
G36*
X156403999Y-113784000D02*
X155583999Y-113784000D01*
X155583999Y-112784000D01*
X156403999Y-112784000D01*
X156403999Y-113784000D01*
X156403999Y-113784000D01*
G37*
G36*
X165109305Y-112910909D02*
X164472909Y-113547305D01*
X164119355Y-113193751D01*
X164755751Y-112557355D01*
X165109305Y-112910909D01*
X165109305Y-112910909D01*
G37*
G36*
X128600000Y-113100000D02*
X127400000Y-113100000D01*
X127400000Y-110600000D01*
X128600000Y-110600000D01*
X128600000Y-113100000D01*
X128600000Y-113100000D01*
G37*
G36*
X130600000Y-113100000D02*
X129400000Y-113100000D01*
X129400000Y-110600000D01*
X130600000Y-110600000D01*
X130600000Y-113100000D01*
X130600000Y-113100000D01*
G37*
G36*
X132600000Y-113100000D02*
X131400000Y-113100000D01*
X131400000Y-110600000D01*
X132600000Y-110600000D01*
X132600000Y-113100000D01*
X132600000Y-113100000D01*
G37*
G36*
X134600000Y-113100000D02*
X133400000Y-113100000D01*
X133400000Y-110600000D01*
X134600000Y-110600000D01*
X134600000Y-113100000D01*
X134600000Y-113100000D01*
G37*
G36*
X136600000Y-113100000D02*
X135400000Y-113100000D01*
X135400000Y-110600000D01*
X136600000Y-110600000D01*
X136600000Y-113100000D01*
X136600000Y-113100000D01*
G37*
G36*
X138600000Y-113100000D02*
X137400000Y-113100000D01*
X137400000Y-110600000D01*
X138600000Y-110600000D01*
X138600000Y-113100000D01*
X138600000Y-113100000D01*
G37*
G36*
X140600000Y-113100000D02*
X139400000Y-113100000D01*
X139400000Y-110600000D01*
X140600000Y-110600000D01*
X140600000Y-113100000D01*
X140600000Y-113100000D01*
G37*
G36*
X142600000Y-113100000D02*
X141400000Y-113100000D01*
X141400000Y-110600000D01*
X142600000Y-110600000D01*
X142600000Y-113100000D01*
X142600000Y-113100000D01*
G37*
G36*
X160927845Y-111787215D02*
X160974715Y-111806629D01*
X161018839Y-111824906D01*
X161076082Y-111863155D01*
X161100734Y-111879627D01*
X161170373Y-111949266D01*
X161170375Y-111949269D01*
X161225094Y-112031161D01*
X161262785Y-112122155D01*
X161282000Y-112218754D01*
X161282000Y-112317246D01*
X161262785Y-112413845D01*
X161225094Y-112504839D01*
X161171104Y-112585640D01*
X161170373Y-112586734D01*
X161100734Y-112656373D01*
X161100731Y-112656375D01*
X161018839Y-112711094D01*
X160927845Y-112748785D01*
X160831246Y-112768000D01*
X160732754Y-112768000D01*
X160636155Y-112748785D01*
X160545161Y-112711094D01*
X160463269Y-112656375D01*
X160463266Y-112656373D01*
X160393627Y-112586734D01*
X160392896Y-112585640D01*
X160338906Y-112504839D01*
X160301215Y-112413845D01*
X160282000Y-112317246D01*
X160282000Y-112218754D01*
X160301215Y-112122155D01*
X160338906Y-112031161D01*
X160393625Y-111949269D01*
X160393627Y-111949266D01*
X160463266Y-111879627D01*
X160487918Y-111863155D01*
X160545161Y-111824906D01*
X160589286Y-111806629D01*
X160636155Y-111787215D01*
X160732754Y-111768000D01*
X160831246Y-111768000D01*
X160927845Y-111787215D01*
X160927845Y-111787215D01*
G37*
G36*
X166125305Y-111894909D02*
X165488909Y-112531305D01*
X165135355Y-112177751D01*
X165771751Y-111541355D01*
X166125305Y-111894909D01*
X166125305Y-111894909D01*
G37*
G36*
X145926630Y-110802299D02*
X146086855Y-110850903D01*
X146234520Y-110929831D01*
X146363949Y-111036051D01*
X146470169Y-111165480D01*
X146549097Y-111313145D01*
X146597701Y-111473370D01*
X146614112Y-111640000D01*
X146597701Y-111806630D01*
X146549097Y-111966855D01*
X146470169Y-112114520D01*
X146363949Y-112243949D01*
X146234520Y-112350169D01*
X146086855Y-112429097D01*
X145926630Y-112477701D01*
X145801752Y-112490000D01*
X145718248Y-112490000D01*
X145593370Y-112477701D01*
X145433145Y-112429097D01*
X145285480Y-112350169D01*
X145156051Y-112243949D01*
X145049831Y-112114520D01*
X144970903Y-111966855D01*
X144922299Y-111806630D01*
X144905888Y-111640000D01*
X144922299Y-111473370D01*
X144970903Y-111313145D01*
X145049831Y-111165480D01*
X145156051Y-111036051D01*
X145285480Y-110929831D01*
X145433145Y-110850903D01*
X145593370Y-110802299D01*
X145718248Y-110790000D01*
X145801752Y-110790000D01*
X145926630Y-110802299D01*
X145926630Y-110802299D01*
G37*
G36*
X149150000Y-112490000D02*
X147450000Y-112490000D01*
X147450000Y-110790000D01*
X149150000Y-110790000D01*
X149150000Y-112490000D01*
X149150000Y-112490000D01*
G37*
G36*
X164048645Y-111850249D02*
X163412249Y-112486645D01*
X163058695Y-112133091D01*
X163695091Y-111496695D01*
X164048645Y-111850249D01*
X164048645Y-111850249D01*
G37*
G36*
X158108445Y-111431615D02*
X158199439Y-111469306D01*
X158213625Y-111478785D01*
X158281334Y-111524027D01*
X158350973Y-111593666D01*
X158350975Y-111593669D01*
X158405694Y-111675561D01*
X158443385Y-111766555D01*
X158462600Y-111863154D01*
X158462600Y-111961646D01*
X158443385Y-112058245D01*
X158405694Y-112149239D01*
X158359245Y-112218754D01*
X158350973Y-112231134D01*
X158281334Y-112300773D01*
X158281331Y-112300775D01*
X158199439Y-112355494D01*
X158108445Y-112393185D01*
X158011846Y-112412400D01*
X157913354Y-112412400D01*
X157816755Y-112393185D01*
X157725761Y-112355494D01*
X157643869Y-112300775D01*
X157643866Y-112300773D01*
X157574227Y-112231134D01*
X157565955Y-112218754D01*
X157519506Y-112149239D01*
X157481815Y-112058245D01*
X157462600Y-111961646D01*
X157462600Y-111863154D01*
X157481815Y-111766555D01*
X157519506Y-111675561D01*
X157574225Y-111593669D01*
X157574227Y-111593666D01*
X157643866Y-111524027D01*
X157711575Y-111478785D01*
X157725761Y-111469306D01*
X157816755Y-111431615D01*
X157913354Y-111412400D01*
X158011846Y-111412400D01*
X158108445Y-111431615D01*
X158108445Y-111431615D01*
G37*
G36*
X156403999Y-112260000D02*
X155583999Y-112260000D01*
X155583999Y-111260000D01*
X156403999Y-111260000D01*
X156403999Y-112260000D01*
X156403999Y-112260000D01*
G37*
G36*
X154804001Y-112260000D02*
X153984001Y-112260000D01*
X153984001Y-111260000D01*
X154804001Y-111260000D01*
X154804001Y-112260000D01*
X154804001Y-112260000D01*
G37*
G36*
X162451845Y-110517215D02*
X162542839Y-110554906D01*
X162610326Y-110600000D01*
X162624734Y-110609627D01*
X162694373Y-110679266D01*
X162694375Y-110679269D01*
X162719443Y-110716785D01*
X162749095Y-110761163D01*
X162786785Y-110852155D01*
X162806000Y-110948755D01*
X162806000Y-111047245D01*
X162786785Y-111143845D01*
X162749095Y-111234837D01*
X162694373Y-111316734D01*
X162624734Y-111386373D01*
X162624731Y-111386375D01*
X162542839Y-111441094D01*
X162451845Y-111478785D01*
X162355246Y-111498000D01*
X162256754Y-111498000D01*
X162160155Y-111478785D01*
X162069161Y-111441094D01*
X161987269Y-111386375D01*
X161987266Y-111386373D01*
X161917627Y-111316734D01*
X161862905Y-111234837D01*
X161825215Y-111143845D01*
X161806000Y-111047245D01*
X161806000Y-110948755D01*
X161825215Y-110852155D01*
X161862905Y-110761163D01*
X161892558Y-110716785D01*
X161917625Y-110679269D01*
X161917627Y-110679266D01*
X161987266Y-110609627D01*
X162001674Y-110600000D01*
X162069161Y-110554906D01*
X162160155Y-110517215D01*
X162256754Y-110498000D01*
X162355246Y-110498000D01*
X162451845Y-110517215D01*
X162451845Y-110517215D01*
G37*
G36*
X165064645Y-110834249D02*
X164428249Y-111470645D01*
X164074695Y-111117091D01*
X164711091Y-110480695D01*
X165064645Y-110834249D01*
X165064645Y-110834249D01*
G37*
G36*
X156355845Y-109755215D02*
X156446839Y-109792906D01*
X156527640Y-109846896D01*
X156528734Y-109847627D01*
X156598373Y-109917266D01*
X156598375Y-109917269D01*
X156653094Y-109999161D01*
X156690785Y-110090155D01*
X156710000Y-110186754D01*
X156710000Y-110285246D01*
X156690785Y-110381845D01*
X156653094Y-110472839D01*
X156599104Y-110553640D01*
X156598373Y-110554734D01*
X156528734Y-110624373D01*
X156528731Y-110624375D01*
X156446839Y-110679094D01*
X156355845Y-110716785D01*
X156259246Y-110736000D01*
X156160754Y-110736000D01*
X156064155Y-110716785D01*
X155973161Y-110679094D01*
X155891269Y-110624375D01*
X155891266Y-110624373D01*
X155821627Y-110554734D01*
X155820896Y-110553640D01*
X155766906Y-110472839D01*
X155729215Y-110381845D01*
X155710000Y-110285246D01*
X155710000Y-110186754D01*
X155729215Y-110090155D01*
X155766906Y-109999161D01*
X155821625Y-109917269D01*
X155821627Y-109917266D01*
X155891266Y-109847627D01*
X155892360Y-109846896D01*
X155973161Y-109792906D01*
X156064155Y-109755215D01*
X156160754Y-109736000D01*
X156259246Y-109736000D01*
X156355845Y-109755215D01*
X156355845Y-109755215D01*
G37*
G36*
X161375445Y-109980334D02*
X160986536Y-110369243D01*
X159855165Y-109237872D01*
X160244074Y-108848963D01*
X161375445Y-109980334D01*
X161375445Y-109980334D01*
G37*
G36*
X159324835Y-109237872D02*
X158193464Y-110369243D01*
X157804555Y-109980334D01*
X158935926Y-108848963D01*
X159324835Y-109237872D01*
X159324835Y-109237872D01*
G37*
G36*
X165999805Y-109686409D02*
X165363409Y-110322805D01*
X165009855Y-109969251D01*
X165646251Y-109332855D01*
X165999805Y-109686409D01*
X165999805Y-109686409D01*
G37*
G36*
X154527678Y-109708652D02*
X153961992Y-110274338D01*
X153431662Y-109744008D01*
X153997348Y-109178322D01*
X154527678Y-109708652D01*
X154527678Y-109708652D01*
G37*
G36*
X148466630Y-108262299D02*
X148626855Y-108310903D01*
X148774520Y-108389831D01*
X148903949Y-108496051D01*
X149010169Y-108625480D01*
X149089097Y-108773145D01*
X149137701Y-108933370D01*
X149154112Y-109100000D01*
X149137701Y-109266630D01*
X149089097Y-109426855D01*
X149010169Y-109574520D01*
X148903949Y-109703949D01*
X148774520Y-109810169D01*
X148626855Y-109889097D01*
X148466630Y-109937701D01*
X148341752Y-109950000D01*
X148258248Y-109950000D01*
X148133370Y-109937701D01*
X147973145Y-109889097D01*
X147825480Y-109810169D01*
X147696051Y-109703949D01*
X147589831Y-109574520D01*
X147510903Y-109426855D01*
X147462299Y-109266630D01*
X147445888Y-109100000D01*
X147462299Y-108933370D01*
X147510903Y-108773145D01*
X147589831Y-108625480D01*
X147696051Y-108496051D01*
X147825480Y-108389831D01*
X147973145Y-108310903D01*
X148133370Y-108262299D01*
X148258248Y-108250000D01*
X148341752Y-108250000D01*
X148466630Y-108262299D01*
X148466630Y-108262299D01*
G37*
G36*
X145926630Y-108262299D02*
X146086855Y-108310903D01*
X146234520Y-108389831D01*
X146363949Y-108496051D01*
X146470169Y-108625480D01*
X146549097Y-108773145D01*
X146597701Y-108933370D01*
X146614112Y-109100000D01*
X146597701Y-109266630D01*
X146549097Y-109426855D01*
X146470169Y-109574520D01*
X146363949Y-109703949D01*
X146234520Y-109810169D01*
X146086855Y-109889097D01*
X145926630Y-109937701D01*
X145801752Y-109950000D01*
X145718248Y-109950000D01*
X145593370Y-109937701D01*
X145433145Y-109889097D01*
X145285480Y-109810169D01*
X145156051Y-109703949D01*
X145049831Y-109574520D01*
X144970903Y-109426855D01*
X144922299Y-109266630D01*
X144905888Y-109100000D01*
X144922299Y-108933370D01*
X144970903Y-108773145D01*
X145049831Y-108625480D01*
X145156051Y-108496051D01*
X145285480Y-108389831D01*
X145433145Y-108310903D01*
X145593370Y-108262299D01*
X145718248Y-108250000D01*
X145801752Y-108250000D01*
X145926630Y-108262299D01*
X145926630Y-108262299D01*
G37*
G36*
X158759150Y-108672186D02*
X157627779Y-109803557D01*
X157238870Y-109414648D01*
X158370241Y-108283277D01*
X158759150Y-108672186D01*
X158759150Y-108672186D01*
G37*
G36*
X161941130Y-109414648D02*
X161552221Y-109803557D01*
X160420850Y-108672186D01*
X160809759Y-108283277D01*
X161941130Y-109414648D01*
X161941130Y-109414648D01*
G37*
G36*
X167068838Y-108893008D02*
X166538508Y-109423338D01*
X165972822Y-108857652D01*
X166503152Y-108327322D01*
X167068838Y-108893008D01*
X167068838Y-108893008D01*
G37*
G36*
X170170630Y-107596299D02*
X170330855Y-107644903D01*
X170478520Y-107723831D01*
X170607949Y-107830051D01*
X170714169Y-107959480D01*
X170793097Y-108107145D01*
X170841701Y-108267370D01*
X170858112Y-108434000D01*
X170841701Y-108600630D01*
X170793097Y-108760855D01*
X170714169Y-108908520D01*
X170607949Y-109037949D01*
X170478520Y-109144169D01*
X170330855Y-109223097D01*
X170170630Y-109271701D01*
X170045752Y-109284000D01*
X169962248Y-109284000D01*
X169837370Y-109271701D01*
X169677145Y-109223097D01*
X169529480Y-109144169D01*
X169400051Y-109037949D01*
X169293831Y-108908520D01*
X169214903Y-108760855D01*
X169166299Y-108600630D01*
X169149888Y-108434000D01*
X169166299Y-108267370D01*
X169214903Y-108107145D01*
X169293831Y-107959480D01*
X169400051Y-107830051D01*
X169529480Y-107723831D01*
X169677145Y-107644903D01*
X169837370Y-107596299D01*
X169962248Y-107584000D01*
X170045752Y-107584000D01*
X170170630Y-107596299D01*
X170170630Y-107596299D01*
G37*
G36*
X164939145Y-108625749D02*
X164302749Y-109262145D01*
X163949195Y-108908591D01*
X164585591Y-108272195D01*
X164939145Y-108625749D01*
X164939145Y-108625749D01*
G37*
G36*
X153511678Y-108692652D02*
X152945992Y-109258338D01*
X152415662Y-108728008D01*
X152981348Y-108162322D01*
X153511678Y-108692652D01*
X153511678Y-108692652D01*
G37*
G36*
X158193464Y-108106501D02*
X157062093Y-109237872D01*
X156107499Y-108283278D01*
X157238870Y-107151907D01*
X158193464Y-108106501D01*
X158193464Y-108106501D01*
G37*
G36*
X163072501Y-108283278D02*
X162117907Y-109237872D01*
X160986536Y-108106501D01*
X161941130Y-107151907D01*
X163072501Y-108283278D01*
X163072501Y-108283278D01*
G37*
G36*
X155588338Y-108647992D02*
X155022652Y-109213678D01*
X154492322Y-108683348D01*
X155058008Y-108117662D01*
X155588338Y-108647992D01*
X155588338Y-108647992D01*
G37*
G36*
X166008178Y-107832348D02*
X165477848Y-108362678D01*
X164912162Y-107796992D01*
X165442492Y-107266662D01*
X166008178Y-107832348D01*
X166008178Y-107832348D01*
G37*
G36*
X154572338Y-107631992D02*
X154006652Y-108197678D01*
X153476322Y-107667348D01*
X154042008Y-107101662D01*
X154572338Y-107631992D01*
X154572338Y-107631992D01*
G37*
G36*
X157062093Y-106975130D02*
X155930722Y-108106501D01*
X154976128Y-107151907D01*
X156107499Y-106020536D01*
X157062093Y-106975130D01*
X157062093Y-106975130D01*
G37*
G36*
X164203872Y-107151907D02*
X163249278Y-108106501D01*
X162117907Y-106975130D01*
X163072501Y-106020536D01*
X164203872Y-107151907D01*
X164203872Y-107151907D01*
G37*
G36*
X148466630Y-105722299D02*
X148626855Y-105770903D01*
X148774520Y-105849831D01*
X148903949Y-105956051D01*
X149010169Y-106085480D01*
X149089097Y-106233145D01*
X149137701Y-106393370D01*
X149154112Y-106560000D01*
X149137701Y-106726630D01*
X149089097Y-106886855D01*
X149010169Y-107034520D01*
X148903949Y-107163949D01*
X148774520Y-107270169D01*
X148626855Y-107349097D01*
X148466630Y-107397701D01*
X148341752Y-107410000D01*
X148258248Y-107410000D01*
X148133370Y-107397701D01*
X147973145Y-107349097D01*
X147825480Y-107270169D01*
X147696051Y-107163949D01*
X147589831Y-107034520D01*
X147510903Y-106886855D01*
X147462299Y-106726630D01*
X147445888Y-106560000D01*
X147462299Y-106393370D01*
X147510903Y-106233145D01*
X147589831Y-106085480D01*
X147696051Y-105956051D01*
X147825480Y-105849831D01*
X147973145Y-105770903D01*
X148133370Y-105722299D01*
X148258248Y-105710000D01*
X148341752Y-105710000D01*
X148466630Y-105722299D01*
X148466630Y-105722299D01*
G37*
G36*
X145926630Y-105722299D02*
X146086855Y-105770903D01*
X146234520Y-105849831D01*
X146363949Y-105956051D01*
X146470169Y-106085480D01*
X146549097Y-106233145D01*
X146597701Y-106393370D01*
X146614112Y-106560000D01*
X146597701Y-106726630D01*
X146549097Y-106886855D01*
X146470169Y-107034520D01*
X146363949Y-107163949D01*
X146234520Y-107270169D01*
X146086855Y-107349097D01*
X145926630Y-107397701D01*
X145801752Y-107410000D01*
X145718248Y-107410000D01*
X145593370Y-107397701D01*
X145433145Y-107349097D01*
X145285480Y-107270169D01*
X145156051Y-107163949D01*
X145049831Y-107034520D01*
X144970903Y-106886855D01*
X144922299Y-106726630D01*
X144905888Y-106560000D01*
X144922299Y-106393370D01*
X144970903Y-106233145D01*
X145049831Y-106085480D01*
X145156051Y-105956051D01*
X145285480Y-105849831D01*
X145433145Y-105770903D01*
X145593370Y-105722299D01*
X145718248Y-105710000D01*
X145801752Y-105710000D01*
X145926630Y-105722299D01*
X145926630Y-105722299D01*
G37*
G36*
X164769557Y-106586221D02*
X164380648Y-106975130D01*
X163249277Y-105843759D01*
X163638186Y-105454850D01*
X164769557Y-106586221D01*
X164769557Y-106586221D01*
G37*
G36*
X155930723Y-105843759D02*
X154799352Y-106975130D01*
X154410443Y-106586221D01*
X155541814Y-105454850D01*
X155930723Y-105843759D01*
X155930723Y-105843759D01*
G37*
G36*
X170170630Y-105056299D02*
X170330855Y-105104903D01*
X170478520Y-105183831D01*
X170607949Y-105290051D01*
X170714169Y-105419480D01*
X170793097Y-105567145D01*
X170841701Y-105727370D01*
X170858112Y-105894000D01*
X170841701Y-106060630D01*
X170793097Y-106220855D01*
X170714169Y-106368520D01*
X170607949Y-106497949D01*
X170478520Y-106604169D01*
X170330855Y-106683097D01*
X170170630Y-106731701D01*
X170045752Y-106744000D01*
X169962248Y-106744000D01*
X169837370Y-106731701D01*
X169677145Y-106683097D01*
X169529480Y-106604169D01*
X169400051Y-106497949D01*
X169293831Y-106368520D01*
X169214903Y-106220855D01*
X169166299Y-106060630D01*
X169149888Y-105894000D01*
X169166299Y-105727370D01*
X169214903Y-105567145D01*
X169293831Y-105419480D01*
X169400051Y-105290051D01*
X169529480Y-105183831D01*
X169677145Y-105104903D01*
X169837370Y-105056299D01*
X169962248Y-105044000D01*
X170045752Y-105044000D01*
X170170630Y-105056299D01*
X170170630Y-105056299D01*
G37*
G36*
X165335243Y-106020536D02*
X164946334Y-106409445D01*
X163814963Y-105278074D01*
X164203872Y-104889165D01*
X165335243Y-106020536D01*
X165335243Y-106020536D01*
G37*
G36*
X155365037Y-105278074D02*
X154233666Y-106409445D01*
X153844757Y-106020536D01*
X154976128Y-104889165D01*
X155365037Y-105278074D01*
X155365037Y-105278074D01*
G37*
G36*
X167660345Y-105286215D02*
X167751339Y-105323906D01*
X167832140Y-105377896D01*
X167833234Y-105378627D01*
X167902873Y-105448266D01*
X167902875Y-105448269D01*
X167957594Y-105530161D01*
X167995285Y-105621155D01*
X168012958Y-105710000D01*
X168014500Y-105717755D01*
X168014500Y-105816245D01*
X167995285Y-105912845D01*
X167957595Y-106003837D01*
X167902873Y-106085734D01*
X167833234Y-106155373D01*
X167833231Y-106155375D01*
X167751339Y-106210094D01*
X167660345Y-106247785D01*
X167563746Y-106267000D01*
X167465254Y-106267000D01*
X167368655Y-106247785D01*
X167277661Y-106210094D01*
X167195769Y-106155375D01*
X167195766Y-106155373D01*
X167126127Y-106085734D01*
X167071405Y-106003837D01*
X167033715Y-105912845D01*
X167014500Y-105816245D01*
X167014500Y-105717755D01*
X167016043Y-105710000D01*
X167033715Y-105621155D01*
X167071406Y-105530161D01*
X167126125Y-105448269D01*
X167126127Y-105448266D01*
X167195766Y-105378627D01*
X167196860Y-105377896D01*
X167277661Y-105323906D01*
X167368655Y-105286215D01*
X167465254Y-105267000D01*
X167563746Y-105267000D01*
X167660345Y-105286215D01*
X167660345Y-105286215D01*
G37*
G36*
X165335243Y-103227464D02*
X164203872Y-104358835D01*
X163814963Y-103969926D01*
X164946334Y-102838555D01*
X165335243Y-103227464D01*
X165335243Y-103227464D01*
G37*
G36*
X155365037Y-103969926D02*
X154976128Y-104358835D01*
X153844757Y-103227464D01*
X154233666Y-102838555D01*
X155365037Y-103969926D01*
X155365037Y-103969926D01*
G37*
G36*
X170170630Y-102516299D02*
X170330855Y-102564903D01*
X170478520Y-102643831D01*
X170607949Y-102750051D01*
X170714169Y-102879480D01*
X170793097Y-103027145D01*
X170841701Y-103187370D01*
X170858112Y-103354000D01*
X170841701Y-103520630D01*
X170793097Y-103680855D01*
X170714169Y-103828520D01*
X170607949Y-103957949D01*
X170478520Y-104064169D01*
X170330855Y-104143097D01*
X170170630Y-104191701D01*
X170045752Y-104204000D01*
X169962248Y-104204000D01*
X169837370Y-104191701D01*
X169677145Y-104143097D01*
X169529480Y-104064169D01*
X169400051Y-103957949D01*
X169293831Y-103828520D01*
X169214903Y-103680855D01*
X169166299Y-103520630D01*
X169149888Y-103354000D01*
X169166299Y-103187370D01*
X169214903Y-103027145D01*
X169293831Y-102879480D01*
X169400051Y-102750051D01*
X169529480Y-102643831D01*
X169677145Y-102564903D01*
X169837370Y-102516299D01*
X169962248Y-102504000D01*
X170045752Y-102504000D01*
X170170630Y-102516299D01*
X170170630Y-102516299D01*
G37*
G36*
X164769557Y-102661779D02*
X163638186Y-103793150D01*
X163249277Y-103404241D01*
X164380648Y-102272870D01*
X164769557Y-102661779D01*
X164769557Y-102661779D01*
G37*
G36*
X155930723Y-103404241D02*
X155541814Y-103793150D01*
X154410443Y-102661779D01*
X154799352Y-102272870D01*
X155930723Y-103404241D01*
X155930723Y-103404241D01*
G37*
G36*
X167660345Y-102809715D02*
X167751339Y-102847406D01*
X167799342Y-102879481D01*
X167833234Y-102902127D01*
X167902873Y-102971766D01*
X167902875Y-102971769D01*
X167957594Y-103053661D01*
X167995285Y-103144655D01*
X168014500Y-103241254D01*
X168014500Y-103339746D01*
X168001671Y-103404241D01*
X167995285Y-103436345D01*
X167957595Y-103527337D01*
X167902873Y-103609234D01*
X167833234Y-103678873D01*
X167833231Y-103678875D01*
X167751339Y-103733594D01*
X167660345Y-103771285D01*
X167563746Y-103790500D01*
X167465254Y-103790500D01*
X167368655Y-103771285D01*
X167277661Y-103733594D01*
X167195769Y-103678875D01*
X167195766Y-103678873D01*
X167126127Y-103609234D01*
X167071405Y-103527337D01*
X167033715Y-103436345D01*
X167027329Y-103404241D01*
X167014500Y-103339746D01*
X167014500Y-103241254D01*
X167033715Y-103144655D01*
X167071406Y-103053661D01*
X167126125Y-102971769D01*
X167126127Y-102971766D01*
X167195766Y-102902127D01*
X167229658Y-102879481D01*
X167277661Y-102847406D01*
X167368655Y-102809715D01*
X167465254Y-102790500D01*
X167563746Y-102790500D01*
X167660345Y-102809715D01*
X167660345Y-102809715D01*
G37*
G36*
X164203872Y-102096093D02*
X163072501Y-103227464D01*
X162117907Y-102272870D01*
X163249278Y-101141499D01*
X164203872Y-102096093D01*
X164203872Y-102096093D01*
G37*
G36*
X157062093Y-102272870D02*
X156107499Y-103227464D01*
X154976128Y-102096093D01*
X155930722Y-101141499D01*
X157062093Y-102272870D01*
X157062093Y-102272870D01*
G37*
G36*
X158193464Y-101141499D02*
X157238870Y-102096093D01*
X156107499Y-100964722D01*
X157062093Y-100010128D01*
X158193464Y-101141499D01*
X158193464Y-101141499D01*
G37*
G36*
X163072501Y-100964722D02*
X161941130Y-102096093D01*
X160986536Y-101141499D01*
X162117907Y-100010128D01*
X163072501Y-100964722D01*
X163072501Y-100964722D01*
G37*
G36*
X166510338Y-101362008D02*
X165980008Y-101892338D01*
X165414322Y-101326652D01*
X165944652Y-100796322D01*
X166510338Y-101362008D01*
X166510338Y-101362008D01*
G37*
G36*
X152545845Y-100879215D02*
X152636839Y-100916906D01*
X152717640Y-100970896D01*
X152718734Y-100971627D01*
X152788373Y-101041266D01*
X152788375Y-101041269D01*
X152843094Y-101123161D01*
X152880785Y-101214155D01*
X152886771Y-101244246D01*
X152900000Y-101310755D01*
X152900000Y-101409245D01*
X152880785Y-101505845D01*
X152843095Y-101596837D01*
X152788373Y-101678734D01*
X152718734Y-101748373D01*
X152718731Y-101748375D01*
X152636839Y-101803094D01*
X152545845Y-101840785D01*
X152449246Y-101860000D01*
X152350754Y-101860000D01*
X152254155Y-101840785D01*
X152163161Y-101803094D01*
X152081269Y-101748375D01*
X152081266Y-101748373D01*
X152011627Y-101678734D01*
X151956905Y-101596837D01*
X151919215Y-101505845D01*
X151900000Y-101409245D01*
X151900000Y-101310755D01*
X151913230Y-101244246D01*
X151919215Y-101214155D01*
X151956906Y-101123161D01*
X152011625Y-101041269D01*
X152011627Y-101041266D01*
X152081266Y-100971627D01*
X152082360Y-100970896D01*
X152163161Y-100916906D01*
X152254155Y-100879215D01*
X152350754Y-100860000D01*
X152449246Y-100860000D01*
X152545845Y-100879215D01*
X152545845Y-100879215D01*
G37*
G36*
X167673345Y-100714215D02*
X167764339Y-100751906D01*
X167830812Y-100796322D01*
X167846234Y-100806627D01*
X167915873Y-100876266D01*
X167915875Y-100876269D01*
X167970594Y-100958161D01*
X168008285Y-101049155D01*
X168027500Y-101145754D01*
X168027500Y-101244246D01*
X168014270Y-101310755D01*
X168008285Y-101340845D01*
X167970595Y-101431837D01*
X167915873Y-101513734D01*
X167846234Y-101583373D01*
X167846231Y-101583375D01*
X167764339Y-101638094D01*
X167764338Y-101638095D01*
X167764337Y-101638095D01*
X167673345Y-101675785D01*
X167576746Y-101695000D01*
X167478254Y-101695000D01*
X167381655Y-101675785D01*
X167290663Y-101638095D01*
X167290662Y-101638095D01*
X167290661Y-101638094D01*
X167208769Y-101583375D01*
X167208766Y-101583373D01*
X167139127Y-101513734D01*
X167084405Y-101431837D01*
X167046715Y-101340845D01*
X167040730Y-101310755D01*
X167027500Y-101244246D01*
X167027500Y-101145754D01*
X167046715Y-101049155D01*
X167084406Y-100958161D01*
X167139125Y-100876269D01*
X167139127Y-100876266D01*
X167208766Y-100806627D01*
X167224188Y-100796322D01*
X167290661Y-100751906D01*
X167381655Y-100714215D01*
X167478254Y-100695000D01*
X167576746Y-100695000D01*
X167673345Y-100714215D01*
X167673345Y-100714215D01*
G37*
G36*
X170170630Y-99976299D02*
X170330855Y-100024903D01*
X170478520Y-100103831D01*
X170607949Y-100210051D01*
X170714169Y-100339480D01*
X170793097Y-100487145D01*
X170841701Y-100647370D01*
X170858112Y-100814000D01*
X170841701Y-100980630D01*
X170793097Y-101140855D01*
X170714169Y-101288520D01*
X170607949Y-101417949D01*
X170478520Y-101524169D01*
X170330855Y-101603097D01*
X170170630Y-101651701D01*
X170045752Y-101664000D01*
X169962248Y-101664000D01*
X169837370Y-101651701D01*
X169677145Y-101603097D01*
X169529480Y-101524169D01*
X169400051Y-101417949D01*
X169293831Y-101288520D01*
X169214903Y-101140855D01*
X169166299Y-100980630D01*
X169149888Y-100814000D01*
X169166299Y-100647370D01*
X169214903Y-100487145D01*
X169293831Y-100339480D01*
X169400051Y-100210051D01*
X169529480Y-100103831D01*
X169677145Y-100024903D01*
X169837370Y-99976299D01*
X169962248Y-99964000D01*
X170045752Y-99964000D01*
X170170630Y-99976299D01*
X170170630Y-99976299D01*
G37*
G36*
X161941130Y-99833352D02*
X160809759Y-100964723D01*
X160420850Y-100575814D01*
X161552221Y-99444443D01*
X161941130Y-99833352D01*
X161941130Y-99833352D01*
G37*
G36*
X158759150Y-100575814D02*
X158370241Y-100964723D01*
X157238870Y-99833352D01*
X157627779Y-99444443D01*
X158759150Y-100575814D01*
X158759150Y-100575814D01*
G37*
G36*
X165449678Y-100301348D02*
X164919348Y-100831678D01*
X164353662Y-100265992D01*
X164883992Y-99735662D01*
X165449678Y-100301348D01*
X165449678Y-100301348D01*
G37*
G36*
X159324835Y-100010128D02*
X158935926Y-100399037D01*
X157804555Y-99267666D01*
X158193464Y-98878757D01*
X159324835Y-100010128D01*
X159324835Y-100010128D01*
G37*
G36*
X161375445Y-99267666D02*
X160244074Y-100399037D01*
X159855165Y-100010128D01*
X160986536Y-98878757D01*
X161375445Y-99267666D01*
X161375445Y-99267666D01*
G37*
G36*
X167656000Y-99968000D02*
X166256000Y-99968000D01*
X166256000Y-98848000D01*
X167656000Y-98848000D01*
X167656000Y-99968000D01*
X167656000Y-99968000D01*
G37*
G36*
X164478338Y-99330008D02*
X163948008Y-99860338D01*
X163382322Y-99294652D01*
X163912652Y-98764322D01*
X164478338Y-99330008D01*
X164478338Y-99330008D01*
G37*
G36*
X170170630Y-97436299D02*
X170330855Y-97484903D01*
X170478520Y-97563831D01*
X170607949Y-97670051D01*
X170714169Y-97799480D01*
X170793097Y-97947145D01*
X170841701Y-98107370D01*
X170858112Y-98274000D01*
X170841701Y-98440630D01*
X170793097Y-98600855D01*
X170714169Y-98748520D01*
X170607949Y-98877949D01*
X170478520Y-98984169D01*
X170330855Y-99063097D01*
X170170630Y-99111701D01*
X170045752Y-99124000D01*
X169962248Y-99124000D01*
X169837370Y-99111701D01*
X169677145Y-99063097D01*
X169529480Y-98984169D01*
X169400051Y-98877949D01*
X169293831Y-98748520D01*
X169214903Y-98600855D01*
X169166299Y-98440630D01*
X169149888Y-98274000D01*
X169166299Y-98107370D01*
X169214903Y-97947145D01*
X169293831Y-97799480D01*
X169400051Y-97670051D01*
X169529480Y-97563831D01*
X169677145Y-97484903D01*
X169837370Y-97436299D01*
X169962248Y-97424000D01*
X170045752Y-97424000D01*
X170170630Y-97436299D01*
X170170630Y-97436299D01*
G37*
G36*
X163417678Y-98269348D02*
X162887348Y-98799678D01*
X162321662Y-98233992D01*
X162851992Y-97703662D01*
X163417678Y-98269348D01*
X163417678Y-98269348D01*
G37*
G36*
X167656000Y-98208000D02*
X166256000Y-98208000D01*
X166256000Y-97088000D01*
X167656000Y-97088000D01*
X167656000Y-98208000D01*
X167656000Y-98208000D01*
G37*
G36*
X156954000Y-97887000D02*
X156154000Y-97887000D01*
X156154000Y-97137000D01*
X156954000Y-97137000D01*
X156954000Y-97887000D01*
X156954000Y-97887000D01*
G37*
G36*
X158454000Y-97887000D02*
X157654000Y-97887000D01*
X157654000Y-97137000D01*
X158454000Y-97137000D01*
X158454000Y-97887000D01*
X158454000Y-97887000D01*
G37*
G36*
X142600000Y-97100000D02*
X141400000Y-97100000D01*
X141400000Y-94600000D01*
X142600000Y-94600000D01*
X142600000Y-97100000D01*
X142600000Y-97100000D01*
G37*
G36*
X132600000Y-97100000D02*
X131400000Y-97100000D01*
X131400000Y-94600000D01*
X132600000Y-94600000D01*
X132600000Y-97100000D01*
X132600000Y-97100000D01*
G37*
G36*
X140600000Y-97100000D02*
X139400000Y-97100000D01*
X139400000Y-94600000D01*
X140600000Y-94600000D01*
X140600000Y-97100000D01*
X140600000Y-97100000D01*
G37*
G36*
X138600000Y-97100000D02*
X137400000Y-97100000D01*
X137400000Y-94600000D01*
X138600000Y-94600000D01*
X138600000Y-97100000D01*
X138600000Y-97100000D01*
G37*
G36*
X136600000Y-97100000D02*
X135400000Y-97100000D01*
X135400000Y-94600000D01*
X136600000Y-94600000D01*
X136600000Y-97100000D01*
X136600000Y-97100000D01*
G37*
G36*
X134600000Y-97100000D02*
X133400000Y-97100000D01*
X133400000Y-94600000D01*
X134600000Y-94600000D01*
X134600000Y-97100000D01*
X134600000Y-97100000D01*
G37*
G36*
X130600000Y-97100000D02*
X129400000Y-97100000D01*
X129400000Y-94600000D01*
X130600000Y-94600000D01*
X130600000Y-97100000D01*
X130600000Y-97100000D01*
G37*
G36*
X128600000Y-97100000D02*
X127400000Y-97100000D01*
X127400000Y-94600000D01*
X128600000Y-94600000D01*
X128600000Y-97100000D01*
X128600000Y-97100000D01*
G37*
G36*
X170854000Y-96584000D02*
X169154000Y-96584000D01*
X169154000Y-94884000D01*
X170854000Y-94884000D01*
X170854000Y-96584000D01*
X170854000Y-96584000D01*
G37*
G36*
X161940432Y-96450024D02*
X160340432Y-96450024D01*
X160340432Y-95150024D01*
X161940432Y-95150024D01*
X161940432Y-96450024D01*
X161940432Y-96450024D01*
G37*
G36*
X158640432Y-96450024D02*
X157040432Y-96450024D01*
X157040432Y-95150024D01*
X158640432Y-95150024D01*
X158640432Y-96450024D01*
X158640432Y-96450024D01*
G37*
G36*
X163521000Y-96376000D02*
X162771000Y-96376000D01*
X162771000Y-95576000D01*
X163521000Y-95576000D01*
X163521000Y-96376000D01*
X163521000Y-96376000D01*
G37*
G36*
X163521000Y-94876000D02*
X162771000Y-94876000D01*
X162771000Y-94076000D01*
X163521000Y-94076000D01*
X163521000Y-94876000D01*
X163521000Y-94876000D01*
G37*
G36*
X161940432Y-94450024D02*
X160340432Y-94450024D01*
X160340432Y-93150024D01*
X161940432Y-93150024D01*
X161940432Y-94450024D01*
X161940432Y-94450024D01*
G37*
G36*
X158640432Y-94450024D02*
X157040432Y-94450024D01*
X157040432Y-93150024D01*
X158640432Y-93150024D01*
X158640432Y-94450024D01*
X158640432Y-94450024D01*
G37*
G36*
X133450000Y-93875000D02*
X132650000Y-93875000D01*
X132650000Y-93125000D01*
X133450000Y-93125000D01*
X133450000Y-93875000D01*
X133450000Y-93875000D01*
G37*
G36*
X131950000Y-93875000D02*
X131150000Y-93875000D01*
X131150000Y-93125000D01*
X131950000Y-93125000D01*
X131950000Y-93875000D01*
X131950000Y-93875000D01*
G37*
G36*
X131500000Y-92425000D02*
X130500000Y-92425000D01*
X130500000Y-91175000D01*
X131500000Y-91175000D01*
X131500000Y-92425000D01*
X131500000Y-92425000D01*
G37*
G36*
X133500000Y-92425000D02*
X132500000Y-92425000D01*
X132500000Y-91175000D01*
X133500000Y-91175000D01*
X133500000Y-92425000D01*
X133500000Y-92425000D01*
G37*
G36*
X137050000Y-90116000D02*
X136450000Y-90116000D01*
X136450000Y-89616000D01*
X137050000Y-89616000D01*
X137050000Y-90116000D01*
X137050000Y-90116000D01*
G37*
G36*
X135950000Y-90116000D02*
X135350000Y-90116000D01*
X135350000Y-89616000D01*
X135950000Y-89616000D01*
X135950000Y-90116000D01*
X135950000Y-90116000D01*
G37*
G36*
X133550000Y-88950000D02*
X132950000Y-88950000D01*
X132950000Y-88450000D01*
X133550000Y-88450000D01*
X133550000Y-88950000D01*
X133550000Y-88950000D01*
G37*
G36*
X134650000Y-88950000D02*
X134050000Y-88950000D01*
X134050000Y-88450000D01*
X134650000Y-88450000D01*
X134650000Y-88950000D01*
X134650000Y-88950000D01*
G37*
G36*
X138250000Y-88950000D02*
X137650000Y-88950000D01*
X137650000Y-88450000D01*
X138250000Y-88450000D01*
X138250000Y-88950000D01*
X138250000Y-88950000D01*
G37*
G36*
X137150000Y-88950000D02*
X136550000Y-88950000D01*
X136550000Y-88450000D01*
X137150000Y-88450000D01*
X137150000Y-88950000D01*
X137150000Y-88950000D01*
G37*
G36*
X129000000Y-88000000D02*
X128000000Y-88000000D01*
X128000000Y-87000000D01*
X129000000Y-87000000D01*
X129000000Y-88000000D01*
X129000000Y-88000000D01*
G37*
G36*
X136000000Y-88000000D02*
X134000000Y-88000000D01*
X134000000Y-86000000D01*
X136000000Y-86000000D01*
X136000000Y-88000000D01*
X136000000Y-88000000D01*
G37*
M02*
