G04 #@! TF.GenerationSoftware,KiCad,Pcbnew,(5.0.2)-1*
G04 #@! TF.CreationDate,2019-03-22T14:17:17+01:00*
G04 #@! TF.ProjectId,LoRaNode,4c6f5261-4e6f-4646-952e-6b696361645f,rev?*
G04 #@! TF.SameCoordinates,Original*
G04 #@! TF.FileFunction,Copper,L1,Top*
G04 #@! TF.FilePolarity,Positive*
%FSLAX46Y46*%
G04 Gerber Fmt 4.6, Leading zero omitted, Abs format (unit mm)*
G04 Created by KiCad (PCBNEW (5.0.2)-1) date 03/22/19 14:17:17*
%MOMM*%
%LPD*%
G01*
G04 APERTURE LIST*
G04 #@! TA.AperFunction,ComponentPad*
%ADD10O,1.700000X1.700000*%
G04 #@! TD*
G04 #@! TA.AperFunction,ComponentPad*
%ADD11R,1.700000X1.700000*%
G04 #@! TD*
G04 #@! TA.AperFunction,SMDPad,CuDef*
%ADD12R,1.200000X2.500000*%
G04 #@! TD*
G04 #@! TA.AperFunction,SMDPad,CuDef*
%ADD13C,0.750000*%
G04 #@! TD*
G04 #@! TA.AperFunction,Conductor*
%ADD14C,0.100000*%
G04 #@! TD*
G04 #@! TA.AperFunction,SMDPad,CuDef*
%ADD15R,0.600000X0.500000*%
G04 #@! TD*
G04 #@! TA.AperFunction,SMDPad,CuDef*
%ADD16R,1.000000X1.250000*%
G04 #@! TD*
G04 #@! TA.AperFunction,SMDPad,CuDef*
%ADD17R,0.800000X0.750000*%
G04 #@! TD*
G04 #@! TA.AperFunction,SMDPad,CuDef*
%ADD18R,0.750000X0.800000*%
G04 #@! TD*
G04 #@! TA.AperFunction,SMDPad,CuDef*
%ADD19C,0.500000*%
G04 #@! TD*
G04 #@! TA.AperFunction,SMDPad,CuDef*
%ADD20C,0.550000*%
G04 #@! TD*
G04 #@! TA.AperFunction,SMDPad,CuDef*
%ADD21R,1.600000X1.300000*%
G04 #@! TD*
G04 #@! TA.AperFunction,SMDPad,CuDef*
%ADD22R,0.820000X1.000000*%
G04 #@! TD*
G04 #@! TA.AperFunction,SMDPad,CuDef*
%ADD23R,1.400000X1.120000*%
G04 #@! TD*
G04 #@! TA.AperFunction,BGAPad,CuDef*
%ADD24C,1.000000*%
G04 #@! TD*
G04 #@! TA.AperFunction,SMDPad,CuDef*
%ADD25R,2.000000X2.000000*%
G04 #@! TD*
G04 #@! TA.AperFunction,SMDPad,CuDef*
%ADD26R,1.000000X1.000000*%
G04 #@! TD*
G04 #@! TA.AperFunction,ViaPad*
%ADD27C,0.600000*%
G04 #@! TD*
G04 #@! TA.AperFunction,Conductor*
%ADD28C,0.300000*%
G04 #@! TD*
G04 #@! TA.AperFunction,Conductor*
%ADD29C,0.400000*%
G04 #@! TD*
G04 #@! TA.AperFunction,Conductor*
%ADD30C,1.200000*%
G04 #@! TD*
G04 #@! TA.AperFunction,Conductor*
%ADD31C,0.200000*%
G04 #@! TD*
G04 #@! TA.AperFunction,Conductor*
%ADD32C,0.254000*%
G04 #@! TD*
G04 APERTURE END LIST*
D10*
G04 #@! TO.P,J6,4*
G04 #@! TO.N,/SCL*
X152400000Y-116332000D03*
G04 #@! TO.P,J6,3*
G04 #@! TO.N,/SDA*
X154940000Y-116332000D03*
G04 #@! TO.P,J6,2*
G04 #@! TO.N,+3V3*
X157480000Y-116332000D03*
D11*
G04 #@! TO.P,J6,1*
G04 #@! TO.N,GND*
X160020000Y-116332000D03*
G04 #@! TD*
D12*
G04 #@! TO.P,U1,1*
G04 #@! TO.N,GND*
X128000000Y-111850000D03*
G04 #@! TO.P,U1,2*
G04 #@! TO.N,/12(\002A\002A/MOSI)*
X130000000Y-111850000D03*
G04 #@! TO.P,U1,3*
G04 #@! TO.N,/11(MISO)*
X132000000Y-111850000D03*
G04 #@! TO.P,U1,4*
G04 #@! TO.N,/13(SCK)*
X134000000Y-111850000D03*
G04 #@! TO.P,U1,5*
G04 #@! TO.N,/10(\002A\002A/SS)*
X136000000Y-111850000D03*
G04 #@! TO.P,U1,6*
G04 #@! TO.N,/D9*
X138000000Y-111850000D03*
G04 #@! TO.P,U1,7*
G04 #@! TO.N,N/C*
X140000000Y-111850000D03*
G04 #@! TO.P,U1,8*
G04 #@! TO.N,GND*
X142000000Y-111850000D03*
G04 #@! TO.P,U1,9*
G04 #@! TO.N,Net-(C1-Pad1)*
X142000000Y-95850000D03*
G04 #@! TO.P,U1,10*
G04 #@! TO.N,GND*
X140000000Y-95850000D03*
G04 #@! TO.P,U1,11*
G04 #@! TO.N,N/C*
X138000000Y-95850000D03*
G04 #@! TO.P,U1,12*
X136000000Y-95850000D03*
G04 #@! TO.P,U1,13*
G04 #@! TO.N,+3V3*
X134000000Y-95850000D03*
G04 #@! TO.P,U1,14*
G04 #@! TO.N,/D5*
X132000000Y-95850000D03*
G04 #@! TO.P,U1,15*
G04 #@! TO.N,/D6*
X130000000Y-95850000D03*
G04 #@! TO.P,U1,16*
G04 #@! TO.N,/D7*
X128000000Y-95850000D03*
G04 #@! TD*
D13*
G04 #@! TO.P,C15,1*
G04 #@! TO.N,+3V3*
X164901670Y-100283670D03*
D14*
G04 #@! TD*
G04 #@! TO.N,+3V3*
G04 #@! TO.C,C15*
G36*
X164353662Y-100265992D02*
X164883992Y-99735662D01*
X165449678Y-100301348D01*
X164919348Y-100831678D01*
X164353662Y-100265992D01*
X164353662Y-100265992D01*
G37*
D13*
G04 #@! TO.P,C15,2*
G04 #@! TO.N,GND*
X165962330Y-101344330D03*
D14*
G04 #@! TD*
G04 #@! TO.N,GND*
G04 #@! TO.C,C15*
G36*
X165414322Y-101326652D02*
X165944652Y-100796322D01*
X166510338Y-101362008D01*
X165980008Y-101892338D01*
X165414322Y-101326652D01*
X165414322Y-101326652D01*
G37*
D15*
G04 #@! TO.P,C1,1*
G04 #@! TO.N,Net-(C1-Pad1)*
X136850000Y-88700000D03*
G04 #@! TO.P,C1,2*
G04 #@! TO.N,GND*
X137950000Y-88700000D03*
G04 #@! TD*
G04 #@! TO.P,C2,2*
G04 #@! TO.N,GND*
X133250000Y-88700000D03*
G04 #@! TO.P,C2,1*
X134350000Y-88700000D03*
G04 #@! TD*
G04 #@! TO.P,L1,1*
G04 #@! TO.N,Net-(C1-Pad1)*
X136750000Y-89866000D03*
G04 #@! TO.P,L1,2*
G04 #@! TO.N,GND*
X135650000Y-89866000D03*
G04 #@! TD*
D13*
G04 #@! TO.P,C11,2*
G04 #@! TO.N,GND*
X163930330Y-99312330D03*
D14*
G04 #@! TD*
G04 #@! TO.N,GND*
G04 #@! TO.C,C11*
G36*
X163382322Y-99294652D02*
X163912652Y-98764322D01*
X164478338Y-99330008D01*
X163948008Y-99860338D01*
X163382322Y-99294652D01*
X163382322Y-99294652D01*
G37*
D13*
G04 #@! TO.P,C11,1*
G04 #@! TO.N,+3V3*
X162869670Y-98251670D03*
D14*
G04 #@! TD*
G04 #@! TO.N,+3V3*
G04 #@! TO.C,C11*
G36*
X162321662Y-98233992D02*
X162851992Y-97703662D01*
X163417678Y-98269348D01*
X162887348Y-98799678D01*
X162321662Y-98233992D01*
X162321662Y-98233992D01*
G37*
D13*
G04 #@! TO.P,C12,1*
G04 #@! TO.N,Net-(C12-Pad1)*
X155040330Y-108665670D03*
D14*
G04 #@! TD*
G04 #@! TO.N,Net-(C12-Pad1)*
G04 #@! TO.C,C12*
G36*
X155058008Y-108117662D02*
X155588338Y-108647992D01*
X155022652Y-109213678D01*
X154492322Y-108683348D01*
X155058008Y-108117662D01*
X155058008Y-108117662D01*
G37*
D13*
G04 #@! TO.P,C12,2*
G04 #@! TO.N,GND*
X153979670Y-109726330D03*
D14*
G04 #@! TD*
G04 #@! TO.N,GND*
G04 #@! TO.C,C12*
G36*
X153997348Y-109178322D02*
X154527678Y-109708652D01*
X153961992Y-110274338D01*
X153431662Y-109744008D01*
X153997348Y-109178322D01*
X153997348Y-109178322D01*
G37*
D16*
G04 #@! TO.P,C13,2*
G04 #@! TO.N,GND*
X131000000Y-91800000D03*
G04 #@! TO.P,C13,1*
G04 #@! TO.N,+3V3*
X133000000Y-91800000D03*
G04 #@! TD*
D17*
G04 #@! TO.P,C14,1*
G04 #@! TO.N,+3V3*
X133050000Y-93500000D03*
G04 #@! TO.P,C14,2*
G04 #@! TO.N,GND*
X131550000Y-93500000D03*
G04 #@! TD*
D13*
G04 #@! TO.P,C16,2*
G04 #@! TO.N,GND*
X152963670Y-108710330D03*
D14*
G04 #@! TD*
G04 #@! TO.N,GND*
G04 #@! TO.C,C16*
G36*
X152981348Y-108162322D02*
X153511678Y-108692652D01*
X152945992Y-109258338D01*
X152415662Y-108728008D01*
X152981348Y-108162322D01*
X152981348Y-108162322D01*
G37*
D13*
G04 #@! TO.P,C16,1*
G04 #@! TO.N,+3V3*
X154024330Y-107649670D03*
D14*
G04 #@! TD*
G04 #@! TO.N,+3V3*
G04 #@! TO.C,C16*
G36*
X154042008Y-107101662D02*
X154572338Y-107631992D01*
X154006652Y-108197678D01*
X153476322Y-107667348D01*
X154042008Y-107101662D01*
X154042008Y-107101662D01*
G37*
D17*
G04 #@! TO.P,C18,2*
G04 #@! TO.N,GND*
X158054000Y-97512000D03*
G04 #@! TO.P,C18,1*
G04 #@! TO.N,Net-(C18-Pad1)*
X156554000Y-97512000D03*
G04 #@! TD*
D18*
G04 #@! TO.P,C19,1*
G04 #@! TO.N,Net-(C19-Pad1)*
X163146000Y-94476000D03*
G04 #@! TO.P,C19,2*
G04 #@! TO.N,GND*
X163146000Y-95976000D03*
G04 #@! TD*
D13*
G04 #@! TO.P,C20,2*
G04 #@! TO.N,/DTR*
X166520830Y-108875330D03*
D14*
G04 #@! TD*
G04 #@! TO.N,/DTR*
G04 #@! TO.C,C20*
G36*
X165972822Y-108857652D02*
X166503152Y-108327322D01*
X167068838Y-108893008D01*
X166538508Y-109423338D01*
X165972822Y-108857652D01*
X165972822Y-108857652D01*
G37*
D13*
G04 #@! TO.P,C20,1*
G04 #@! TO.N,/RES*
X165460170Y-107814670D03*
D14*
G04 #@! TD*
G04 #@! TO.N,/RES*
G04 #@! TO.C,C20*
G36*
X164912162Y-107796992D02*
X165442492Y-107266662D01*
X166008178Y-107832348D01*
X165477848Y-108362678D01*
X164912162Y-107796992D01*
X164912162Y-107796992D01*
G37*
D10*
G04 #@! TO.P,J4,6*
G04 #@! TO.N,GND*
X145760000Y-106560000D03*
G04 #@! TO.P,J4,5*
G04 #@! TO.N,/RES*
X148300000Y-106560000D03*
G04 #@! TO.P,J4,4*
G04 #@! TO.N,/11(MISO)*
X145760000Y-109100000D03*
G04 #@! TO.P,J4,3*
G04 #@! TO.N,/13(SCK)*
X148300000Y-109100000D03*
G04 #@! TO.P,J4,2*
G04 #@! TO.N,+3V3*
X145760000Y-111640000D03*
D11*
G04 #@! TO.P,J4,1*
G04 #@! TO.N,/12(\002A\002A/MOSI)*
X148300000Y-111640000D03*
G04 #@! TD*
D10*
G04 #@! TO.P,J5,6*
G04 #@! TO.N,/DTR*
X170004000Y-108434000D03*
G04 #@! TO.P,J5,5*
G04 #@! TO.N,/D1/TX*
X170004000Y-105894000D03*
G04 #@! TO.P,J5,4*
G04 #@! TO.N,/D0/RX*
X170004000Y-103354000D03*
G04 #@! TO.P,J5,3*
G04 #@! TO.N,+3V3*
X170004000Y-100814000D03*
G04 #@! TO.P,J5,2*
G04 #@! TO.N,GND*
X170004000Y-98274000D03*
D11*
G04 #@! TO.P,J5,1*
X170004000Y-95734000D03*
G04 #@! TD*
D19*
G04 #@! TO.P,R13,2*
G04 #@! TO.N,/RES*
X164444170Y-108767170D03*
D14*
G04 #@! TD*
G04 #@! TO.N,/RES*
G04 #@! TO.C,R13*
G36*
X164939145Y-108625749D02*
X164302749Y-109262145D01*
X163949195Y-108908591D01*
X164585591Y-108272195D01*
X164939145Y-108625749D01*
X164939145Y-108625749D01*
G37*
D19*
G04 #@! TO.P,R13,1*
G04 #@! TO.N,+3V3*
X165504830Y-109827830D03*
D14*
G04 #@! TD*
G04 #@! TO.N,+3V3*
G04 #@! TO.C,R13*
G36*
X165999805Y-109686409D02*
X165363409Y-110322805D01*
X165009855Y-109969251D01*
X165646251Y-109332855D01*
X165999805Y-109686409D01*
X165999805Y-109686409D01*
G37*
D20*
G04 #@! TO.P,U4,32*
G04 #@! TO.N,/D2*
X164575103Y-105649305D03*
D14*
G04 #@! TD*
G04 #@! TO.N,/D2*
G04 #@! TO.C,U4*
G36*
X163814963Y-105278074D02*
X164203872Y-104889165D01*
X165335243Y-106020536D01*
X164946334Y-106409445D01*
X163814963Y-105278074D01*
X163814963Y-105278074D01*
G37*
D20*
G04 #@! TO.P,U4,31*
G04 #@! TO.N,/D1/TX*
X164009417Y-106214990D03*
D14*
G04 #@! TD*
G04 #@! TO.N,/D1/TX*
G04 #@! TO.C,U4*
G36*
X163249277Y-105843759D02*
X163638186Y-105454850D01*
X164769557Y-106586221D01*
X164380648Y-106975130D01*
X163249277Y-105843759D01*
X163249277Y-105843759D01*
G37*
D20*
G04 #@! TO.P,U4,30*
G04 #@! TO.N,/D0/RX*
X163443732Y-106780676D03*
D14*
G04 #@! TD*
G04 #@! TO.N,/D0/RX*
G04 #@! TO.C,U4*
G36*
X162683592Y-106409445D02*
X163072501Y-106020536D01*
X164203872Y-107151907D01*
X163814963Y-107540816D01*
X162683592Y-106409445D01*
X162683592Y-106409445D01*
G37*
D20*
G04 #@! TO.P,U4,29*
G04 #@! TO.N,/RES*
X162878047Y-107346361D03*
D14*
G04 #@! TD*
G04 #@! TO.N,/RES*
G04 #@! TO.C,U4*
G36*
X162117907Y-106975130D02*
X162506816Y-106586221D01*
X163638187Y-107717592D01*
X163249278Y-108106501D01*
X162117907Y-106975130D01*
X162117907Y-106975130D01*
G37*
D20*
G04 #@! TO.P,U4,28*
G04 #@! TO.N,/SCL*
X162312361Y-107912047D03*
D14*
G04 #@! TD*
G04 #@! TO.N,/SCL*
G04 #@! TO.C,U4*
G36*
X161552221Y-107540816D02*
X161941130Y-107151907D01*
X163072501Y-108283278D01*
X162683592Y-108672187D01*
X161552221Y-107540816D01*
X161552221Y-107540816D01*
G37*
D20*
G04 #@! TO.P,U4,27*
G04 #@! TO.N,/SDA*
X161746676Y-108477732D03*
D14*
G04 #@! TD*
G04 #@! TO.N,/SDA*
G04 #@! TO.C,U4*
G36*
X160986536Y-108106501D02*
X161375445Y-107717592D01*
X162506816Y-108848963D01*
X162117907Y-109237872D01*
X160986536Y-108106501D01*
X160986536Y-108106501D01*
G37*
D20*
G04 #@! TO.P,U4,26*
G04 #@! TO.N,/A3*
X161180990Y-109043417D03*
D14*
G04 #@! TD*
G04 #@! TO.N,/A3*
G04 #@! TO.C,U4*
G36*
X160420850Y-108672186D02*
X160809759Y-108283277D01*
X161941130Y-109414648D01*
X161552221Y-109803557D01*
X160420850Y-108672186D01*
X160420850Y-108672186D01*
G37*
D20*
G04 #@! TO.P,U4,25*
G04 #@! TO.N,/A2*
X160615305Y-109609103D03*
D14*
G04 #@! TD*
G04 #@! TO.N,/A2*
G04 #@! TO.C,U4*
G36*
X159855165Y-109237872D02*
X160244074Y-108848963D01*
X161375445Y-109980334D01*
X160986536Y-110369243D01*
X159855165Y-109237872D01*
X159855165Y-109237872D01*
G37*
D20*
G04 #@! TO.P,U4,24*
G04 #@! TO.N,/A1*
X158564695Y-109609103D03*
D14*
G04 #@! TD*
G04 #@! TO.N,/A1*
G04 #@! TO.C,U4*
G36*
X158935926Y-108848963D02*
X159324835Y-109237872D01*
X158193464Y-110369243D01*
X157804555Y-109980334D01*
X158935926Y-108848963D01*
X158935926Y-108848963D01*
G37*
D20*
G04 #@! TO.P,U4,23*
G04 #@! TO.N,/A0*
X157999010Y-109043417D03*
D14*
G04 #@! TD*
G04 #@! TO.N,/A0*
G04 #@! TO.C,U4*
G36*
X158370241Y-108283277D02*
X158759150Y-108672186D01*
X157627779Y-109803557D01*
X157238870Y-109414648D01*
X158370241Y-108283277D01*
X158370241Y-108283277D01*
G37*
D20*
G04 #@! TO.P,U4,22*
G04 #@! TO.N,/A7*
X157433324Y-108477732D03*
D14*
G04 #@! TD*
G04 #@! TO.N,/A7*
G04 #@! TO.C,U4*
G36*
X157804555Y-107717592D02*
X158193464Y-108106501D01*
X157062093Y-109237872D01*
X156673184Y-108848963D01*
X157804555Y-107717592D01*
X157804555Y-107717592D01*
G37*
D20*
G04 #@! TO.P,U4,21*
G04 #@! TO.N,GND*
X156867639Y-107912047D03*
D14*
G04 #@! TD*
G04 #@! TO.N,GND*
G04 #@! TO.C,U4*
G36*
X157238870Y-107151907D02*
X157627779Y-107540816D01*
X156496408Y-108672187D01*
X156107499Y-108283278D01*
X157238870Y-107151907D01*
X157238870Y-107151907D01*
G37*
D20*
G04 #@! TO.P,U4,20*
G04 #@! TO.N,Net-(C12-Pad1)*
X156301953Y-107346361D03*
D14*
G04 #@! TD*
G04 #@! TO.N,Net-(C12-Pad1)*
G04 #@! TO.C,U4*
G36*
X156673184Y-106586221D02*
X157062093Y-106975130D01*
X155930722Y-108106501D01*
X155541813Y-107717592D01*
X156673184Y-106586221D01*
X156673184Y-106586221D01*
G37*
D20*
G04 #@! TO.P,U4,19*
G04 #@! TO.N,N/C*
X155736268Y-106780676D03*
D14*
G04 #@! TD*
G04 #@! TO.N,N/C*
G04 #@! TO.C,U4*
G36*
X156107499Y-106020536D02*
X156496408Y-106409445D01*
X155365037Y-107540816D01*
X154976128Y-107151907D01*
X156107499Y-106020536D01*
X156107499Y-106020536D01*
G37*
D20*
G04 #@! TO.P,U4,18*
G04 #@! TO.N,+3V3*
X155170583Y-106214990D03*
D14*
G04 #@! TD*
G04 #@! TO.N,+3V3*
G04 #@! TO.C,U4*
G36*
X155541814Y-105454850D02*
X155930723Y-105843759D01*
X154799352Y-106975130D01*
X154410443Y-106586221D01*
X155541814Y-105454850D01*
X155541814Y-105454850D01*
G37*
D20*
G04 #@! TO.P,U4,17*
G04 #@! TO.N,/13(SCK)*
X154604897Y-105649305D03*
D14*
G04 #@! TD*
G04 #@! TO.N,/13(SCK)*
G04 #@! TO.C,U4*
G36*
X154976128Y-104889165D02*
X155365037Y-105278074D01*
X154233666Y-106409445D01*
X153844757Y-106020536D01*
X154976128Y-104889165D01*
X154976128Y-104889165D01*
G37*
D20*
G04 #@! TO.P,U4,16*
G04 #@! TO.N,/12(\002A\002A/MOSI)*
X154604897Y-103598695D03*
D14*
G04 #@! TD*
G04 #@! TO.N,/12(\002A\002A/MOSI)*
G04 #@! TO.C,U4*
G36*
X153844757Y-103227464D02*
X154233666Y-102838555D01*
X155365037Y-103969926D01*
X154976128Y-104358835D01*
X153844757Y-103227464D01*
X153844757Y-103227464D01*
G37*
D20*
G04 #@! TO.P,U4,15*
G04 #@! TO.N,/11(MISO)*
X155170583Y-103033010D03*
D14*
G04 #@! TD*
G04 #@! TO.N,/11(MISO)*
G04 #@! TO.C,U4*
G36*
X154410443Y-102661779D02*
X154799352Y-102272870D01*
X155930723Y-103404241D01*
X155541814Y-103793150D01*
X154410443Y-102661779D01*
X154410443Y-102661779D01*
G37*
D20*
G04 #@! TO.P,U4,14*
G04 #@! TO.N,/10(\002A\002A/SS)*
X155736268Y-102467324D03*
D14*
G04 #@! TD*
G04 #@! TO.N,/10(\002A\002A/SS)*
G04 #@! TO.C,U4*
G36*
X154976128Y-102096093D02*
X155365037Y-101707184D01*
X156496408Y-102838555D01*
X156107499Y-103227464D01*
X154976128Y-102096093D01*
X154976128Y-102096093D01*
G37*
D20*
G04 #@! TO.P,U4,13*
G04 #@! TO.N,/D9*
X156301953Y-101901639D03*
D14*
G04 #@! TD*
G04 #@! TO.N,/D9*
G04 #@! TO.C,U4*
G36*
X155541813Y-101530408D02*
X155930722Y-101141499D01*
X157062093Y-102272870D01*
X156673184Y-102661779D01*
X155541813Y-101530408D01*
X155541813Y-101530408D01*
G37*
D20*
G04 #@! TO.P,U4,12*
G04 #@! TO.N,/D8*
X156867639Y-101335953D03*
D14*
G04 #@! TD*
G04 #@! TO.N,/D8*
G04 #@! TO.C,U4*
G36*
X156107499Y-100964722D02*
X156496408Y-100575813D01*
X157627779Y-101707184D01*
X157238870Y-102096093D01*
X156107499Y-100964722D01*
X156107499Y-100964722D01*
G37*
D20*
G04 #@! TO.P,U4,11*
G04 #@! TO.N,/D7*
X157433324Y-100770268D03*
D14*
G04 #@! TD*
G04 #@! TO.N,/D7*
G04 #@! TO.C,U4*
G36*
X156673184Y-100399037D02*
X157062093Y-100010128D01*
X158193464Y-101141499D01*
X157804555Y-101530408D01*
X156673184Y-100399037D01*
X156673184Y-100399037D01*
G37*
D20*
G04 #@! TO.P,U4,10*
G04 #@! TO.N,/D6*
X157999010Y-100204583D03*
D14*
G04 #@! TD*
G04 #@! TO.N,/D6*
G04 #@! TO.C,U4*
G36*
X157238870Y-99833352D02*
X157627779Y-99444443D01*
X158759150Y-100575814D01*
X158370241Y-100964723D01*
X157238870Y-99833352D01*
X157238870Y-99833352D01*
G37*
D20*
G04 #@! TO.P,U4,9*
G04 #@! TO.N,/D5*
X158564695Y-99638897D03*
D14*
G04 #@! TD*
G04 #@! TO.N,/D5*
G04 #@! TO.C,U4*
G36*
X157804555Y-99267666D02*
X158193464Y-98878757D01*
X159324835Y-100010128D01*
X158935926Y-100399037D01*
X157804555Y-99267666D01*
X157804555Y-99267666D01*
G37*
D20*
G04 #@! TO.P,U4,8*
G04 #@! TO.N,Net-(C18-Pad1)*
X160615305Y-99638897D03*
D14*
G04 #@! TD*
G04 #@! TO.N,Net-(C18-Pad1)*
G04 #@! TO.C,U4*
G36*
X160986536Y-98878757D02*
X161375445Y-99267666D01*
X160244074Y-100399037D01*
X159855165Y-100010128D01*
X160986536Y-98878757D01*
X160986536Y-98878757D01*
G37*
D20*
G04 #@! TO.P,U4,7*
G04 #@! TO.N,Net-(C19-Pad1)*
X161180990Y-100204583D03*
D14*
G04 #@! TD*
G04 #@! TO.N,Net-(C19-Pad1)*
G04 #@! TO.C,U4*
G36*
X161552221Y-99444443D02*
X161941130Y-99833352D01*
X160809759Y-100964723D01*
X160420850Y-100575814D01*
X161552221Y-99444443D01*
X161552221Y-99444443D01*
G37*
D20*
G04 #@! TO.P,U4,6*
G04 #@! TO.N,+3V3*
X161746676Y-100770268D03*
D14*
G04 #@! TD*
G04 #@! TO.N,+3V3*
G04 #@! TO.C,U4*
G36*
X162117907Y-100010128D02*
X162506816Y-100399037D01*
X161375445Y-101530408D01*
X160986536Y-101141499D01*
X162117907Y-100010128D01*
X162117907Y-100010128D01*
G37*
D20*
G04 #@! TO.P,U4,5*
G04 #@! TO.N,GND*
X162312361Y-101335953D03*
D14*
G04 #@! TD*
G04 #@! TO.N,GND*
G04 #@! TO.C,U4*
G36*
X162683592Y-100575813D02*
X163072501Y-100964722D01*
X161941130Y-102096093D01*
X161552221Y-101707184D01*
X162683592Y-100575813D01*
X162683592Y-100575813D01*
G37*
D20*
G04 #@! TO.P,U4,4*
G04 #@! TO.N,+3V3*
X162878047Y-101901639D03*
D14*
G04 #@! TD*
G04 #@! TO.N,+3V3*
G04 #@! TO.C,U4*
G36*
X163249278Y-101141499D02*
X163638187Y-101530408D01*
X162506816Y-102661779D01*
X162117907Y-102272870D01*
X163249278Y-101141499D01*
X163249278Y-101141499D01*
G37*
D20*
G04 #@! TO.P,U4,3*
G04 #@! TO.N,GND*
X163443732Y-102467324D03*
D14*
G04 #@! TD*
G04 #@! TO.N,GND*
G04 #@! TO.C,U4*
G36*
X163814963Y-101707184D02*
X164203872Y-102096093D01*
X163072501Y-103227464D01*
X162683592Y-102838555D01*
X163814963Y-101707184D01*
X163814963Y-101707184D01*
G37*
D20*
G04 #@! TO.P,U4,2*
G04 #@! TO.N,/D4*
X164009417Y-103033010D03*
D14*
G04 #@! TD*
G04 #@! TO.N,/D4*
G04 #@! TO.C,U4*
G36*
X164380648Y-102272870D02*
X164769557Y-102661779D01*
X163638186Y-103793150D01*
X163249277Y-103404241D01*
X164380648Y-102272870D01*
X164380648Y-102272870D01*
G37*
D20*
G04 #@! TO.P,U4,1*
G04 #@! TO.N,/D3*
X164575103Y-103598695D03*
D14*
G04 #@! TD*
G04 #@! TO.N,/D3*
G04 #@! TO.C,U4*
G36*
X164946334Y-102838555D02*
X165335243Y-103227464D01*
X164203872Y-104358835D01*
X163814963Y-103969926D01*
X164946334Y-102838555D01*
X164946334Y-102838555D01*
G37*
D21*
G04 #@! TO.P,Y1,4*
G04 #@! TO.N,GND*
X161140432Y-95800024D03*
G04 #@! TO.P,Y1,3*
G04 #@! TO.N,Net-(C18-Pad1)*
X157840432Y-95800024D03*
G04 #@! TO.P,Y1,2*
G04 #@! TO.N,GND*
X157840432Y-93800024D03*
G04 #@! TO.P,Y1,1*
G04 #@! TO.N,Net-(C19-Pad1)*
X161140432Y-93800024D03*
G04 #@! TD*
D19*
G04 #@! TO.P,R14,1*
G04 #@! TO.N,+3V3*
X165630330Y-112036330D03*
D14*
G04 #@! TD*
G04 #@! TO.N,+3V3*
G04 #@! TO.C,R14*
G36*
X166125305Y-111894909D02*
X165488909Y-112531305D01*
X165135355Y-112177751D01*
X165771751Y-111541355D01*
X166125305Y-111894909D01*
X166125305Y-111894909D01*
G37*
D19*
G04 #@! TO.P,R14,2*
G04 #@! TO.N,/SCL*
X164569670Y-110975670D03*
D14*
G04 #@! TD*
G04 #@! TO.N,/SCL*
G04 #@! TO.C,R14*
G36*
X165064645Y-110834249D02*
X164428249Y-111470645D01*
X164074695Y-111117091D01*
X164711091Y-110480695D01*
X165064645Y-110834249D01*
X165064645Y-110834249D01*
G37*
D19*
G04 #@! TO.P,R15,2*
G04 #@! TO.N,/SDA*
X163553670Y-111991670D03*
D14*
G04 #@! TD*
G04 #@! TO.N,/SDA*
G04 #@! TO.C,R15*
G36*
X164048645Y-111850249D02*
X163412249Y-112486645D01*
X163058695Y-112133091D01*
X163695091Y-111496695D01*
X164048645Y-111850249D01*
X164048645Y-111850249D01*
G37*
D19*
G04 #@! TO.P,R15,1*
G04 #@! TO.N,+3V3*
X164614330Y-113052330D03*
D14*
G04 #@! TD*
G04 #@! TO.N,+3V3*
G04 #@! TO.C,R15*
G36*
X165109305Y-112910909D02*
X164472909Y-113547305D01*
X164119355Y-113193751D01*
X164755751Y-112557355D01*
X165109305Y-112910909D01*
X165109305Y-112910909D01*
G37*
D22*
G04 #@! TO.P,R16,2*
G04 #@! TO.N,/A0*
X155993999Y-113284000D03*
G04 #@! TO.P,R16,1*
G04 #@! TO.N,/VBAT*
X154394001Y-113284000D03*
G04 #@! TD*
G04 #@! TO.P,R17,1*
G04 #@! TO.N,/A0*
X155993999Y-111760000D03*
G04 #@! TO.P,R17,2*
G04 #@! TO.N,GND*
X154394001Y-111760000D03*
G04 #@! TD*
D23*
G04 #@! TO.P,C17,1*
G04 #@! TO.N,+3V3*
X166956000Y-99408000D03*
G04 #@! TO.P,C17,2*
G04 #@! TO.N,GND*
X166956000Y-97648000D03*
G04 #@! TD*
D24*
G04 #@! TO.P,J9,1*
G04 #@! TO.N,/D3*
X167514500Y-103290500D03*
G04 #@! TD*
G04 #@! TO.P,J10,1*
G04 #@! TO.N,/D4*
X167527500Y-101195000D03*
G04 #@! TD*
G04 #@! TO.P,J11,1*
G04 #@! TO.N,/A1*
X157962600Y-111912400D03*
G04 #@! TD*
G04 #@! TO.P,J12,1*
G04 #@! TO.N,/A2*
X160782000Y-112268000D03*
G04 #@! TD*
G04 #@! TO.P,J13,1*
G04 #@! TO.N,/A3*
X162306000Y-110998000D03*
G04 #@! TD*
G04 #@! TO.P,J14,1*
G04 #@! TO.N,/D8*
X152400000Y-101360000D03*
G04 #@! TD*
D11*
G04 #@! TO.P,J2,1*
G04 #@! TO.N,/VBAT*
X148590000Y-116332000D03*
D10*
G04 #@! TO.P,J2,2*
G04 #@! TO.N,+3V3*
X146050000Y-116332000D03*
G04 #@! TO.P,J2,3*
G04 #@! TO.N,GND*
X143510000Y-116332000D03*
G04 #@! TD*
D25*
G04 #@! TO.P,J1,1*
G04 #@! TO.N,GND*
X135000000Y-87000000D03*
G04 #@! TD*
D26*
G04 #@! TO.P,J3,1*
G04 #@! TO.N,GND*
X128500000Y-87500000D03*
G04 #@! TD*
D24*
G04 #@! TO.P,J8,1*
G04 #@! TO.N,/D2*
X167514500Y-105767000D03*
G04 #@! TD*
G04 #@! TO.P,J7,1*
G04 #@! TO.N,/A7*
X156210000Y-110236000D03*
G04 #@! TD*
D27*
G04 #@! TO.N,/RES*
X156972010Y-105664000D03*
X153162000Y-104902000D03*
G04 #@! TO.N,/D9*
X138000000Y-110200000D03*
X138049000Y-106899980D03*
G04 #@! TO.N,/10(\002A\002A/SS)*
X136000000Y-107449991D03*
X136000000Y-110110010D03*
G04 #@! TO.N,GND*
X153240000Y-110466000D03*
X162891992Y-96750000D03*
X158828000Y-98274020D03*
X162435174Y-103405174D03*
X161353735Y-102279781D03*
X157812000Y-106910000D03*
X159082000Y-93956000D03*
X128000000Y-110000000D03*
X128000000Y-113500000D03*
X130500000Y-93500000D03*
X132500000Y-88700000D03*
X138000000Y-93000000D03*
X137000000Y-92000000D03*
X136000000Y-91500000D03*
X134500000Y-91500000D03*
X133000000Y-90500000D03*
X129500000Y-88500000D03*
X128500000Y-88500000D03*
X127500000Y-88500000D03*
X127500000Y-89500000D03*
X128500000Y-89500000D03*
X129500000Y-89500000D03*
X131000000Y-88500000D03*
X140000000Y-98000000D03*
X141000000Y-98500000D03*
X142000000Y-98500000D03*
X143000000Y-98500000D03*
X144000000Y-98000000D03*
X144000000Y-97000000D03*
X144000000Y-96000000D03*
X144000000Y-95000000D03*
X144000000Y-94000000D03*
X143000000Y-93000000D03*
X142000000Y-92000000D03*
X141000000Y-91000000D03*
X140000000Y-90000000D03*
X138800000Y-88700000D03*
X140000000Y-97000000D03*
X140000000Y-95850000D03*
X139800007Y-94599999D03*
X139000000Y-94000000D03*
X128000000Y-90500000D03*
X128000000Y-91500000D03*
X128000000Y-92500000D03*
X128000000Y-93500000D03*
X158000000Y-89000000D03*
X159000000Y-89000000D03*
X156000000Y-89000000D03*
X171000000Y-90000000D03*
X147000000Y-89000000D03*
X150000000Y-89000000D03*
X157000000Y-89000000D03*
X161000000Y-89000000D03*
X164000000Y-89000000D03*
X144000000Y-89000000D03*
X146000000Y-89000000D03*
X171000000Y-92000000D03*
X151000000Y-89000000D03*
X153000000Y-89000000D03*
X154000000Y-89000000D03*
X163000000Y-89000000D03*
X166000000Y-89000000D03*
X168000000Y-89000000D03*
X170000000Y-89000000D03*
X171000000Y-94000000D03*
X155000000Y-89000000D03*
X143000000Y-89000000D03*
X171000000Y-91000000D03*
X148000000Y-89000000D03*
X152000000Y-89000000D03*
X160000000Y-89000000D03*
X162000000Y-89000000D03*
X171000000Y-93000000D03*
X167000000Y-89000000D03*
X142000000Y-89000000D03*
X165000000Y-89000000D03*
X171000000Y-89000000D03*
X149000000Y-89000000D03*
X145000000Y-89000000D03*
X169000000Y-89000000D03*
X141000000Y-89000000D03*
X167000000Y-118000000D03*
X168000000Y-118000000D03*
X169000000Y-118000000D03*
X170000000Y-118000000D03*
X171000000Y-118000000D03*
X171000000Y-117000000D03*
X171000000Y-116000000D03*
X171000000Y-115000000D03*
X171000000Y-114000000D03*
X171000000Y-113000000D03*
X171000000Y-112000000D03*
X171000000Y-111000000D03*
X171000000Y-110000000D03*
X145000000Y-118000000D03*
X144000000Y-118000000D03*
X143000000Y-118000000D03*
X142000000Y-118000000D03*
X141000000Y-118000000D03*
X140000000Y-118000000D03*
X139000000Y-118000000D03*
X138000000Y-118000000D03*
X137000000Y-118000000D03*
X136000000Y-118000000D03*
X135000000Y-118000000D03*
X134000000Y-118000000D03*
X133000000Y-118000000D03*
X132000000Y-118000000D03*
X131000000Y-118000000D03*
X130000000Y-118000000D03*
X129000000Y-118000000D03*
X128000000Y-118000000D03*
X128000000Y-117000000D03*
X128000000Y-116000000D03*
X128000000Y-115000000D03*
X128000000Y-109000000D03*
X128000000Y-108000000D03*
X128000000Y-107000000D03*
X128000000Y-106000000D03*
X128000000Y-105000000D03*
X128000000Y-104000000D03*
X128000000Y-103000000D03*
X128000000Y-102000000D03*
X128000000Y-101000000D03*
X128000000Y-100000000D03*
X128000000Y-99000000D03*
X128000000Y-98000000D03*
X143256000Y-112776000D03*
X143256000Y-110744000D03*
X161000000Y-117996011D03*
X160000000Y-117996011D03*
X162000000Y-117996011D03*
X163000000Y-117996011D03*
X159000000Y-117996011D03*
X164915447Y-117996011D03*
X158000000Y-117996011D03*
X164000000Y-117996011D03*
X146000000Y-118000000D03*
X166000000Y-118000000D03*
G04 #@! TD*
D28*
G04 #@! TO.N,/13(SCK)*
X134000000Y-110300000D02*
X134900000Y-109400000D01*
X147610023Y-109100000D02*
X148300000Y-109100000D01*
X134900000Y-109400000D02*
X143800000Y-109400000D01*
X143800000Y-109400000D02*
X144760001Y-110360001D01*
X144760001Y-110360001D02*
X146350022Y-110360001D01*
X134000000Y-111850000D02*
X134000000Y-110300000D01*
X146350022Y-110360001D02*
X147610023Y-109100000D01*
X149900000Y-109100000D02*
X148300000Y-109100000D01*
X152218400Y-106781600D02*
X149900000Y-109100000D01*
X154604897Y-105649305D02*
X153472602Y-106781600D01*
X153472602Y-106781600D02*
X152218400Y-106781600D01*
G04 #@! TO.N,/12(\002A\002A/MOSI)*
X148300000Y-111796000D02*
X148300000Y-111640000D01*
X146296000Y-113800000D02*
X148300000Y-111796000D01*
X131300000Y-113800000D02*
X146296000Y-113800000D01*
X130000000Y-111850000D02*
X130000000Y-112500000D01*
X130000000Y-112500000D02*
X131300000Y-113800000D01*
X133049999Y-108150001D02*
X130000000Y-111200000D01*
X130000000Y-111200000D02*
X130000000Y-111850000D01*
X154063592Y-104140000D02*
X151384000Y-104140000D01*
X154604897Y-103598695D02*
X154063592Y-104140000D01*
X151384000Y-104140000D02*
X150524000Y-105000000D01*
X150524000Y-105000000D02*
X145300000Y-105000000D01*
X145300000Y-105000000D02*
X142149999Y-108150001D01*
X142149999Y-108150001D02*
X133049999Y-108150001D01*
G04 #@! TO.N,/11(MISO)*
X132000000Y-110300000D02*
X132000000Y-111850000D01*
X133500000Y-108800000D02*
X132000000Y-110300000D01*
X144257919Y-108800000D02*
X133500000Y-108800000D01*
X145760000Y-109100000D02*
X144557919Y-109100000D01*
X144557919Y-109100000D02*
X144257919Y-108800000D01*
X155806978Y-103669405D02*
X155806978Y-104085822D01*
X155170583Y-103033010D02*
X155806978Y-103669405D01*
X150010000Y-107800000D02*
X147060000Y-107800000D01*
X155806978Y-104085822D02*
X155268955Y-104623845D01*
X151892000Y-105918000D02*
X150010000Y-107800000D01*
X155268955Y-104623845D02*
X154576155Y-104623845D01*
X154576155Y-104623845D02*
X153282000Y-105918000D01*
X147060000Y-107800000D02*
X145760000Y-109100000D01*
X153282000Y-105918000D02*
X151892000Y-105918000D01*
D29*
G04 #@! TO.N,+3V3*
X154024330Y-107649670D02*
X154024330Y-107361243D01*
X154024330Y-107361243D02*
X155170583Y-106214990D01*
X165686000Y-99544000D02*
X165399452Y-99544000D01*
X165399452Y-99544000D02*
X164107122Y-98251670D01*
X164107122Y-98251670D02*
X163500000Y-98251670D01*
X163500000Y-98251670D02*
X162869670Y-98251670D01*
X164946330Y-100283670D02*
X165686000Y-99544000D01*
X164901670Y-100283670D02*
X164946330Y-100283670D01*
X165686000Y-99544000D02*
X166820000Y-99544000D01*
X166820000Y-99544000D02*
X166956000Y-99408000D01*
X159555573Y-101830000D02*
X160651603Y-101830000D01*
X155170583Y-106214990D02*
X159555573Y-101830000D01*
X160651603Y-101830000D02*
X161711335Y-100770268D01*
X161711335Y-100770268D02*
X161746676Y-100770268D01*
D28*
X160993734Y-103029782D02*
X160603734Y-102639782D01*
X160603734Y-102639782D02*
X160603734Y-101807159D01*
X161640625Y-100770268D02*
X161746676Y-100770268D01*
X162878047Y-101901639D02*
X164496016Y-100283670D01*
X164496016Y-100283670D02*
X164901670Y-100283670D01*
X162878047Y-101901639D02*
X161749904Y-103029782D01*
X161749904Y-103029782D02*
X160993734Y-103029782D01*
D29*
X168598000Y-99408000D02*
X170004000Y-100814000D01*
X166956000Y-99408000D02*
X168598000Y-99408000D01*
X162869670Y-99647274D02*
X162869670Y-98251670D01*
X161746676Y-100770268D02*
X162869670Y-99647274D01*
X134000000Y-94450000D02*
X133050000Y-93500000D01*
X134000000Y-95850000D02*
X134000000Y-94450000D01*
X133050000Y-91850000D02*
X133000000Y-91800000D01*
X133050000Y-93500000D02*
X133050000Y-91850000D01*
X163205545Y-97915795D02*
X162869670Y-98251670D01*
X163019000Y-92495500D02*
X164098500Y-93575000D01*
X156605500Y-92495500D02*
X163019000Y-92495500D01*
X156210000Y-92891000D02*
X156605500Y-92495500D01*
X164098500Y-97022840D02*
X163205545Y-97915795D01*
X156210000Y-95758000D02*
X156210000Y-92891000D01*
X134000000Y-96500000D02*
X138592000Y-101092000D01*
X164098500Y-93575000D02*
X164098500Y-97022840D01*
X138592000Y-101092000D02*
X148082000Y-101092000D01*
X134000000Y-95850000D02*
X134000000Y-96500000D01*
X148082000Y-101092000D02*
X151130000Y-98044000D01*
X151130000Y-98044000D02*
X153924000Y-98044000D01*
X153924000Y-98044000D02*
X156210000Y-95758000D01*
X156179999Y-117632001D02*
X147350001Y-117632001D01*
X147350001Y-117632001D02*
X146899999Y-117181999D01*
X146899999Y-117181999D02*
X146050000Y-116332000D01*
X157480000Y-116332000D02*
X156179999Y-117632001D01*
D28*
X165630330Y-112036330D02*
X164614330Y-113052330D01*
X165630330Y-109953330D02*
X165504830Y-109827830D01*
X165630330Y-112036330D02*
X165630330Y-109953330D01*
X164225422Y-113441238D02*
X164614330Y-113052330D01*
X163620660Y-114046000D02*
X164225422Y-113441238D01*
X157480000Y-116332000D02*
X159766000Y-114046000D01*
X159766000Y-114046000D02*
X163620660Y-114046000D01*
D29*
X150114000Y-112268000D02*
X150114000Y-110405998D01*
X146050000Y-116332000D02*
X150114000Y-112268000D01*
D28*
X150088001Y-110379999D02*
X150114000Y-110405998D01*
X147136777Y-110379999D02*
X150088001Y-110379999D01*
X145760000Y-111640000D02*
X145876776Y-111640000D01*
X145876776Y-111640000D02*
X147136777Y-110379999D01*
D29*
X152870328Y-107649670D02*
X154024330Y-107649670D01*
X152817686Y-107702312D02*
X152870328Y-107649670D01*
X152790804Y-107702312D02*
X152817686Y-107702312D01*
X150114000Y-110405998D02*
X150114000Y-110379116D01*
X150114000Y-110379116D02*
X152790804Y-107702312D01*
D30*
G04 #@! TO.N,Net-(C1-Pad1)*
X142000000Y-95850000D02*
X142000000Y-94400000D01*
X142000000Y-94400000D02*
X137700000Y-90100000D01*
D31*
X136650000Y-88900000D02*
X136850000Y-88700000D01*
X136650000Y-89866000D02*
X136650000Y-88900000D01*
X137466000Y-89866000D02*
X136750000Y-89866000D01*
X137700000Y-90100000D02*
X137466000Y-89866000D01*
D28*
G04 #@! TO.N,Net-(C12-Pad1)*
X155040330Y-108665670D02*
X155040330Y-108607984D01*
X155040330Y-108607984D02*
X156301953Y-107346361D01*
G04 #@! TO.N,Net-(C18-Pad1)*
X156554000Y-96992000D02*
X157745976Y-95800024D01*
X156554000Y-97512000D02*
X156554000Y-96992000D01*
X157745976Y-95800024D02*
X157840432Y-95800024D01*
X161114000Y-99140202D02*
X161114000Y-98782000D01*
X160615305Y-99638897D02*
X161114000Y-99140202D01*
X161114000Y-98782000D02*
X158132024Y-95800024D01*
X158132024Y-95800024D02*
X157840432Y-95800024D01*
G04 #@! TO.N,Net-(C19-Pad1)*
X162880000Y-94210000D02*
X161550408Y-94210000D01*
X163146000Y-94476000D02*
X162880000Y-94210000D01*
X161550408Y-94210000D02*
X161140432Y-93800024D01*
X161876000Y-99509573D02*
X161876000Y-98695458D01*
X161180990Y-100204583D02*
X161876000Y-99509573D01*
X161876000Y-98695458D02*
X159844000Y-96663458D01*
X159844000Y-96663458D02*
X159844000Y-94946456D01*
X159844000Y-94946456D02*
X160990432Y-93800024D01*
X160990432Y-93800024D02*
X161140432Y-93800024D01*
G04 #@! TO.N,/RES*
X164298856Y-108767170D02*
X162878047Y-107346361D01*
X164444170Y-108767170D02*
X164298856Y-108767170D01*
X164507670Y-108767170D02*
X165460170Y-107814670D01*
X164444170Y-108767170D02*
X164507670Y-108767170D01*
X162878047Y-107346361D02*
X161195686Y-105664000D01*
X161195686Y-105664000D02*
X157396274Y-105664000D01*
X157396274Y-105664000D02*
X156972010Y-105664000D01*
X151688800Y-104902000D02*
X153162000Y-104902000D01*
X150164800Y-106426000D02*
X151688800Y-104902000D01*
X148336000Y-106426000D02*
X150164800Y-106426000D01*
X148300000Y-106560000D02*
X148300000Y-106462000D01*
X148300000Y-106462000D02*
X148336000Y-106426000D01*
G04 #@! TO.N,/D1/TX*
X169154001Y-106743999D02*
X170004000Y-105894000D01*
X164645812Y-106851385D02*
X169046615Y-106851385D01*
X164009417Y-106214990D02*
X164645812Y-106851385D01*
X169046615Y-106851385D02*
X169154001Y-106743999D01*
G04 #@! TO.N,/D0/RX*
X162807337Y-106144281D02*
X163443732Y-106780676D01*
X170004000Y-103354000D02*
X168749155Y-104608845D01*
X162807337Y-105597663D02*
X162807337Y-106144281D01*
X168733845Y-104624155D02*
X168749155Y-104608845D01*
X163780845Y-104624155D02*
X168733845Y-104624155D01*
X162807337Y-105597663D02*
X163780845Y-104624155D01*
G04 #@! TO.N,/D9*
X137958331Y-111808331D02*
X138000000Y-111850000D01*
X138000000Y-112500000D02*
X138000000Y-111850000D01*
X138000000Y-111850000D02*
X138000000Y-110200000D01*
X138083020Y-106934000D02*
X138049000Y-106899980D01*
X141224000Y-106934000D02*
X138083020Y-106934000D01*
X155665558Y-101265244D02*
X153953086Y-101265244D01*
X156301953Y-101901639D02*
X155665558Y-101265244D01*
X153953086Y-101265244D02*
X152602330Y-102616000D01*
X152602330Y-102616000D02*
X150876000Y-102616000D01*
X144358000Y-103800000D02*
X141224000Y-106934000D01*
X150876000Y-102616000D02*
X149692000Y-103800000D01*
X149692000Y-103800000D02*
X144358000Y-103800000D01*
G04 #@! TO.N,/D7*
X128000000Y-96500000D02*
X128000000Y-95850000D01*
X134624000Y-103124000D02*
X128000000Y-96500000D01*
X149352000Y-103124000D02*
X134624000Y-103124000D01*
X152696011Y-99779989D02*
X149352000Y-103124000D01*
X157433324Y-100770268D02*
X156443045Y-99779989D01*
X156443045Y-99779989D02*
X152696011Y-99779989D01*
G04 #@! TO.N,/D6*
X130000000Y-96500000D02*
X130000000Y-95850000D01*
X135996022Y-102496022D02*
X130000000Y-96500000D01*
X148963978Y-102496022D02*
X135996022Y-102496022D01*
X152230022Y-99229978D02*
X148963978Y-102496022D01*
X157999010Y-100204583D02*
X157024405Y-99229978D01*
X157024405Y-99229978D02*
X152230022Y-99229978D01*
G04 #@! TO.N,/SDA*
X163553670Y-110284726D02*
X163553670Y-111991670D01*
X161746676Y-108477732D02*
X163553670Y-110284726D01*
X163164762Y-112380578D02*
X163553670Y-111991670D01*
X154940000Y-116332000D02*
X154940000Y-115316000D01*
X155448000Y-114808000D02*
X157480000Y-114808000D01*
X154940000Y-115316000D02*
X155448000Y-114808000D01*
X157480000Y-114808000D02*
X159004000Y-113284000D01*
X159004000Y-113284000D02*
X162261340Y-113284000D01*
X162261340Y-113284000D02*
X163164762Y-112380578D01*
G04 #@! TO.N,/SCL*
X164569670Y-110169356D02*
X164569670Y-110975670D01*
X162312361Y-107912047D02*
X164569670Y-110169356D01*
X162312361Y-107912047D02*
X161675966Y-107275652D01*
X161675966Y-107275652D02*
X161202348Y-107275652D01*
X161202348Y-107275652D02*
X159590155Y-108887845D01*
X159590155Y-108887845D02*
X159590155Y-111651845D01*
X153249999Y-115482001D02*
X152400000Y-116332000D01*
X154547999Y-114184001D02*
X153249999Y-115482001D01*
X157057999Y-114184001D02*
X154547999Y-114184001D01*
X159590155Y-111651845D02*
X157057999Y-114184001D01*
G04 #@! TO.N,/D5*
X132000000Y-96500000D02*
X132000000Y-95850000D01*
X137354000Y-101854000D02*
X132000000Y-96500000D01*
X148590000Y-101854000D02*
X137354000Y-101854000D01*
X151764033Y-98679967D02*
X148590000Y-101854000D01*
X158564695Y-99638897D02*
X157605765Y-98679967D01*
X157605765Y-98679967D02*
X151764033Y-98679967D01*
G04 #@! TO.N,/A0*
X155993999Y-113284000D02*
X155993999Y-111760000D01*
X157362615Y-109679812D02*
X157999010Y-109043417D01*
X157362615Y-111101384D02*
X157362615Y-109679812D01*
X156703999Y-111760000D02*
X157362615Y-111101384D01*
X155993999Y-111760000D02*
X156703999Y-111760000D01*
G04 #@! TO.N,/DTR*
X169978500Y-108408500D02*
X170004000Y-108434000D01*
X166520830Y-108875330D02*
X166987660Y-108408500D01*
X166987660Y-108408500D02*
X169978500Y-108408500D01*
G04 #@! TO.N,/10(\002A\002A/SS)*
X136000000Y-111850000D02*
X136000000Y-110110010D01*
X136424264Y-107449991D02*
X136000000Y-107449991D01*
X136574263Y-107599990D02*
X136424264Y-107449991D01*
X144800000Y-104400000D02*
X141600010Y-107599990D01*
X155099873Y-101830929D02*
X154165234Y-101830929D01*
X141600010Y-107599990D02*
X136574263Y-107599990D01*
X155736268Y-102467324D02*
X155099873Y-101830929D01*
X154165234Y-101830929D02*
X152618163Y-103378000D01*
X152618163Y-103378000D02*
X151130000Y-103378000D01*
X151130000Y-103378000D02*
X150108000Y-104400000D01*
X150108000Y-104400000D02*
X144800000Y-104400000D01*
G04 #@! TO.N,/D2*
X164927408Y-105297000D02*
X167044500Y-105297000D01*
X164575103Y-105649305D02*
X164927408Y-105297000D01*
X167044500Y-105297000D02*
X167514500Y-105767000D01*
G04 #@! TO.N,/A3*
X162306000Y-110168427D02*
X162306000Y-110998000D01*
X161180990Y-109043417D02*
X162306000Y-110168427D01*
G04 #@! TO.N,/A2*
X160615305Y-109609103D02*
X160923500Y-109917298D01*
X160840000Y-112210000D02*
X160782000Y-112268000D01*
X160615305Y-109609103D02*
X160840000Y-109833798D01*
X160840000Y-109833798D02*
X160840000Y-112210000D01*
G04 #@! TO.N,/A1*
X158343600Y-109830198D02*
X158564695Y-109609103D01*
X158343600Y-111419900D02*
X158343600Y-109830198D01*
X157962600Y-111912400D02*
X157962600Y-111800900D01*
X157962600Y-111800900D02*
X158343600Y-111419900D01*
G04 #@! TO.N,/D8*
X152899999Y-100860001D02*
X152400000Y-101360000D01*
X153430000Y-100330000D02*
X152899999Y-100860001D01*
X156867639Y-101335953D02*
X155861686Y-100330000D01*
X155861686Y-100330000D02*
X153430000Y-100330000D01*
G04 #@! TO.N,/D4*
X167027501Y-101694999D02*
X167527500Y-101195000D01*
X166325885Y-102396615D02*
X167027501Y-101694999D01*
X164645812Y-102396615D02*
X166325885Y-102396615D01*
X164009417Y-103033010D02*
X164645812Y-102396615D01*
G04 #@! TO.N,/D3*
X164939908Y-103963500D02*
X166841500Y-103963500D01*
X164575103Y-103598695D02*
X164939908Y-103963500D01*
X166841500Y-103963500D02*
X167514500Y-103290500D01*
G04 #@! TO.N,GND*
X135516000Y-89866000D02*
X134350000Y-88700000D01*
X135650000Y-89866000D02*
X135516000Y-89866000D01*
X134350000Y-87650000D02*
X135000000Y-87000000D01*
X134350000Y-88700000D02*
X134350000Y-87650000D01*
X153979670Y-109726330D02*
X153240000Y-110466000D01*
D29*
X153979670Y-109797040D02*
X154510000Y-110327370D01*
D28*
X156867639Y-107912047D02*
X156231244Y-108548442D01*
X156231244Y-108548442D02*
X156231244Y-108641498D01*
X156231244Y-108641498D02*
X154545372Y-110327370D01*
X154545372Y-110327370D02*
X154510000Y-110327370D01*
D29*
X153979670Y-109726330D02*
X153979670Y-109797040D01*
D28*
X163146000Y-95976000D02*
X163146000Y-96676000D01*
X163072000Y-96750000D02*
X162891992Y-96750000D01*
X163146000Y-96676000D02*
X163072000Y-96750000D01*
X158079000Y-97512000D02*
X158828000Y-98261000D01*
X158828000Y-98261000D02*
X158828000Y-98274020D01*
X158054000Y-97512000D02*
X158079000Y-97512000D01*
X163443732Y-102467324D02*
X164566726Y-101344330D01*
X164566726Y-101344330D02*
X165962330Y-101344330D01*
X162312361Y-101335953D02*
X163930330Y-99717984D01*
X163930330Y-99717984D02*
X163930330Y-99312330D01*
X163373024Y-102467324D02*
X162435174Y-103405174D01*
X163443732Y-102467324D02*
X163373024Y-102467324D01*
X162297563Y-101335953D02*
X161353735Y-102279781D01*
X162312361Y-101335953D02*
X162297563Y-101335953D01*
X156867639Y-107854361D02*
X157812000Y-106910000D01*
X156867639Y-107912047D02*
X156867639Y-107854361D01*
X152963670Y-108710330D02*
X153979670Y-109726330D01*
X157840432Y-93800024D02*
X158926024Y-93800024D01*
X158926024Y-93800024D02*
X159082000Y-93956000D01*
D29*
X128000000Y-111850000D02*
X128000000Y-110000000D01*
X128000000Y-111850000D02*
X128000000Y-113500000D01*
X131550000Y-93500000D02*
X130500000Y-93500000D01*
X133250000Y-88700000D02*
X132500000Y-88700000D01*
D28*
X137000000Y-92000000D02*
X136500000Y-92000000D01*
X136500000Y-92000000D02*
X136000000Y-91500000D01*
X134500000Y-91500000D02*
X133500000Y-90500000D01*
X133500000Y-90500000D02*
X133000000Y-90500000D01*
X128500000Y-88500000D02*
X127500000Y-88500000D01*
X127500000Y-89500000D02*
X128500000Y-89500000D01*
X129500000Y-88500000D02*
X131000000Y-88500000D01*
X140000000Y-95850000D02*
X140000000Y-98000000D01*
X141000000Y-98500000D02*
X142000000Y-98500000D01*
X143000000Y-98500000D02*
X143500000Y-98500000D01*
X143500000Y-98500000D02*
X144000000Y-98000000D01*
X144000000Y-97000000D02*
X144000000Y-96000000D01*
X144000000Y-95000000D02*
X144000000Y-94000000D01*
X143000000Y-93000000D02*
X142000000Y-92000000D01*
X141000000Y-91000000D02*
X140000000Y-90000000D01*
X137950000Y-88700000D02*
X138800000Y-88700000D01*
D29*
X140000000Y-95850000D02*
X139800007Y-95650007D01*
X139800007Y-95650007D02*
X139800007Y-95024263D01*
X139800007Y-95024263D02*
X139800007Y-94599999D01*
D28*
X139599999Y-94599999D02*
X139800007Y-94599999D01*
X139000000Y-94000000D02*
X138000000Y-93000000D01*
X127500000Y-89500000D02*
X127500000Y-90000000D01*
X127500000Y-90000000D02*
X128000000Y-90500000D01*
X128000000Y-91500000D02*
X128000000Y-92500000D01*
X145000000Y-89000000D02*
X144000000Y-89000000D01*
X147000000Y-89000000D02*
X146000000Y-89000000D01*
X161000000Y-89000000D02*
X160000000Y-89000000D01*
X153000000Y-89000000D02*
X152000000Y-89000000D01*
X159000000Y-89000000D02*
X158000000Y-89000000D01*
X155000000Y-89000000D02*
X154000000Y-89000000D01*
X151000000Y-89000000D02*
X150000000Y-89000000D01*
X163000000Y-89000000D02*
X162000000Y-89000000D01*
X143000000Y-89000000D02*
X142000000Y-89000000D01*
X149000000Y-89000000D02*
X148000000Y-89000000D01*
X157000000Y-89000000D02*
X156000000Y-89000000D01*
X171000000Y-93000000D02*
X171000000Y-92000000D01*
X170004000Y-94996000D02*
X171000000Y-94000000D01*
X170004000Y-95734000D02*
X170004000Y-94996000D01*
X171000000Y-91000000D02*
X171000000Y-90000000D01*
X165000000Y-89000000D02*
X164000000Y-89000000D01*
X167000000Y-89000000D02*
X166000000Y-89000000D01*
X169000000Y-89000000D02*
X168000000Y-89000000D01*
X171000000Y-89000000D02*
X170000000Y-89000000D01*
X141000000Y-89000000D02*
X140000000Y-90000000D01*
X166000000Y-118000000D02*
X167000000Y-118000000D01*
X168000000Y-118000000D02*
X169000000Y-118000000D01*
X170000000Y-118000000D02*
X171000000Y-118000000D01*
X171000000Y-117000000D02*
X171000000Y-116000000D01*
X171000000Y-115000000D02*
X171000000Y-114000000D01*
X171000000Y-113000000D02*
X171000000Y-112000000D01*
X171000000Y-111000000D02*
X171000000Y-110000000D01*
X146000000Y-118000000D02*
X145000000Y-118000000D01*
X144000000Y-118000000D02*
X143000000Y-118000000D01*
X142000000Y-118000000D02*
X141000000Y-118000000D01*
X140000000Y-118000000D02*
X139000000Y-118000000D01*
X138000000Y-118000000D02*
X137000000Y-118000000D01*
X136000000Y-118000000D02*
X135000000Y-118000000D01*
X134000000Y-118000000D02*
X133000000Y-118000000D01*
X132000000Y-118000000D02*
X131000000Y-118000000D01*
X130000000Y-118000000D02*
X129000000Y-118000000D01*
X128000000Y-118000000D02*
X128000000Y-117000000D01*
X128000000Y-116000000D02*
X128000000Y-115000000D01*
X128000000Y-109000000D02*
X128000000Y-108000000D01*
X128000000Y-107000000D02*
X128000000Y-106000000D01*
X128000000Y-105000000D02*
X128000000Y-104000000D01*
X128000000Y-103000000D02*
X128000000Y-102000000D01*
X128000000Y-101000000D02*
X128000000Y-100000000D01*
X128000000Y-99000000D02*
X128000000Y-98000000D01*
D29*
X143256000Y-112106000D02*
X143256000Y-112351736D01*
X143256000Y-112351736D02*
X143256000Y-112776000D01*
X143000000Y-111850000D02*
X143256000Y-112106000D01*
X142000000Y-111850000D02*
X143000000Y-111850000D01*
D28*
X142000000Y-111850000D02*
X142900000Y-111850000D01*
X142900000Y-111850000D02*
X143256000Y-111494000D01*
X143256000Y-111168264D02*
X143256000Y-110744000D01*
X143256000Y-111494000D02*
X143256000Y-111168264D01*
X159000000Y-117996011D02*
X158000000Y-117996011D01*
X163000000Y-117996011D02*
X162000000Y-117996011D01*
X164915447Y-117996011D02*
X164000000Y-117996011D01*
X161000000Y-117996011D02*
X160000000Y-117996011D01*
D31*
X128500000Y-87500000D02*
X128500000Y-88500000D01*
D28*
X154545372Y-110808629D02*
X154545372Y-110327370D01*
X154394001Y-110960000D02*
X154545372Y-110808629D01*
X154394001Y-111760000D02*
X154394001Y-110960000D01*
G04 #@! TO.N,/VBAT*
X153684001Y-113284000D02*
X154394001Y-113284000D01*
X152788000Y-113284000D02*
X153684001Y-113284000D01*
X149740000Y-116332000D02*
X152788000Y-113284000D01*
X148590000Y-116332000D02*
X149740000Y-116332000D01*
G04 #@! TO.N,/A7*
X156743400Y-109702600D02*
X156210000Y-110236000D01*
X157433324Y-108477732D02*
X156743400Y-109167656D01*
X156743400Y-109167656D02*
X156743400Y-109702600D01*
G04 #@! TD*
D32*
G04 #@! TO.N,GND*
G36*
X140873000Y-79000000D02*
X140882667Y-79048601D01*
X140910197Y-79089803D01*
X140951399Y-79117333D01*
X141000000Y-79127000D01*
X145000000Y-79127000D01*
X145048601Y-79117333D01*
X145089803Y-79089803D01*
X145117333Y-79048601D01*
X145127000Y-79000000D01*
X145127000Y-68127000D01*
X150873000Y-68127000D01*
X150873000Y-79000000D01*
X150882667Y-79048601D01*
X150910197Y-79089803D01*
X150951399Y-79117333D01*
X151000000Y-79127000D01*
X155000000Y-79127000D01*
X155048601Y-79117333D01*
X155089803Y-79089803D01*
X155117333Y-79048601D01*
X155127000Y-79000000D01*
X155127000Y-68127000D01*
X160873000Y-68127000D01*
X160873000Y-79000000D01*
X160882667Y-79048601D01*
X160910197Y-79089803D01*
X160951399Y-79117333D01*
X161000000Y-79127000D01*
X165000000Y-79127000D01*
X165048601Y-79117333D01*
X165089803Y-79089803D01*
X165117333Y-79048601D01*
X165127000Y-79000000D01*
X165127000Y-68127000D01*
X170873000Y-68127000D01*
X170873000Y-76873000D01*
X170127000Y-76873000D01*
X170127000Y-69000000D01*
X170117333Y-68951399D01*
X170089803Y-68910197D01*
X170048601Y-68882667D01*
X170000000Y-68873000D01*
X166000000Y-68873000D01*
X165951399Y-68882667D01*
X165910197Y-68910197D01*
X165882667Y-68951399D01*
X165873000Y-69000000D01*
X165873000Y-79873000D01*
X160127000Y-79873000D01*
X160127000Y-69000000D01*
X160117333Y-68951399D01*
X160089803Y-68910197D01*
X160048601Y-68882667D01*
X160000000Y-68873000D01*
X156000000Y-68873000D01*
X155951399Y-68882667D01*
X155910197Y-68910197D01*
X155882667Y-68951399D01*
X155873000Y-69000000D01*
X155873000Y-79873000D01*
X150127000Y-79873000D01*
X150127000Y-69000000D01*
X150117333Y-68951399D01*
X150089803Y-68910197D01*
X150048601Y-68882667D01*
X150000000Y-68873000D01*
X146000000Y-68873000D01*
X145951399Y-68882667D01*
X145910197Y-68910197D01*
X145882667Y-68951399D01*
X145873000Y-69000000D01*
X145873000Y-79873000D01*
X140127000Y-79873000D01*
X140127000Y-69000000D01*
X140117333Y-68951399D01*
X140089803Y-68910197D01*
X140048601Y-68882667D01*
X140000000Y-68873000D01*
X136000000Y-68873000D01*
X135951399Y-68882667D01*
X135910197Y-68910197D01*
X135882667Y-68951399D01*
X135873000Y-69000000D01*
X135873000Y-89973000D01*
X135343195Y-89973000D01*
X134127000Y-89037465D01*
X134127000Y-69000000D01*
X134117333Y-68951399D01*
X134089803Y-68910197D01*
X134048601Y-68882667D01*
X134000000Y-68873000D01*
X129000000Y-68873000D01*
X128951399Y-68882667D01*
X128910197Y-68910197D01*
X128882667Y-68951399D01*
X128873000Y-69000000D01*
X128873000Y-88073000D01*
X128127000Y-88073000D01*
X128127000Y-68127000D01*
X140873000Y-68127000D01*
X140873000Y-79000000D01*
X140873000Y-79000000D01*
G37*
X140873000Y-79000000D02*
X140882667Y-79048601D01*
X140910197Y-79089803D01*
X140951399Y-79117333D01*
X141000000Y-79127000D01*
X145000000Y-79127000D01*
X145048601Y-79117333D01*
X145089803Y-79089803D01*
X145117333Y-79048601D01*
X145127000Y-79000000D01*
X145127000Y-68127000D01*
X150873000Y-68127000D01*
X150873000Y-79000000D01*
X150882667Y-79048601D01*
X150910197Y-79089803D01*
X150951399Y-79117333D01*
X151000000Y-79127000D01*
X155000000Y-79127000D01*
X155048601Y-79117333D01*
X155089803Y-79089803D01*
X155117333Y-79048601D01*
X155127000Y-79000000D01*
X155127000Y-68127000D01*
X160873000Y-68127000D01*
X160873000Y-79000000D01*
X160882667Y-79048601D01*
X160910197Y-79089803D01*
X160951399Y-79117333D01*
X161000000Y-79127000D01*
X165000000Y-79127000D01*
X165048601Y-79117333D01*
X165089803Y-79089803D01*
X165117333Y-79048601D01*
X165127000Y-79000000D01*
X165127000Y-68127000D01*
X170873000Y-68127000D01*
X170873000Y-76873000D01*
X170127000Y-76873000D01*
X170127000Y-69000000D01*
X170117333Y-68951399D01*
X170089803Y-68910197D01*
X170048601Y-68882667D01*
X170000000Y-68873000D01*
X166000000Y-68873000D01*
X165951399Y-68882667D01*
X165910197Y-68910197D01*
X165882667Y-68951399D01*
X165873000Y-69000000D01*
X165873000Y-79873000D01*
X160127000Y-79873000D01*
X160127000Y-69000000D01*
X160117333Y-68951399D01*
X160089803Y-68910197D01*
X160048601Y-68882667D01*
X160000000Y-68873000D01*
X156000000Y-68873000D01*
X155951399Y-68882667D01*
X155910197Y-68910197D01*
X155882667Y-68951399D01*
X155873000Y-69000000D01*
X155873000Y-79873000D01*
X150127000Y-79873000D01*
X150127000Y-69000000D01*
X150117333Y-68951399D01*
X150089803Y-68910197D01*
X150048601Y-68882667D01*
X150000000Y-68873000D01*
X146000000Y-68873000D01*
X145951399Y-68882667D01*
X145910197Y-68910197D01*
X145882667Y-68951399D01*
X145873000Y-69000000D01*
X145873000Y-79873000D01*
X140127000Y-79873000D01*
X140127000Y-69000000D01*
X140117333Y-68951399D01*
X140089803Y-68910197D01*
X140048601Y-68882667D01*
X140000000Y-68873000D01*
X136000000Y-68873000D01*
X135951399Y-68882667D01*
X135910197Y-68910197D01*
X135882667Y-68951399D01*
X135873000Y-69000000D01*
X135873000Y-89973000D01*
X135343195Y-89973000D01*
X134127000Y-89037465D01*
X134127000Y-69000000D01*
X134117333Y-68951399D01*
X134089803Y-68910197D01*
X134048601Y-68882667D01*
X134000000Y-68873000D01*
X129000000Y-68873000D01*
X128951399Y-68882667D01*
X128910197Y-68910197D01*
X128882667Y-68951399D01*
X128873000Y-69000000D01*
X128873000Y-88073000D01*
X128127000Y-88073000D01*
X128127000Y-68127000D01*
X140873000Y-68127000D01*
X140873000Y-79000000D01*
G04 #@! TO.N,Net-(C1-Pad1)*
G36*
X137073000Y-88800000D02*
X137082667Y-88848601D01*
X137110197Y-88889803D01*
X137873000Y-89652606D01*
X137873000Y-90473000D01*
X137452606Y-90473000D01*
X137289803Y-90310197D01*
X137244593Y-90281086D01*
X136527000Y-90011989D01*
X136527000Y-88527000D01*
X137073000Y-88527000D01*
X137073000Y-88800000D01*
X137073000Y-88800000D01*
G37*
X137073000Y-88800000D02*
X137082667Y-88848601D01*
X137110197Y-88889803D01*
X137873000Y-89652606D01*
X137873000Y-90473000D01*
X137452606Y-90473000D01*
X137289803Y-90310197D01*
X137244593Y-90281086D01*
X136527000Y-90011989D01*
X136527000Y-88527000D01*
X137073000Y-88527000D01*
X137073000Y-88800000D01*
G04 #@! TO.N,GND*
G36*
X132773000Y-89700000D02*
X132788093Y-89760048D01*
X132819591Y-89798302D01*
X134408877Y-91098302D01*
X134440685Y-91117333D01*
X134489286Y-91127000D01*
X136858001Y-91127000D01*
X140487455Y-94766952D01*
X140473001Y-97799395D01*
X140482783Y-97848878D01*
X140510410Y-97890015D01*
X140551677Y-97917447D01*
X140600300Y-97927000D01*
X143300300Y-97920617D01*
X143349553Y-97910551D01*
X143390530Y-97882686D01*
X143417724Y-97841262D01*
X143426996Y-97792584D01*
X143396713Y-94069133D01*
X143388045Y-94024041D01*
X143361386Y-93982270D01*
X138691669Y-89112104D01*
X138648601Y-89082667D01*
X138600000Y-89073000D01*
X138427000Y-89073000D01*
X138427000Y-88127000D01*
X171523001Y-88127000D01*
X171523000Y-118523000D01*
X127477000Y-118523000D01*
X127477000Y-97535365D01*
X128219365Y-97535365D01*
X134175816Y-103491818D01*
X134208006Y-103539994D01*
X134256182Y-103572184D01*
X134256183Y-103572185D01*
X134398865Y-103667522D01*
X134624000Y-103712304D01*
X134680829Y-103701000D01*
X143640999Y-103701000D01*
X140985000Y-106357000D01*
X138534154Y-106357000D01*
X138460813Y-106283659D01*
X138193609Y-106172980D01*
X137904391Y-106172980D01*
X137637187Y-106283659D01*
X137432679Y-106488167D01*
X137322000Y-106755371D01*
X137322000Y-107022990D01*
X136823785Y-107022990D01*
X136649398Y-106906469D01*
X136481093Y-106872991D01*
X136481092Y-106872991D01*
X136443695Y-106865552D01*
X136411813Y-106833670D01*
X136144609Y-106722991D01*
X135855391Y-106722991D01*
X135588187Y-106833670D01*
X135383679Y-107038178D01*
X135273000Y-107305382D01*
X135273000Y-107573001D01*
X133106827Y-107573001D01*
X133049999Y-107561697D01*
X132993171Y-107573001D01*
X132993170Y-107573001D01*
X132824865Y-107606479D01*
X132634005Y-107734007D01*
X132601814Y-107782185D01*
X130219365Y-110164635D01*
X129400000Y-110164635D01*
X129233393Y-110197775D01*
X129092150Y-110292150D01*
X128997775Y-110433393D01*
X128964635Y-110600000D01*
X128964635Y-113100000D01*
X128997775Y-113266607D01*
X129092150Y-113407850D01*
X129233393Y-113502225D01*
X129400000Y-113535365D01*
X130219364Y-113535365D01*
X130851816Y-114167818D01*
X130884006Y-114215994D01*
X130932182Y-114248184D01*
X130932183Y-114248185D01*
X131074865Y-114343522D01*
X131300000Y-114388304D01*
X131356829Y-114377000D01*
X146239172Y-114377000D01*
X146296000Y-114388304D01*
X146352828Y-114377000D01*
X146352829Y-114377000D01*
X146521134Y-114343522D01*
X146711994Y-114215994D01*
X146744188Y-114167812D01*
X147986636Y-112925365D01*
X148569923Y-112925365D01*
X146396402Y-115098887D01*
X146175769Y-115055000D01*
X145924231Y-115055000D01*
X145551740Y-115129093D01*
X145129335Y-115411335D01*
X144847093Y-115833740D01*
X144747983Y-116332000D01*
X144847093Y-116830260D01*
X145129335Y-117252665D01*
X145551740Y-117534907D01*
X145924231Y-117609000D01*
X146175769Y-117609000D01*
X146396402Y-117565113D01*
X146500306Y-117669018D01*
X146500309Y-117669020D01*
X146862982Y-118031694D01*
X146897960Y-118084042D01*
X147105358Y-118222621D01*
X147288251Y-118259001D01*
X147288255Y-118259001D01*
X147350001Y-118271283D01*
X147411747Y-118259001D01*
X156118253Y-118259001D01*
X156179999Y-118271283D01*
X156241745Y-118259001D01*
X156241749Y-118259001D01*
X156424642Y-118222621D01*
X156632040Y-118084042D01*
X156667019Y-118031692D01*
X157133598Y-117565113D01*
X157354231Y-117609000D01*
X157605769Y-117609000D01*
X157978260Y-117534907D01*
X158400665Y-117252665D01*
X158682907Y-116830260D01*
X158782017Y-116332000D01*
X158701382Y-115926619D01*
X160005001Y-114623000D01*
X163563832Y-114623000D01*
X163620660Y-114634304D01*
X163677488Y-114623000D01*
X163677489Y-114623000D01*
X163845794Y-114589522D01*
X164036654Y-114461994D01*
X164068848Y-114413813D01*
X164506716Y-113975945D01*
X164639516Y-113949530D01*
X164780759Y-113855155D01*
X165417155Y-113218759D01*
X165511530Y-113077516D01*
X165535419Y-112957419D01*
X165655516Y-112933530D01*
X165796759Y-112839155D01*
X166433155Y-112202759D01*
X166527530Y-112061516D01*
X166560670Y-111894909D01*
X166527530Y-111728302D01*
X166433155Y-111587059D01*
X166207330Y-111361234D01*
X166207330Y-110094584D01*
X166307655Y-109994259D01*
X166402030Y-109853016D01*
X166406136Y-109832373D01*
X166538508Y-109858703D01*
X166705115Y-109825563D01*
X166846358Y-109731188D01*
X167376688Y-109200858D01*
X167471063Y-109059615D01*
X167485805Y-108985500D01*
X168836667Y-108985500D01*
X169083335Y-109354665D01*
X169505740Y-109636907D01*
X169878231Y-109711000D01*
X170129769Y-109711000D01*
X170502260Y-109636907D01*
X170924665Y-109354665D01*
X171206907Y-108932260D01*
X171306017Y-108434000D01*
X171206907Y-107935740D01*
X170924665Y-107513335D01*
X170502260Y-107231093D01*
X170164960Y-107164000D01*
X170502260Y-107096907D01*
X170924665Y-106814665D01*
X171206907Y-106392260D01*
X171306017Y-105894000D01*
X171206907Y-105395740D01*
X170924665Y-104973335D01*
X170502260Y-104691093D01*
X170164960Y-104624000D01*
X170502260Y-104556907D01*
X170924665Y-104274665D01*
X171206907Y-103852260D01*
X171306017Y-103354000D01*
X171206907Y-102855740D01*
X170924665Y-102433335D01*
X170502260Y-102151093D01*
X170164960Y-102084000D01*
X170502260Y-102016907D01*
X170924665Y-101734665D01*
X171206907Y-101312260D01*
X171306017Y-100814000D01*
X171206907Y-100315740D01*
X170924665Y-99893335D01*
X170502260Y-99611093D01*
X170129769Y-99537000D01*
X169878231Y-99537000D01*
X169657598Y-99580887D01*
X169085020Y-99008309D01*
X169050041Y-98955959D01*
X168842643Y-98817380D01*
X168659750Y-98781000D01*
X168659746Y-98781000D01*
X168598000Y-98768718D01*
X168536254Y-98781000D01*
X168078038Y-98781000D01*
X168058225Y-98681393D01*
X167963850Y-98540150D01*
X167822607Y-98445775D01*
X167656000Y-98412635D01*
X166256000Y-98412635D01*
X166089393Y-98445775D01*
X165948150Y-98540150D01*
X165853775Y-98681393D01*
X165820635Y-98848000D01*
X165820635Y-98917000D01*
X165747744Y-98917000D01*
X165685999Y-98904718D01*
X165653372Y-98911208D01*
X164594142Y-97851979D01*
X164559163Y-97799629D01*
X164351765Y-97661050D01*
X164347792Y-97660260D01*
X164498193Y-97509859D01*
X164550541Y-97474881D01*
X164597423Y-97404718D01*
X164689120Y-97267483D01*
X164701155Y-97206980D01*
X164725500Y-97084590D01*
X164725500Y-97084587D01*
X164737782Y-97022841D01*
X164725500Y-96961095D01*
X164725500Y-93636746D01*
X164737782Y-93575000D01*
X164725500Y-93513254D01*
X164725500Y-93513250D01*
X164689120Y-93330357D01*
X164585520Y-93175308D01*
X164585519Y-93175307D01*
X164550541Y-93122959D01*
X164498194Y-93087982D01*
X163506020Y-92095809D01*
X163471041Y-92043459D01*
X163263643Y-91904880D01*
X163080750Y-91868500D01*
X163080746Y-91868500D01*
X163019000Y-91856218D01*
X162957254Y-91868500D01*
X156667244Y-91868500D01*
X156605499Y-91856218D01*
X156543754Y-91868500D01*
X156543750Y-91868500D01*
X156360857Y-91904880D01*
X156153459Y-92043459D01*
X156118479Y-92095810D01*
X155810308Y-92403981D01*
X155757960Y-92438959D01*
X155722982Y-92491307D01*
X155722981Y-92491308D01*
X155619380Y-92646358D01*
X155570718Y-92891000D01*
X155583001Y-92952751D01*
X155583000Y-95498288D01*
X153664289Y-97417000D01*
X151191746Y-97417000D01*
X151130000Y-97404718D01*
X151068254Y-97417000D01*
X151068250Y-97417000D01*
X150885357Y-97453380D01*
X150677959Y-97591959D01*
X150642981Y-97644307D01*
X147822289Y-100465000D01*
X138851712Y-100465000D01*
X135922076Y-97535365D01*
X136600000Y-97535365D01*
X136766607Y-97502225D01*
X136907850Y-97407850D01*
X137000000Y-97269937D01*
X137092150Y-97407850D01*
X137233393Y-97502225D01*
X137400000Y-97535365D01*
X138600000Y-97535365D01*
X138766607Y-97502225D01*
X138907850Y-97407850D01*
X139002225Y-97266607D01*
X139035365Y-97100000D01*
X139035365Y-94600000D01*
X139002225Y-94433393D01*
X138907850Y-94292150D01*
X138766607Y-94197775D01*
X138600000Y-94164635D01*
X137400000Y-94164635D01*
X137233393Y-94197775D01*
X137092150Y-94292150D01*
X137000000Y-94430063D01*
X136907850Y-94292150D01*
X136766607Y-94197775D01*
X136600000Y-94164635D01*
X135400000Y-94164635D01*
X135233393Y-94197775D01*
X135092150Y-94292150D01*
X135000000Y-94430063D01*
X134907850Y-94292150D01*
X134766607Y-94197775D01*
X134600000Y-94164635D01*
X134563410Y-94164635D01*
X134487019Y-94050307D01*
X134452041Y-93997959D01*
X134399693Y-93962981D01*
X133885365Y-93448654D01*
X133885365Y-93125000D01*
X133852225Y-92958393D01*
X133757850Y-92817150D01*
X133719768Y-92791704D01*
X133807850Y-92732850D01*
X133902225Y-92591607D01*
X133935365Y-92425000D01*
X133935365Y-91175000D01*
X133902225Y-91008393D01*
X133807850Y-90867150D01*
X133666607Y-90772775D01*
X133500000Y-90739635D01*
X132500000Y-90739635D01*
X132333393Y-90772775D01*
X132192150Y-90867150D01*
X132097775Y-91008393D01*
X132064635Y-91175000D01*
X132064635Y-92425000D01*
X132097775Y-92591607D01*
X132192150Y-92732850D01*
X132333393Y-92827225D01*
X132335181Y-92827581D01*
X132247775Y-92958393D01*
X132214635Y-93125000D01*
X132214635Y-93875000D01*
X132247775Y-94041607D01*
X132329979Y-94164635D01*
X131400000Y-94164635D01*
X131233393Y-94197775D01*
X131092150Y-94292150D01*
X131000000Y-94430063D01*
X130907850Y-94292150D01*
X130766607Y-94197775D01*
X130600000Y-94164635D01*
X129400000Y-94164635D01*
X129233393Y-94197775D01*
X129092150Y-94292150D01*
X129000000Y-94430063D01*
X128907850Y-94292150D01*
X128766607Y-94197775D01*
X128600000Y-94164635D01*
X127477000Y-94164635D01*
X127477000Y-88127000D01*
X132773000Y-88127000D01*
X132773000Y-89700000D01*
X132773000Y-89700000D01*
G37*
X132773000Y-89700000D02*
X132788093Y-89760048D01*
X132819591Y-89798302D01*
X134408877Y-91098302D01*
X134440685Y-91117333D01*
X134489286Y-91127000D01*
X136858001Y-91127000D01*
X140487455Y-94766952D01*
X140473001Y-97799395D01*
X140482783Y-97848878D01*
X140510410Y-97890015D01*
X140551677Y-97917447D01*
X140600300Y-97927000D01*
X143300300Y-97920617D01*
X143349553Y-97910551D01*
X143390530Y-97882686D01*
X143417724Y-97841262D01*
X143426996Y-97792584D01*
X143396713Y-94069133D01*
X143388045Y-94024041D01*
X143361386Y-93982270D01*
X138691669Y-89112104D01*
X138648601Y-89082667D01*
X138600000Y-89073000D01*
X138427000Y-89073000D01*
X138427000Y-88127000D01*
X171523001Y-88127000D01*
X171523000Y-118523000D01*
X127477000Y-118523000D01*
X127477000Y-97535365D01*
X128219365Y-97535365D01*
X134175816Y-103491818D01*
X134208006Y-103539994D01*
X134256182Y-103572184D01*
X134256183Y-103572185D01*
X134398865Y-103667522D01*
X134624000Y-103712304D01*
X134680829Y-103701000D01*
X143640999Y-103701000D01*
X140985000Y-106357000D01*
X138534154Y-106357000D01*
X138460813Y-106283659D01*
X138193609Y-106172980D01*
X137904391Y-106172980D01*
X137637187Y-106283659D01*
X137432679Y-106488167D01*
X137322000Y-106755371D01*
X137322000Y-107022990D01*
X136823785Y-107022990D01*
X136649398Y-106906469D01*
X136481093Y-106872991D01*
X136481092Y-106872991D01*
X136443695Y-106865552D01*
X136411813Y-106833670D01*
X136144609Y-106722991D01*
X135855391Y-106722991D01*
X135588187Y-106833670D01*
X135383679Y-107038178D01*
X135273000Y-107305382D01*
X135273000Y-107573001D01*
X133106827Y-107573001D01*
X133049999Y-107561697D01*
X132993171Y-107573001D01*
X132993170Y-107573001D01*
X132824865Y-107606479D01*
X132634005Y-107734007D01*
X132601814Y-107782185D01*
X130219365Y-110164635D01*
X129400000Y-110164635D01*
X129233393Y-110197775D01*
X129092150Y-110292150D01*
X128997775Y-110433393D01*
X128964635Y-110600000D01*
X128964635Y-113100000D01*
X128997775Y-113266607D01*
X129092150Y-113407850D01*
X129233393Y-113502225D01*
X129400000Y-113535365D01*
X130219364Y-113535365D01*
X130851816Y-114167818D01*
X130884006Y-114215994D01*
X130932182Y-114248184D01*
X130932183Y-114248185D01*
X131074865Y-114343522D01*
X131300000Y-114388304D01*
X131356829Y-114377000D01*
X146239172Y-114377000D01*
X146296000Y-114388304D01*
X146352828Y-114377000D01*
X146352829Y-114377000D01*
X146521134Y-114343522D01*
X146711994Y-114215994D01*
X146744188Y-114167812D01*
X147986636Y-112925365D01*
X148569923Y-112925365D01*
X146396402Y-115098887D01*
X146175769Y-115055000D01*
X145924231Y-115055000D01*
X145551740Y-115129093D01*
X145129335Y-115411335D01*
X144847093Y-115833740D01*
X144747983Y-116332000D01*
X144847093Y-116830260D01*
X145129335Y-117252665D01*
X145551740Y-117534907D01*
X145924231Y-117609000D01*
X146175769Y-117609000D01*
X146396402Y-117565113D01*
X146500306Y-117669018D01*
X146500309Y-117669020D01*
X146862982Y-118031694D01*
X146897960Y-118084042D01*
X147105358Y-118222621D01*
X147288251Y-118259001D01*
X147288255Y-118259001D01*
X147350001Y-118271283D01*
X147411747Y-118259001D01*
X156118253Y-118259001D01*
X156179999Y-118271283D01*
X156241745Y-118259001D01*
X156241749Y-118259001D01*
X156424642Y-118222621D01*
X156632040Y-118084042D01*
X156667019Y-118031692D01*
X157133598Y-117565113D01*
X157354231Y-117609000D01*
X157605769Y-117609000D01*
X157978260Y-117534907D01*
X158400665Y-117252665D01*
X158682907Y-116830260D01*
X158782017Y-116332000D01*
X158701382Y-115926619D01*
X160005001Y-114623000D01*
X163563832Y-114623000D01*
X163620660Y-114634304D01*
X163677488Y-114623000D01*
X163677489Y-114623000D01*
X163845794Y-114589522D01*
X164036654Y-114461994D01*
X164068848Y-114413813D01*
X164506716Y-113975945D01*
X164639516Y-113949530D01*
X164780759Y-113855155D01*
X165417155Y-113218759D01*
X165511530Y-113077516D01*
X165535419Y-112957419D01*
X165655516Y-112933530D01*
X165796759Y-112839155D01*
X166433155Y-112202759D01*
X166527530Y-112061516D01*
X166560670Y-111894909D01*
X166527530Y-111728302D01*
X166433155Y-111587059D01*
X166207330Y-111361234D01*
X166207330Y-110094584D01*
X166307655Y-109994259D01*
X166402030Y-109853016D01*
X166406136Y-109832373D01*
X166538508Y-109858703D01*
X166705115Y-109825563D01*
X166846358Y-109731188D01*
X167376688Y-109200858D01*
X167471063Y-109059615D01*
X167485805Y-108985500D01*
X168836667Y-108985500D01*
X169083335Y-109354665D01*
X169505740Y-109636907D01*
X169878231Y-109711000D01*
X170129769Y-109711000D01*
X170502260Y-109636907D01*
X170924665Y-109354665D01*
X171206907Y-108932260D01*
X171306017Y-108434000D01*
X171206907Y-107935740D01*
X170924665Y-107513335D01*
X170502260Y-107231093D01*
X170164960Y-107164000D01*
X170502260Y-107096907D01*
X170924665Y-106814665D01*
X171206907Y-106392260D01*
X171306017Y-105894000D01*
X171206907Y-105395740D01*
X170924665Y-104973335D01*
X170502260Y-104691093D01*
X170164960Y-104624000D01*
X170502260Y-104556907D01*
X170924665Y-104274665D01*
X171206907Y-103852260D01*
X171306017Y-103354000D01*
X171206907Y-102855740D01*
X170924665Y-102433335D01*
X170502260Y-102151093D01*
X170164960Y-102084000D01*
X170502260Y-102016907D01*
X170924665Y-101734665D01*
X171206907Y-101312260D01*
X171306017Y-100814000D01*
X171206907Y-100315740D01*
X170924665Y-99893335D01*
X170502260Y-99611093D01*
X170129769Y-99537000D01*
X169878231Y-99537000D01*
X169657598Y-99580887D01*
X169085020Y-99008309D01*
X169050041Y-98955959D01*
X168842643Y-98817380D01*
X168659750Y-98781000D01*
X168659746Y-98781000D01*
X168598000Y-98768718D01*
X168536254Y-98781000D01*
X168078038Y-98781000D01*
X168058225Y-98681393D01*
X167963850Y-98540150D01*
X167822607Y-98445775D01*
X167656000Y-98412635D01*
X166256000Y-98412635D01*
X166089393Y-98445775D01*
X165948150Y-98540150D01*
X165853775Y-98681393D01*
X165820635Y-98848000D01*
X165820635Y-98917000D01*
X165747744Y-98917000D01*
X165685999Y-98904718D01*
X165653372Y-98911208D01*
X164594142Y-97851979D01*
X164559163Y-97799629D01*
X164351765Y-97661050D01*
X164347792Y-97660260D01*
X164498193Y-97509859D01*
X164550541Y-97474881D01*
X164597423Y-97404718D01*
X164689120Y-97267483D01*
X164701155Y-97206980D01*
X164725500Y-97084590D01*
X164725500Y-97084587D01*
X164737782Y-97022841D01*
X164725500Y-96961095D01*
X164725500Y-93636746D01*
X164737782Y-93575000D01*
X164725500Y-93513254D01*
X164725500Y-93513250D01*
X164689120Y-93330357D01*
X164585520Y-93175308D01*
X164585519Y-93175307D01*
X164550541Y-93122959D01*
X164498194Y-93087982D01*
X163506020Y-92095809D01*
X163471041Y-92043459D01*
X163263643Y-91904880D01*
X163080750Y-91868500D01*
X163080746Y-91868500D01*
X163019000Y-91856218D01*
X162957254Y-91868500D01*
X156667244Y-91868500D01*
X156605499Y-91856218D01*
X156543754Y-91868500D01*
X156543750Y-91868500D01*
X156360857Y-91904880D01*
X156153459Y-92043459D01*
X156118479Y-92095810D01*
X155810308Y-92403981D01*
X155757960Y-92438959D01*
X155722982Y-92491307D01*
X155722981Y-92491308D01*
X155619380Y-92646358D01*
X155570718Y-92891000D01*
X155583001Y-92952751D01*
X155583000Y-95498288D01*
X153664289Y-97417000D01*
X151191746Y-97417000D01*
X151130000Y-97404718D01*
X151068254Y-97417000D01*
X151068250Y-97417000D01*
X150885357Y-97453380D01*
X150677959Y-97591959D01*
X150642981Y-97644307D01*
X147822289Y-100465000D01*
X138851712Y-100465000D01*
X135922076Y-97535365D01*
X136600000Y-97535365D01*
X136766607Y-97502225D01*
X136907850Y-97407850D01*
X137000000Y-97269937D01*
X137092150Y-97407850D01*
X137233393Y-97502225D01*
X137400000Y-97535365D01*
X138600000Y-97535365D01*
X138766607Y-97502225D01*
X138907850Y-97407850D01*
X139002225Y-97266607D01*
X139035365Y-97100000D01*
X139035365Y-94600000D01*
X139002225Y-94433393D01*
X138907850Y-94292150D01*
X138766607Y-94197775D01*
X138600000Y-94164635D01*
X137400000Y-94164635D01*
X137233393Y-94197775D01*
X137092150Y-94292150D01*
X137000000Y-94430063D01*
X136907850Y-94292150D01*
X136766607Y-94197775D01*
X136600000Y-94164635D01*
X135400000Y-94164635D01*
X135233393Y-94197775D01*
X135092150Y-94292150D01*
X135000000Y-94430063D01*
X134907850Y-94292150D01*
X134766607Y-94197775D01*
X134600000Y-94164635D01*
X134563410Y-94164635D01*
X134487019Y-94050307D01*
X134452041Y-93997959D01*
X134399693Y-93962981D01*
X133885365Y-93448654D01*
X133885365Y-93125000D01*
X133852225Y-92958393D01*
X133757850Y-92817150D01*
X133719768Y-92791704D01*
X133807850Y-92732850D01*
X133902225Y-92591607D01*
X133935365Y-92425000D01*
X133935365Y-91175000D01*
X133902225Y-91008393D01*
X133807850Y-90867150D01*
X133666607Y-90772775D01*
X133500000Y-90739635D01*
X132500000Y-90739635D01*
X132333393Y-90772775D01*
X132192150Y-90867150D01*
X132097775Y-91008393D01*
X132064635Y-91175000D01*
X132064635Y-92425000D01*
X132097775Y-92591607D01*
X132192150Y-92732850D01*
X132333393Y-92827225D01*
X132335181Y-92827581D01*
X132247775Y-92958393D01*
X132214635Y-93125000D01*
X132214635Y-93875000D01*
X132247775Y-94041607D01*
X132329979Y-94164635D01*
X131400000Y-94164635D01*
X131233393Y-94197775D01*
X131092150Y-94292150D01*
X131000000Y-94430063D01*
X130907850Y-94292150D01*
X130766607Y-94197775D01*
X130600000Y-94164635D01*
X129400000Y-94164635D01*
X129233393Y-94197775D01*
X129092150Y-94292150D01*
X129000000Y-94430063D01*
X128907850Y-94292150D01*
X128766607Y-94197775D01*
X128600000Y-94164635D01*
X127477000Y-94164635D01*
X127477000Y-88127000D01*
X132773000Y-88127000D01*
X132773000Y-89700000D01*
G36*
X161414338Y-106698652D02*
X161259175Y-106698652D01*
X161202347Y-106687348D01*
X161145519Y-106698652D01*
X160977214Y-106732130D01*
X160786354Y-106859658D01*
X160754162Y-106907837D01*
X159222343Y-108439657D01*
X159174161Y-108471851D01*
X159163653Y-108487577D01*
X159137807Y-108470308D01*
X159067000Y-108364336D01*
X158678091Y-107975427D01*
X158572119Y-107904620D01*
X158501314Y-107798651D01*
X158112405Y-107409742D01*
X157971162Y-107315367D01*
X157804555Y-107282227D01*
X157637948Y-107315367D01*
X157496705Y-107409742D01*
X156365334Y-108541113D01*
X156270959Y-108682356D01*
X156237819Y-108848963D01*
X156243456Y-108877303D01*
X156199878Y-108942523D01*
X156179809Y-109043417D01*
X156155096Y-109167656D01*
X156166400Y-109224484D01*
X156166400Y-109309000D01*
X156025608Y-109309000D01*
X155684897Y-109450127D01*
X155424127Y-109710897D01*
X155283000Y-110051608D01*
X155283000Y-110420392D01*
X155424127Y-110761103D01*
X155503643Y-110840619D01*
X155417392Y-110857775D01*
X155276149Y-110952150D01*
X155181774Y-111093393D01*
X155148634Y-111260000D01*
X155148634Y-112260000D01*
X155181774Y-112426607D01*
X155245513Y-112522000D01*
X155194000Y-112599095D01*
X155111851Y-112476150D01*
X154970608Y-112381775D01*
X154804001Y-112348635D01*
X153984001Y-112348635D01*
X153817394Y-112381775D01*
X153676151Y-112476150D01*
X153581776Y-112617393D01*
X153563952Y-112707000D01*
X152844828Y-112707000D01*
X152788000Y-112695696D01*
X152731172Y-112707000D01*
X152731171Y-112707000D01*
X152562866Y-112740478D01*
X152372006Y-112868006D01*
X152339815Y-112916184D01*
X149858548Y-115397452D01*
X149842225Y-115315393D01*
X149747850Y-115174150D01*
X149606607Y-115079775D01*
X149440000Y-115046635D01*
X148222076Y-115046635D01*
X150513694Y-112755018D01*
X150566041Y-112720041D01*
X150604673Y-112662225D01*
X150704620Y-112512643D01*
X150711879Y-112476150D01*
X150741000Y-112329750D01*
X150741000Y-112329746D01*
X150753282Y-112268000D01*
X150741000Y-112206254D01*
X150741000Y-110638827D01*
X153103158Y-108276670D01*
X153469944Y-108276670D01*
X153698802Y-108505528D01*
X153840045Y-108599903D01*
X154006652Y-108633043D01*
X154069448Y-108620552D01*
X154056957Y-108683348D01*
X154090097Y-108849955D01*
X154184472Y-108991198D01*
X154714802Y-109521528D01*
X154856045Y-109615903D01*
X155022652Y-109649043D01*
X155189259Y-109615903D01*
X155330502Y-109521528D01*
X155896188Y-108955842D01*
X155990563Y-108814599D01*
X156023703Y-108647992D01*
X155999858Y-108528114D01*
X156097329Y-108508726D01*
X156238572Y-108414351D01*
X157369943Y-107282980D01*
X157464318Y-107141737D01*
X157497458Y-106975130D01*
X157464318Y-106808523D01*
X157369943Y-106667280D01*
X157093663Y-106391000D01*
X157116619Y-106391000D01*
X157383823Y-106280321D01*
X157423144Y-106241000D01*
X160956686Y-106241000D01*
X161414338Y-106698652D01*
X161414338Y-106698652D01*
G37*
X161414338Y-106698652D02*
X161259175Y-106698652D01*
X161202347Y-106687348D01*
X161145519Y-106698652D01*
X160977214Y-106732130D01*
X160786354Y-106859658D01*
X160754162Y-106907837D01*
X159222343Y-108439657D01*
X159174161Y-108471851D01*
X159163653Y-108487577D01*
X159137807Y-108470308D01*
X159067000Y-108364336D01*
X158678091Y-107975427D01*
X158572119Y-107904620D01*
X158501314Y-107798651D01*
X158112405Y-107409742D01*
X157971162Y-107315367D01*
X157804555Y-107282227D01*
X157637948Y-107315367D01*
X157496705Y-107409742D01*
X156365334Y-108541113D01*
X156270959Y-108682356D01*
X156237819Y-108848963D01*
X156243456Y-108877303D01*
X156199878Y-108942523D01*
X156179809Y-109043417D01*
X156155096Y-109167656D01*
X156166400Y-109224484D01*
X156166400Y-109309000D01*
X156025608Y-109309000D01*
X155684897Y-109450127D01*
X155424127Y-109710897D01*
X155283000Y-110051608D01*
X155283000Y-110420392D01*
X155424127Y-110761103D01*
X155503643Y-110840619D01*
X155417392Y-110857775D01*
X155276149Y-110952150D01*
X155181774Y-111093393D01*
X155148634Y-111260000D01*
X155148634Y-112260000D01*
X155181774Y-112426607D01*
X155245513Y-112522000D01*
X155194000Y-112599095D01*
X155111851Y-112476150D01*
X154970608Y-112381775D01*
X154804001Y-112348635D01*
X153984001Y-112348635D01*
X153817394Y-112381775D01*
X153676151Y-112476150D01*
X153581776Y-112617393D01*
X153563952Y-112707000D01*
X152844828Y-112707000D01*
X152788000Y-112695696D01*
X152731172Y-112707000D01*
X152731171Y-112707000D01*
X152562866Y-112740478D01*
X152372006Y-112868006D01*
X152339815Y-112916184D01*
X149858548Y-115397452D01*
X149842225Y-115315393D01*
X149747850Y-115174150D01*
X149606607Y-115079775D01*
X149440000Y-115046635D01*
X148222076Y-115046635D01*
X150513694Y-112755018D01*
X150566041Y-112720041D01*
X150604673Y-112662225D01*
X150704620Y-112512643D01*
X150711879Y-112476150D01*
X150741000Y-112329750D01*
X150741000Y-112329746D01*
X150753282Y-112268000D01*
X150741000Y-112206254D01*
X150741000Y-110638827D01*
X153103158Y-108276670D01*
X153469944Y-108276670D01*
X153698802Y-108505528D01*
X153840045Y-108599903D01*
X154006652Y-108633043D01*
X154069448Y-108620552D01*
X154056957Y-108683348D01*
X154090097Y-108849955D01*
X154184472Y-108991198D01*
X154714802Y-109521528D01*
X154856045Y-109615903D01*
X155022652Y-109649043D01*
X155189259Y-109615903D01*
X155330502Y-109521528D01*
X155896188Y-108955842D01*
X155990563Y-108814599D01*
X156023703Y-108647992D01*
X155999858Y-108528114D01*
X156097329Y-108508726D01*
X156238572Y-108414351D01*
X157369943Y-107282980D01*
X157464318Y-107141737D01*
X157497458Y-106975130D01*
X157464318Y-106808523D01*
X157369943Y-106667280D01*
X157093663Y-106391000D01*
X157116619Y-106391000D01*
X157383823Y-106280321D01*
X157423144Y-106241000D01*
X160956686Y-106241000D01*
X161414338Y-106698652D01*
G36*
X144311815Y-110727816D02*
X144344007Y-110775995D01*
X144534867Y-110903523D01*
X144694984Y-110935372D01*
X144557093Y-111141740D01*
X144457983Y-111640000D01*
X144557093Y-112138260D01*
X144839335Y-112560665D01*
X145261740Y-112842907D01*
X145634231Y-112917000D01*
X145885769Y-112917000D01*
X146258260Y-112842907D01*
X146680665Y-112560665D01*
X146962907Y-112138260D01*
X147014635Y-111878206D01*
X147014635Y-112265364D01*
X146057000Y-113223000D01*
X141010899Y-113223000D01*
X141035365Y-113100000D01*
X141035365Y-110600000D01*
X141002225Y-110433393D01*
X140907850Y-110292150D01*
X140766607Y-110197775D01*
X140600000Y-110164635D01*
X139400000Y-110164635D01*
X139233393Y-110197775D01*
X139092150Y-110292150D01*
X139000000Y-110430063D01*
X138907850Y-110292150D01*
X138766607Y-110197775D01*
X138727000Y-110189897D01*
X138727000Y-110055391D01*
X138694530Y-109977000D01*
X143561000Y-109977000D01*
X144311815Y-110727816D01*
X144311815Y-110727816D01*
G37*
X144311815Y-110727816D02*
X144344007Y-110775995D01*
X144534867Y-110903523D01*
X144694984Y-110935372D01*
X144557093Y-111141740D01*
X144457983Y-111640000D01*
X144557093Y-112138260D01*
X144839335Y-112560665D01*
X145261740Y-112842907D01*
X145634231Y-112917000D01*
X145885769Y-112917000D01*
X146258260Y-112842907D01*
X146680665Y-112560665D01*
X146962907Y-112138260D01*
X147014635Y-111878206D01*
X147014635Y-112265364D01*
X146057000Y-113223000D01*
X141010899Y-113223000D01*
X141035365Y-113100000D01*
X141035365Y-110600000D01*
X141002225Y-110433393D01*
X140907850Y-110292150D01*
X140766607Y-110197775D01*
X140600000Y-110164635D01*
X139400000Y-110164635D01*
X139233393Y-110197775D01*
X139092150Y-110292150D01*
X139000000Y-110430063D01*
X138907850Y-110292150D01*
X138766607Y-110197775D01*
X138727000Y-110189897D01*
X138727000Y-110055391D01*
X138694530Y-109977000D01*
X143561000Y-109977000D01*
X144311815Y-110727816D01*
G36*
X147379335Y-105639335D02*
X147097093Y-106061740D01*
X146997983Y-106560000D01*
X147097093Y-107058260D01*
X147207169Y-107223000D01*
X147116829Y-107223000D01*
X147060000Y-107211696D01*
X146834865Y-107256478D01*
X146692183Y-107351815D01*
X146644006Y-107384006D01*
X146611816Y-107432182D01*
X146165381Y-107878618D01*
X145885769Y-107823000D01*
X145634231Y-107823000D01*
X145261740Y-107897093D01*
X144839335Y-108179335D01*
X144688246Y-108405456D01*
X144673913Y-108384006D01*
X144483053Y-108256478D01*
X144314748Y-108223000D01*
X144314747Y-108223000D01*
X144257919Y-108211696D01*
X144201091Y-108223000D01*
X142893000Y-108223000D01*
X145539001Y-105577000D01*
X147472626Y-105577000D01*
X147379335Y-105639335D01*
X147379335Y-105639335D01*
G37*
X147379335Y-105639335D02*
X147097093Y-106061740D01*
X146997983Y-106560000D01*
X147097093Y-107058260D01*
X147207169Y-107223000D01*
X147116829Y-107223000D01*
X147060000Y-107211696D01*
X146834865Y-107256478D01*
X146692183Y-107351815D01*
X146644006Y-107384006D01*
X146611816Y-107432182D01*
X146165381Y-107878618D01*
X145885769Y-107823000D01*
X145634231Y-107823000D01*
X145261740Y-107897093D01*
X144839335Y-108179335D01*
X144688246Y-108405456D01*
X144673913Y-108384006D01*
X144483053Y-108256478D01*
X144314748Y-108223000D01*
X144314747Y-108223000D01*
X144257919Y-108211696D01*
X144201091Y-108223000D01*
X142893000Y-108223000D01*
X145539001Y-105577000D01*
X147472626Y-105577000D01*
X147379335Y-105639335D01*
G36*
X165948150Y-100275850D02*
X166089393Y-100370225D01*
X166256000Y-100403365D01*
X167016308Y-100403365D01*
X167002397Y-100409127D01*
X166741627Y-100669897D01*
X166600500Y-101010608D01*
X166600500Y-101305999D01*
X166086885Y-101819615D01*
X164702639Y-101819615D01*
X164645811Y-101808311D01*
X164588983Y-101819615D01*
X164439846Y-101849280D01*
X164380648Y-101837505D01*
X164214041Y-101870645D01*
X164072798Y-101965020D01*
X162941427Y-103096391D01*
X162847052Y-103237634D01*
X162813912Y-103404241D01*
X162847052Y-103570848D01*
X162941427Y-103712091D01*
X163330336Y-104101000D01*
X163427783Y-104166111D01*
X163364851Y-104208161D01*
X163332660Y-104256339D01*
X162439525Y-105149475D01*
X162391343Y-105181669D01*
X162263815Y-105372530D01*
X162234057Y-105522134D01*
X162219033Y-105597663D01*
X162230337Y-105654491D01*
X162230337Y-105882651D01*
X161643874Y-105296188D01*
X161611680Y-105248006D01*
X161420820Y-105120478D01*
X161252515Y-105087000D01*
X161252514Y-105087000D01*
X161195686Y-105075696D01*
X161138858Y-105087000D01*
X157423144Y-105087000D01*
X157383823Y-105047679D01*
X157271239Y-105001045D01*
X159815285Y-102457000D01*
X160026734Y-102457000D01*
X160026734Y-102582954D01*
X160015430Y-102639782D01*
X160026734Y-102696610D01*
X160060212Y-102864915D01*
X160187740Y-103055776D01*
X160235922Y-103087970D01*
X160545548Y-103397596D01*
X160577740Y-103445776D01*
X160768600Y-103573304D01*
X160936905Y-103606782D01*
X160993733Y-103618086D01*
X161050561Y-103606782D01*
X161693076Y-103606782D01*
X161749904Y-103618086D01*
X161806732Y-103606782D01*
X161806733Y-103606782D01*
X161975038Y-103573304D01*
X162165898Y-103445776D01*
X162198092Y-103397594D01*
X162499915Y-103095771D01*
X162506816Y-103097144D01*
X162673423Y-103064004D01*
X162814666Y-102969629D01*
X163946037Y-101838258D01*
X164040412Y-101697015D01*
X164073552Y-101530408D01*
X164072179Y-101523507D01*
X164533828Y-101061858D01*
X164611498Y-101139528D01*
X164752741Y-101233903D01*
X164919348Y-101267043D01*
X165085955Y-101233903D01*
X165227198Y-101139528D01*
X165757528Y-100609198D01*
X165851903Y-100467955D01*
X165885043Y-100301348D01*
X165873483Y-100243229D01*
X165905176Y-100211535D01*
X165948150Y-100275850D01*
X165948150Y-100275850D01*
G37*
X165948150Y-100275850D02*
X166089393Y-100370225D01*
X166256000Y-100403365D01*
X167016308Y-100403365D01*
X167002397Y-100409127D01*
X166741627Y-100669897D01*
X166600500Y-101010608D01*
X166600500Y-101305999D01*
X166086885Y-101819615D01*
X164702639Y-101819615D01*
X164645811Y-101808311D01*
X164588983Y-101819615D01*
X164439846Y-101849280D01*
X164380648Y-101837505D01*
X164214041Y-101870645D01*
X164072798Y-101965020D01*
X162941427Y-103096391D01*
X162847052Y-103237634D01*
X162813912Y-103404241D01*
X162847052Y-103570848D01*
X162941427Y-103712091D01*
X163330336Y-104101000D01*
X163427783Y-104166111D01*
X163364851Y-104208161D01*
X163332660Y-104256339D01*
X162439525Y-105149475D01*
X162391343Y-105181669D01*
X162263815Y-105372530D01*
X162234057Y-105522134D01*
X162219033Y-105597663D01*
X162230337Y-105654491D01*
X162230337Y-105882651D01*
X161643874Y-105296188D01*
X161611680Y-105248006D01*
X161420820Y-105120478D01*
X161252515Y-105087000D01*
X161252514Y-105087000D01*
X161195686Y-105075696D01*
X161138858Y-105087000D01*
X157423144Y-105087000D01*
X157383823Y-105047679D01*
X157271239Y-105001045D01*
X159815285Y-102457000D01*
X160026734Y-102457000D01*
X160026734Y-102582954D01*
X160015430Y-102639782D01*
X160026734Y-102696610D01*
X160060212Y-102864915D01*
X160187740Y-103055776D01*
X160235922Y-103087970D01*
X160545548Y-103397596D01*
X160577740Y-103445776D01*
X160768600Y-103573304D01*
X160936905Y-103606782D01*
X160993733Y-103618086D01*
X161050561Y-103606782D01*
X161693076Y-103606782D01*
X161749904Y-103618086D01*
X161806732Y-103606782D01*
X161806733Y-103606782D01*
X161975038Y-103573304D01*
X162165898Y-103445776D01*
X162198092Y-103397594D01*
X162499915Y-103095771D01*
X162506816Y-103097144D01*
X162673423Y-103064004D01*
X162814666Y-102969629D01*
X163946037Y-101838258D01*
X164040412Y-101697015D01*
X164073552Y-101530408D01*
X164072179Y-101523507D01*
X164533828Y-101061858D01*
X164611498Y-101139528D01*
X164752741Y-101233903D01*
X164919348Y-101267043D01*
X165085955Y-101233903D01*
X165227198Y-101139528D01*
X165757528Y-100609198D01*
X165851903Y-100467955D01*
X165885043Y-100301348D01*
X165873483Y-100243229D01*
X165905176Y-100211535D01*
X165948150Y-100275850D01*
G36*
X164486347Y-99517607D02*
X164249559Y-99754395D01*
X164220967Y-99773500D01*
X164080022Y-99867676D01*
X164047830Y-99915855D01*
X163256179Y-100707507D01*
X163249278Y-100706134D01*
X163082671Y-100739274D01*
X162941428Y-100833649D01*
X161810057Y-101965020D01*
X161715682Y-102106263D01*
X161682542Y-102272870D01*
X161683915Y-102279771D01*
X161510904Y-102452782D01*
X161232735Y-102452782D01*
X161180734Y-102400782D01*
X161180734Y-102187580D01*
X161409269Y-101959045D01*
X161542052Y-101932633D01*
X161683295Y-101838258D01*
X162814666Y-100706887D01*
X162909041Y-100565644D01*
X162926678Y-100476978D01*
X163269364Y-100134292D01*
X163321711Y-100099315D01*
X163460290Y-99891917D01*
X163496670Y-99709024D01*
X163496670Y-99709020D01*
X163508952Y-99647275D01*
X163496670Y-99585530D01*
X163496670Y-98878670D01*
X163847411Y-98878670D01*
X164486347Y-99517607D01*
X164486347Y-99517607D01*
G37*
X164486347Y-99517607D02*
X164249559Y-99754395D01*
X164220967Y-99773500D01*
X164080022Y-99867676D01*
X164047830Y-99915855D01*
X163256179Y-100707507D01*
X163249278Y-100706134D01*
X163082671Y-100739274D01*
X162941428Y-100833649D01*
X161810057Y-101965020D01*
X161715682Y-102106263D01*
X161682542Y-102272870D01*
X161683915Y-102279771D01*
X161510904Y-102452782D01*
X161232735Y-102452782D01*
X161180734Y-102400782D01*
X161180734Y-102187580D01*
X161409269Y-101959045D01*
X161542052Y-101932633D01*
X161683295Y-101838258D01*
X162814666Y-100706887D01*
X162909041Y-100565644D01*
X162926678Y-100476978D01*
X163269364Y-100134292D01*
X163321711Y-100099315D01*
X163460290Y-99891917D01*
X163496670Y-99709024D01*
X163496670Y-99709020D01*
X163508952Y-99647275D01*
X163496670Y-99585530D01*
X163496670Y-98878670D01*
X163847411Y-98878670D01*
X164486347Y-99517607D01*
G36*
X160382796Y-98866797D02*
X159590000Y-99659593D01*
X158501314Y-98570907D01*
X158360071Y-98476532D01*
X158193464Y-98443392D01*
X158186563Y-98444765D01*
X158053953Y-98312155D01*
X158021759Y-98263973D01*
X157830899Y-98136445D01*
X157662594Y-98102967D01*
X157662593Y-98102967D01*
X157605765Y-98091663D01*
X157548937Y-98102967D01*
X157323244Y-98102967D01*
X157356225Y-98053607D01*
X157389365Y-97887000D01*
X157389365Y-97137000D01*
X157362095Y-96999905D01*
X157476612Y-96885389D01*
X158401389Y-96885389D01*
X160382796Y-98866797D01*
X160382796Y-98866797D01*
G37*
X160382796Y-98866797D02*
X159590000Y-99659593D01*
X158501314Y-98570907D01*
X158360071Y-98476532D01*
X158193464Y-98443392D01*
X158186563Y-98444765D01*
X158053953Y-98312155D01*
X158021759Y-98263973D01*
X157830899Y-98136445D01*
X157662594Y-98102967D01*
X157662593Y-98102967D01*
X157605765Y-98091663D01*
X157548937Y-98102967D01*
X157323244Y-98102967D01*
X157356225Y-98053607D01*
X157389365Y-97887000D01*
X157389365Y-97137000D01*
X157362095Y-96999905D01*
X157476612Y-96885389D01*
X158401389Y-96885389D01*
X160382796Y-98866797D01*
G36*
X162335635Y-94876000D02*
X162368775Y-95042607D01*
X162463150Y-95183850D01*
X162604393Y-95278225D01*
X162771000Y-95311365D01*
X163471501Y-95311365D01*
X163471501Y-96763127D01*
X162947362Y-97287267D01*
X162851992Y-97268297D01*
X162685385Y-97301437D01*
X162544142Y-97395812D01*
X162013812Y-97926142D01*
X161977312Y-97980769D01*
X160421000Y-96424458D01*
X160421000Y-95185456D01*
X160721068Y-94885389D01*
X161940432Y-94885389D01*
X162107039Y-94852249D01*
X162204692Y-94787000D01*
X162335635Y-94787000D01*
X162335635Y-94876000D01*
X162335635Y-94876000D01*
G37*
X162335635Y-94876000D02*
X162368775Y-95042607D01*
X162463150Y-95183850D01*
X162604393Y-95278225D01*
X162771000Y-95311365D01*
X163471501Y-95311365D01*
X163471501Y-96763127D01*
X162947362Y-97287267D01*
X162851992Y-97268297D01*
X162685385Y-97301437D01*
X162544142Y-97395812D01*
X162013812Y-97926142D01*
X161977312Y-97980769D01*
X160421000Y-96424458D01*
X160421000Y-95185456D01*
X160721068Y-94885389D01*
X161940432Y-94885389D01*
X162107039Y-94852249D01*
X162204692Y-94787000D01*
X162335635Y-94787000D01*
X162335635Y-94876000D01*
G36*
X159905067Y-93150024D02*
X159905067Y-94069388D01*
X159476186Y-94498270D01*
X159428007Y-94530462D01*
X159373902Y-94611436D01*
X159300479Y-94721322D01*
X159255696Y-94946456D01*
X159267001Y-95003288D01*
X159267000Y-96119000D01*
X159075797Y-95927797D01*
X159075797Y-95150024D01*
X159042657Y-94983417D01*
X158948282Y-94842174D01*
X158807039Y-94747799D01*
X158640432Y-94714659D01*
X157040432Y-94714659D01*
X156873825Y-94747799D01*
X156837000Y-94772405D01*
X156837000Y-93150711D01*
X156865211Y-93122500D01*
X159910542Y-93122500D01*
X159905067Y-93150024D01*
X159905067Y-93150024D01*
G37*
X159905067Y-93150024D02*
X159905067Y-94069388D01*
X159476186Y-94498270D01*
X159428007Y-94530462D01*
X159373902Y-94611436D01*
X159300479Y-94721322D01*
X159255696Y-94946456D01*
X159267001Y-95003288D01*
X159267000Y-96119000D01*
X159075797Y-95927797D01*
X159075797Y-95150024D01*
X159042657Y-94983417D01*
X158948282Y-94842174D01*
X158807039Y-94747799D01*
X158640432Y-94714659D01*
X157040432Y-94714659D01*
X156873825Y-94747799D01*
X156837000Y-94772405D01*
X156837000Y-93150711D01*
X156865211Y-93122500D01*
X159910542Y-93122500D01*
X159905067Y-93150024D01*
G36*
X135873000Y-89973000D02*
X135343195Y-89973000D01*
X134127000Y-89037465D01*
X134127000Y-88127000D01*
X135873000Y-88127000D01*
X135873000Y-89973000D01*
X135873000Y-89973000D01*
G37*
X135873000Y-89973000D02*
X135343195Y-89973000D01*
X134127000Y-89037465D01*
X134127000Y-88127000D01*
X135873000Y-88127000D01*
X135873000Y-89973000D01*
G04 #@! TD*
M02*
